<?xml version="1.0" encoding="utf-8" ?>
<svg baseProfile="full" height="900" version="1.1" width="900" xmlns="http://www.w3.org/2000/svg" xmlns:ev="http://www.w3.org/2001/xml-events" xmlns:xlink="http://www.w3.org/1999/xlink"><defs /><path d="M 120.00,780.24 L 127.42,779.79 L 134.83,779.83 L 142.25,780.22 L 149.66,780.23 L 157.08,779.83 L 164.49,780.00 L 171.91,780.00 L 179.33,780.08 L 186.74,780.01 L 194.16,780.06 L 201.57,780.01 L 208.99,780.07 L 216.40,779.83 L 223.82,780.24 L 231.24,780.18 L 238.65,779.79 L 246.07,779.79 L 253.48,779.75 L 260.90,780.11 L 268.31,780.17 L 275.73,780.10 L 283.15,779.91 L 290.56,779.76 L 297.98,780.20 L 305.39,779.97 L 312.81,780.25 L 320.22,779.75 L 327.64,779.87 L 335.06,779.76 L 342.47,780.00 L 349.89,779.91 L 357.30,780.16 L 364.72,780.05 L 372.13,779.82 L 379.55,779.87 L 386.97,780.21 L 394.38,780.05 L 401.80,780.16 L 409.21,780.18 L 416.63,780.02 L 424.04,780.16 L 431.46,780.03 L 438.88,780.01 L 446.29,779.84 L 453.71,780.02 L 461.12,779.76 L 468.54,779.87 L 475.96,780.09 L 483.37,779.75 L 490.79,780.00 L 498.20,780.24 L 505.62,779.99 L 513.03,779.78 L 520.45,780.21 L 527.87,779.76 L 535.28,780.12 L 542.70,779.92 L 550.11,780.10 L 557.53,779.81 L 564.94,779.74 L 572.36,780.24 L 579.78,780.18 L 587.19,779.95 L 594.61,779.98 L 602.02,779.76 L 609.44,779.74 L 616.85,779.81 L 624.27,780.03 L 631.69,780.23 L 639.10,779.86 L 646.52,779.77 L 653.93,780.03 L 661.35,780.24 L 668.76,779.90 L 676.18,779.75 L 683.60,780.00 L 691.01,779.88 L 698.43,780.21 L 705.84,779.99 L 713.26,779.75 L 720.67,780.10 L 728.09,780.04 L 735.51,779.81 L 742.92,779.88 L 750.34,780.24 L 757.75,780.26 L 765.17,779.90 L 772.58,780.00 L 780.00,780.03" fill="none" stroke="#111" stroke-linecap="round" stroke-linejoin="round" stroke-width="2.2" /><path d="M 120.12,780.00 L 119.77,772.58 L 120.17,765.17 L 119.97,757.75 L 119.77,750.34 L 120.08,742.92 L 120.00,735.51 L 119.75,728.09 L 120.18,720.67 L 119.77,713.26 L 120.19,705.84 L 120.12,698.43 L 120.04,691.01 L 119.82,683.60 L 120.24,676.18 L 119.95,668.76 L 119.77,661.35 L 120.15,653.93 L 119.99,646.52 L 119.91,639.10 L 120.09,631.69 L 119.87,624.27 L 119.76,616.85 L 120.17,609.44 L 120.17,602.02 L 119.76,594.61 L 119.98,587.19 L 120.21,579.78 L 119.82,572.36 L 119.90,564.94 L 119.96,557.53 L 120.15,550.11 L 120.23,542.70 L 120.23,535.28 L 120.21,527.87 L 120.02,520.45 L 120.24,513.03 L 120.05,505.62 L 119.99,498.20 L 119.80,490.79 L 119.89,483.37 L 119.95,475.96 L 120.09,468.54 L 119.77,461.12 L 120.24,453.71 L 120.23,446.29 L 120.16,438.88 L 120.24,431.46 L 120.14,424.04 L 120.06,416.63 L 120.07,409.21 L 120.21,401.80 L 119.85,394.38 L 119.77,386.97 L 119.99,379.55 L 119.96,372.13 L 119.97,364.72 L 120.19,357.30 L 120.22,349.89 L 120.24,342.47 L 119.83,335.06 L 120.10,327.64 L 119.98,320.22 L 120.24,312.81 L 119.97,305.39 L 120.07,297.98 L 120.24,290.56 L 120.24,283.15 L 120.04,275.73 L 119.91,268.31 L 120.23,260.90 L 120.20,253.48 L 119.74,246.07 L 119.96,238.65 L 120.23,231.24 L 120.18,223.82 L 119.97,216.40 L 119.97,208.99 L 119.82,201.57 L 120.13,194.16 L 119.92,186.74 L 120.12,179.33 L 119.81,171.91 L 119.93,164.49 L 120.21,157.08 L 120.24,149.66 L 120.17,142.25 L 119.77,134.83 L 120.21,127.42 L 120.02,120.00" fill="none" stroke="#111" stroke-linecap="round" stroke-linejoin="round" stroke-width="2.2" /><path d="M 767.54,769.97 L 768.21,770.62 L 768.69,771.50 L 769.65,771.80 L 770.26,772.52 L 770.98,773.12 L 771.76,773.64 L 772.41,774.31 L 772.95,775.13 L 773.88,775.46 L 774.53,776.14 L 775.40,776.54 L 776.11,777.16 L 776.66,777.95" fill="none" stroke="#111" stroke-linecap="round" stroke-linejoin="round" stroke-width="2.2" /><path d="M 776.54,778.14 L 776.99,778.25 L 777.54,778.18 L 777.87,778.47 L 778.28,778.64 L 778.62,778.92 L 778.98,779.17 L 779.38,779.34 L 779.74,779.59 L 780.09,779.86" fill="none" stroke="#111" stroke-linecap="round" stroke-linejoin="round" stroke-width="2.2" /><path d="M 770.45,785.44 L 771.11,785.43 L 771.60,784.94 L 772.18,784.70 L 772.92,784.92 L 773.36,784.27 L 773.96,784.08 L 774.62,784.08 L 775.16,783.74 L 775.78,783.62 L 776.38,783.42 L 777.03,783.39 L 777.65,783.26 L 778.14,782.78" fill="none" stroke="#111" stroke-linecap="round" stroke-linejoin="round" stroke-width="2.2" /><path d="M 778.05,782.75 L 778.41,782.54 L 778.43,782.10 L 778.63,781.79 L 779.02,781.59 L 779.07,781.18 L 779.56,781.05 L 779.39,780.50 L 779.84,780.34 L 780.00,780.00" fill="none" stroke="#111" stroke-linecap="round" stroke-linejoin="round" stroke-width="2.2" /><path d="M 112.04,131.55 L 112.23,130.72 L 112.37,129.86 L 112.88,129.19 L 113.14,128.39 L 113.44,127.61 L 114.12,127.02 L 114.29,126.18 L 114.66,125.43 L 115.34,124.84 L 115.42,123.96 L 115.89,123.26 L 116.24,122.51 L 116.78,121.84" fill="none" stroke="#111" stroke-linecap="round" stroke-linejoin="round" stroke-width="2.2" /><path d="M 116.49,121.59 L 116.84,121.33 L 117.22,121.14 L 117.73,121.20 L 118.01,120.81 L 118.53,120.89 L 118.76,120.40 L 119.14,120.20 L 119.58,120.11 L 120.01,120.02" fill="none" stroke="#111" stroke-linecap="round" stroke-linejoin="round" stroke-width="2.2" /><path d="M 127.37,129.86 L 127.12,129.19 L 126.41,128.91 L 125.98,128.40 L 125.91,127.59 L 125.11,127.38 L 125.01,126.59 L 124.47,126.17 L 123.80,125.86 L 123.73,125.04 L 123.29,124.54 L 122.72,124.14 L 122.42,123.52 L 121.99,123.01" fill="none" stroke="#111" stroke-linecap="round" stroke-linejoin="round" stroke-width="2.2" /><path d="M 121.65,123.24 L 121.44,122.90 L 121.32,122.50 L 121.23,122.09 L 121.19,121.64 L 120.79,121.41 L 120.57,121.07 L 120.19,120.82 L 120.01,120.46 L 120.03,119.98" fill="none" stroke="#111" stroke-linecap="round" stroke-linejoin="round" stroke-width="2.2" /><path d="M 229.82,770.00 L 230.22,771.82 L 229.78,773.64 L 229.78,775.45 L 229.76,777.27 L 230.22,779.09 L 229.75,780.91 L 230.24,782.73 L 229.85,784.55 L 230.19,786.36 L 230.16,788.18 L 230.08,790.00" fill="none" stroke="#111" stroke-linecap="round" stroke-linejoin="round" stroke-width="2.2" /><path d="M 340.25,770.00 L 340.09,771.82 L 339.74,773.64 L 339.94,775.45 L 339.98,777.27 L 340.20,779.09 L 339.77,780.91 L 339.87,782.73 L 339.74,784.55 L 340.19,786.36 L 340.22,788.18 L 340.06,790.00" fill="none" stroke="#111" stroke-linecap="round" stroke-linejoin="round" stroke-width="2.2" /><path d="M 450.00,770.00 L 449.79,771.82 L 449.85,773.64 L 449.83,775.45 L 449.75,777.27 L 450.05,779.09 L 450.00,780.91 L 450.26,782.73 L 450.00,784.55 L 450.19,786.36 L 450.20,788.18 L 449.81,790.00" fill="none" stroke="#111" stroke-linecap="round" stroke-linejoin="round" stroke-width="2.2" /><path d="M 560.22,770.00 L 559.78,771.82 L 560.10,773.64 L 559.99,775.45 L 559.97,777.27 L 560.03,779.09 L 559.77,780.91 L 560.20,782.73 L 559.85,784.55 L 560.16,786.36 L 559.97,788.18 L 560.24,790.00" fill="none" stroke="#111" stroke-linecap="round" stroke-linejoin="round" stroke-width="2.2" /><path d="M 670.08,770.00 L 670.04,771.82 L 669.86,773.64 L 669.77,775.45 L 669.75,777.27 L 670.00,779.09 L 670.19,780.91 L 670.20,782.73 L 670.24,784.55 L 669.89,786.36 L 669.85,788.18 L 669.75,790.00" fill="none" stroke="#111" stroke-linecap="round" stroke-linejoin="round" stroke-width="2.2" /><path d="M 110.00,669.75 L 111.82,669.78 L 113.64,669.75 L 115.45,669.78 L 117.27,670.23 L 119.09,669.80 L 120.91,669.95 L 122.73,670.01 L 124.55,669.93 L 126.36,669.74 L 128.18,670.21 L 130.00,670.07" fill="none" stroke="#111" stroke-linecap="round" stroke-linejoin="round" stroke-width="2.2" /><path d="M 110.00,559.84 L 111.82,559.85 L 113.64,559.73 L 115.45,559.80 L 117.27,559.83 L 119.09,560.20 L 120.91,559.77 L 122.73,559.84 L 124.55,560.25 L 126.36,559.86 L 128.18,560.15 L 130.00,560.14" fill="none" stroke="#111" stroke-linecap="round" stroke-linejoin="round" stroke-width="2.2" /><path d="M 110.00,450.21 L 111.82,449.76 L 113.64,449.97 L 115.45,450.21 L 117.27,449.75 L 119.09,449.92 L 120.91,450.25 L 122.73,450.22 L 124.55,450.20 L 126.36,450.19 L 128.18,449.76 L 130.00,450.09" fill="none" stroke="#111" stroke-linecap="round" stroke-linejoin="round" stroke-width="2.2" /><path d="M 110.00,339.75 L 111.82,339.96 L 113.64,339.75 L 115.45,339.76 L 117.27,340.23 L 119.09,339.83 L 120.91,340.15 L 122.73,339.93 L 124.55,339.91 L 126.36,339.75 L 128.18,340.15 L 130.00,340.08" fill="none" stroke="#111" stroke-linecap="round" stroke-linejoin="round" stroke-width="2.2" /><path d="M 110.00,229.85 L 111.82,229.95 L 113.64,230.09 L 115.45,229.92 L 117.27,229.81 L 119.09,229.75 L 120.91,229.79 L 122.73,229.81 L 124.55,230.20 L 126.36,230.00 L 128.18,229.92 L 130.00,230.18" fill="none" stroke="#111" stroke-linecap="round" stroke-linejoin="round" stroke-width="2.2" /><path d="M 120.00,483.44 L 120.27,484.37 L 120.83,485.08 L 121.67,485.56 L 122.31,486.20 L 122.38,487.29 L 123.19,487.80 L 123.65,488.58 L 124.52,489.05 L 124.67,490.07 L 125.85,490.30 L 126.06,491.27" fill="none" stroke="#111" stroke-linecap="round" stroke-linejoin="round" stroke-width="2.2" /><path d="M 126.06,491.27 L 126.90,491.74 L 127.04,492.76 L 127.33,493.66 L 127.82,494.41 L 128.44,495.06 L 129.19,495.59 L 129.48,496.50 L 130.07,497.16 L 130.59,497.88 L 131.20,498.54 L 132.11,498.95" fill="none" stroke="#111" stroke-linecap="round" stroke-linejoin="round" stroke-width="2.2" /><path d="M 132.11,498.95 L 133.03,499.34 L 133.15,500.37 L 133.84,500.94 L 134.13,501.83 L 134.47,502.68 L 135.25,503.19 L 136.29,503.48 L 136.93,504.09 L 136.91,505.23 L 137.57,505.83 L 138.17,506.48" fill="none" stroke="#111" stroke-linecap="round" stroke-linejoin="round" stroke-width="2.2" /><path d="M 138.17,506.48 L 138.98,506.93 L 139.54,507.59 L 140.23,508.15 L 140.80,508.80 L 140.47,510.19 L 141.08,510.82 L 142.43,510.83 L 142.41,511.97 L 143.45,512.23 L 143.93,512.96 L 144.22,513.84" fill="none" stroke="#111" stroke-linecap="round" stroke-linejoin="round" stroke-width="2.2" /><path d="M 144.22,513.84 L 144.85,514.43 L 145.25,515.21 L 145.53,516.10 L 146.25,516.61 L 146.58,517.45 L 147.40,517.88 L 148.43,518.14 L 149.02,518.76 L 149.42,519.54 L 150.09,520.09 L 150.28,521.06" fill="none" stroke="#111" stroke-linecap="round" stroke-linejoin="round" stroke-width="2.2" /><path d="M 150.28,521.06 L 150.99,521.56 L 151.36,522.35 L 151.65,523.22 L 152.64,523.48 L 152.63,524.60 L 153.91,524.62 L 153.83,525.80 L 154.26,526.54 L 155.39,526.69 L 155.64,527.59 L 156.33,528.11" fill="none" stroke="#111" stroke-linecap="round" stroke-linejoin="round" stroke-width="2.2" /><path d="M 156.33,528.11 L 156.63,528.96 L 157.55,529.26 L 157.97,530.01 L 158.90,530.30 L 159.40,530.97 L 159.92,531.63 L 160.30,532.40 L 160.89,532.99 L 160.86,534.13 L 162.21,534.05 L 162.39,535.01" fill="none" stroke="#111" stroke-linecap="round" stroke-linejoin="round" stroke-width="2.2" /><path d="M 162.39,535.01 L 163.17,535.41 L 163.39,536.32 L 163.68,537.17 L 164.71,537.36 L 165.12,538.10 L 165.34,539.01 L 166.28,539.27 L 166.55,540.14 L 167.14,540.71 L 168.26,540.81 L 168.44,541.76" fill="none" stroke="#111" stroke-linecap="round" stroke-linejoin="round" stroke-width="2.2" /><path d="M 168.44,541.76 L 169.01,542.34 L 169.90,542.63 L 170.03,543.61 L 171.00,543.83 L 170.81,545.10 L 171.32,545.74 L 172.20,546.04 L 173.20,546.23 L 173.14,547.38 L 173.71,547.96 L 174.50,548.35" fill="none" stroke="#111" stroke-linecap="round" stroke-linejoin="round" stroke-width="2.2" /><path d="M 174.50,548.35 L 175.30,548.69 L 175.19,549.90 L 175.85,550.38 L 176.28,551.08 L 177.32,551.20 L 178.20,551.48 L 178.10,552.68 L 178.48,553.42 L 179.82,553.26 L 180.16,554.05 L 180.55,554.78" fill="none" stroke="#111" stroke-linecap="round" stroke-linejoin="round" stroke-width="2.2" /><path d="M 180.55,554.78 L 180.78,555.66 L 181.99,555.59 L 181.86,556.82 L 182.36,557.45 L 183.69,557.26 L 184.09,557.98 L 184.22,558.96 L 184.89,559.41 L 185.84,559.59 L 186.17,560.38 L 186.61,561.06" fill="none" stroke="#111" stroke-linecap="round" stroke-linejoin="round" stroke-width="2.2" /><path d="M 186.61,561.06 L 187.18,561.59 L 187.94,561.94 L 187.96,563.02 L 188.57,563.52 L 189.35,563.85 L 189.64,564.67 L 190.60,564.81 L 191.35,565.17 L 191.78,565.85 L 191.80,566.93 L 192.66,567.18" fill="none" stroke="#111" stroke-linecap="round" stroke-linejoin="round" stroke-width="2.2" /><path d="M 192.66,567.18 L 193.55,567.38 L 193.94,568.09 L 194.66,568.46 L 194.56,569.66 L 195.11,570.21 L 195.58,570.83 L 196.23,571.27 L 197.43,571.16 L 198.00,571.68 L 197.79,572.99 L 198.72,573.15" fill="none" stroke="#111" stroke-linecap="round" stroke-linejoin="round" stroke-width="2.2" /><path d="M 198.72,573.15 L 199.55,573.39 L 199.90,574.12 L 200.18,574.93 L 200.77,575.42 L 201.15,576.13 L 202.22,576.11 L 202.71,576.70 L 203.15,577.34 L 204.00,577.56 L 204.50,578.15 L 204.77,578.96" fill="none" stroke="#111" stroke-linecap="round" stroke-linejoin="round" stroke-width="2.2" /><path d="M 204.77,578.96 L 205.64,579.14 L 206.26,579.58 L 206.06,580.89 L 207.10,580.88 L 207.83,581.21 L 208.38,581.72 L 208.30,582.91 L 209.49,582.74 L 210.04,583.26 L 210.47,583.90 L 210.83,584.62" fill="none" stroke="#111" stroke-linecap="round" stroke-linejoin="round" stroke-width="2.2" /><path d="M 210.83,584.62 L 211.19,585.32 L 212.27,585.25 L 212.77,585.79 L 213.11,586.53 L 213.91,586.76 L 213.97,587.80 L 215.01,587.76 L 214.87,589.02 L 215.54,589.39 L 216.26,589.70 L 216.88,590.12" fill="none" stroke="#111" stroke-linecap="round" stroke-linejoin="round" stroke-width="2.2" /><path d="M 216.88,590.12 L 217.33,590.72 L 218.36,590.67 L 218.85,591.22 L 218.80,592.39 L 219.41,592.80 L 220.27,592.94 L 220.71,593.55 L 221.09,594.23 L 221.58,594.78 L 222.69,594.63 L 222.94,595.47" fill="none" stroke="#111" stroke-linecap="round" stroke-linejoin="round" stroke-width="2.2" /><path d="M 222.94,595.47 L 223.24,596.23 L 224.37,596.02 L 224.74,596.71 L 225.39,597.06 L 225.79,597.71 L 226.08,598.49 L 226.61,598.97 L 227.20,599.41 L 228.24,599.30 L 228.68,599.90 L 228.99,600.66" fill="none" stroke="#111" stroke-linecap="round" stroke-linejoin="round" stroke-width="2.2" /><path d="M 228.99,600.66 L 229.74,600.88 L 229.87,601.84 L 230.75,601.90 L 230.96,602.77 L 231.69,603.01 L 232.12,603.61 L 232.99,603.69 L 233.72,603.93 L 234.21,604.46 L 234.57,605.14 L 235.05,605.69" fill="none" stroke="#111" stroke-linecap="round" stroke-linejoin="round" stroke-width="2.2" /><path d="M 235.05,605.69 L 235.42,606.35 L 236.29,606.40 L 236.35,607.45 L 236.90,607.90 L 237.53,608.24 L 238.45,608.23 L 238.55,609.22 L 239.38,609.32 L 239.80,609.93 L 240.28,610.47 L 241.10,610.57" fill="none" stroke="#111" stroke-linecap="round" stroke-linejoin="round" stroke-width="2.2" /><path d="M 241.10,610.57 L 241.47,611.24 L 241.97,611.73 L 243.04,611.49 L 243.66,611.83 L 244.15,612.34 L 244.74,612.71 L 244.94,613.59 L 245.79,613.64 L 245.98,614.53 L 246.34,615.21 L 247.16,615.29" fill="none" stroke="#111" stroke-linecap="round" stroke-linejoin="round" stroke-width="2.2" /><path d="M 247.16,615.29 L 247.95,615.38 L 248.54,615.75 L 248.66,616.73 L 249.06,617.35 L 250.10,617.11 L 250.43,617.82 L 250.68,618.63 L 251.57,618.60 L 252.41,618.63 L 252.68,619.42 L 253.21,619.86" fill="none" stroke="#111" stroke-linecap="round" stroke-linejoin="round" stroke-width="2.2" /><path d="M 253.21,619.86 L 253.56,620.53 L 254.62,620.25 L 254.76,621.20 L 255.11,621.88 L 256.29,621.42 L 256.20,622.69 L 256.82,623.00 L 257.92,622.65 L 258.45,623.08 L 258.89,623.63 L 259.27,624.27" fill="none" stroke="#111" stroke-linecap="round" stroke-linejoin="round" stroke-width="2.2" /><path d="M 259.27,624.27 L 260.05,624.33 L 260.23,625.24 L 260.90,625.46 L 261.48,625.80 L 261.99,626.25 L 262.72,626.37 L 263.07,627.05 L 264.01,626.88 L 264.44,627.44 L 264.49,628.54 L 265.32,628.53" fill="none" stroke="#111" stroke-linecap="round" stroke-linejoin="round" stroke-width="2.2" /><path d="M 265.32,628.53 L 265.70,629.16 L 266.65,628.94 L 267.13,629.42 L 267.46,630.12 L 268.23,630.17 L 268.65,630.73 L 269.39,630.82 L 269.85,631.33 L 270.15,632.06 L 270.69,632.46 L 271.38,632.63" fill="none" stroke="#111" stroke-linecap="round" stroke-linejoin="round" stroke-width="2.2" /><path d="M 271.38,632.63 L 271.78,633.21 L 272.52,633.29 L 272.83,634.02 L 273.28,634.53 L 273.82,634.90 L 274.37,635.26 L 275.19,635.20 L 275.67,635.67 L 276.16,636.11 L 277.09,635.89 L 277.43,636.58" fill="none" stroke="#111" stroke-linecap="round" stroke-linejoin="round" stroke-width="2.2" /><path d="M 277.43,636.58 L 277.82,637.18 L 278.60,637.16 L 279.09,637.59 L 279.50,638.17 L 280.48,637.83 L 280.52,638.99 L 281.55,638.56 L 281.53,639.81 L 282.10,640.14 L 283.04,639.86 L 283.49,640.37" fill="none" stroke="#111" stroke-linecap="round" stroke-linejoin="round" stroke-width="2.2" /><path d="M 283.49,640.37 L 284.13,640.55 L 284.80,640.67 L 284.85,641.83 L 285.49,642.02 L 286.01,642.40 L 286.52,642.79 L 287.07,643.14 L 287.63,643.43 L 288.74,642.85 L 289.20,643.32 L 289.54,644.00" fill="none" stroke="#111" stroke-linecap="round" stroke-linejoin="round" stroke-width="2.2" /><path d="M 289.54,644.00 L 290.10,644.30 L 290.89,644.20 L 290.95,645.38 L 291.60,645.52 L 292.32,645.53 L 292.71,646.13 L 293.52,645.99 L 293.91,646.59 L 294.50,646.84 L 295.19,646.91 L 295.60,647.48" fill="none" stroke="#111" stroke-linecap="round" stroke-linejoin="round" stroke-width="2.2" /><path d="M 295.60,647.48 L 296.02,648.02 L 296.95,647.62 L 297.29,648.31 L 297.56,649.12 L 298.34,649.01 L 299.07,648.99 L 299.70,649.14 L 299.81,650.25 L 300.46,650.36 L 301.34,650.06 L 301.65,650.80" fill="none" stroke="#111" stroke-linecap="round" stroke-linejoin="round" stroke-width="2.2" /><path d="M 301.65,650.80 L 302.28,650.95 L 302.92,651.07 L 303.15,651.95 L 303.58,652.47 L 304.27,652.50 L 304.87,652.69 L 305.28,653.26 L 305.93,653.35 L 306.71,653.20 L 307.00,653.99 L 307.71,653.97" fill="none" stroke="#111" stroke-linecap="round" stroke-linejoin="round" stroke-width="2.2" /><path d="M 307.71,653.97 L 308.10,654.56 L 308.96,654.21 L 309.58,654.34 L 309.96,654.96 L 310.67,654.92 L 311.13,655.36 L 311.80,655.41 L 311.91,656.56 L 312.65,656.46 L 313.16,656.81 L 313.76,656.98" fill="none" stroke="#111" stroke-linecap="round" stroke-linejoin="round" stroke-width="2.2" /><path d="M 313.76,656.98 L 314.39,657.09 L 314.73,657.78 L 315.47,657.65 L 315.80,658.37 L 316.26,658.81 L 316.96,658.76 L 317.38,659.29 L 318.42,658.53 L 318.53,659.71 L 319.15,659.83 L 319.82,659.84" fill="none" stroke="#111" stroke-linecap="round" stroke-linejoin="round" stroke-width="2.2" /><path d="M 319.82,659.84 L 320.37,660.09 L 320.88,660.42 L 321.30,660.95 L 322.23,660.36 L 322.67,660.85 L 323.15,661.25 L 323.55,661.83 L 324.10,662.08 L 324.57,662.51 L 325.19,662.58 L 325.87,662.54" fill="none" stroke="#111" stroke-linecap="round" stroke-linejoin="round" stroke-width="2.2" /><path d="M 325.87,662.54 L 326.23,663.23 L 326.95,663.06 L 327.45,663.41 L 327.99,663.66 L 328.40,664.23 L 329.14,664.02 L 329.54,664.59 L 330.47,663.93 L 330.63,665.09 L 331.57,664.40 L 331.93,665.09" fill="none" stroke="#111" stroke-linecap="round" stroke-linejoin="round" stroke-width="2.2" /><path d="M 331.93,665.09 L 332.49,665.28 L 333.01,665.56 L 333.66,665.52 L 334.24,665.67 L 334.48,666.67 L 335.39,665.99 L 335.95,666.19 L 336.17,667.22 L 337.01,666.73 L 337.26,667.69 L 337.98,667.48" fill="none" stroke="#111" stroke-linecap="round" stroke-linejoin="round" stroke-width="2.2" /><path d="M 337.98,667.48 L 338.70,667.23 L 339.27,667.39 L 339.45,668.58 L 340.36,667.81 L 340.85,668.17 L 341.43,668.31 L 341.87,668.80 L 342.24,669.49 L 342.76,669.78 L 343.36,669.85 L 344.04,669.71" fill="none" stroke="#111" stroke-linecap="round" stroke-linejoin="round" stroke-width="2.2" /><path d="M 344.04,669.71 L 344.45,670.31 L 345.05,670.35 L 345.55,670.69 L 346.17,670.68 L 346.91,670.30 L 347.30,670.96 L 347.84,671.19 L 348.29,671.67 L 349.17,670.89 L 349.65,671.27 L 350.09,671.79" fill="none" stroke="#111" stroke-linecap="round" stroke-linejoin="round" stroke-width="2.2" /><path d="M 350.09,671.79 L 350.60,672.09 L 351.11,672.40 L 351.91,671.79 L 352.13,672.99 L 352.68,673.19 L 353.54,672.38 L 354.12,672.47 L 354.33,673.71 L 355.18,672.94 L 355.73,673.12 L 356.15,673.72" fill="none" stroke="#111" stroke-linecap="round" stroke-linejoin="round" stroke-width="2.2" /><path d="M 356.15,673.72 L 356.58,674.27 L 357.17,674.30 L 357.87,673.95 L 358.32,674.47 L 358.82,674.81 L 359.59,674.20 L 359.85,675.34 L 360.44,675.37 L 361.23,674.72 L 361.72,675.08 L 362.20,675.48" fill="none" stroke="#111" stroke-linecap="round" stroke-linejoin="round" stroke-width="2.2" /><path d="M 362.20,675.48 L 362.66,675.97 L 363.17,676.27 L 363.79,676.17 L 364.30,676.45 L 364.99,676.07 L 365.62,675.94 L 366.18,676.05 L 366.72,676.24 L 367.02,677.33 L 367.77,676.69 L 368.26,677.10" fill="none" stroke="#111" stroke-linecap="round" stroke-linejoin="round" stroke-width="2.2" /><path d="M 368.26,677.10 L 368.92,676.75 L 369.47,676.90 L 369.98,677.20 L 370.56,677.21 L 370.99,677.86 L 371.65,677.50 L 372.08,678.15 L 372.60,678.41 L 373.15,678.56 L 373.74,678.52 L 374.31,678.55" fill="none" stroke="#111" stroke-linecap="round" stroke-linejoin="round" stroke-width="2.2" /><path d="M 374.31,678.55 L 374.81,678.92 L 375.36,679.05 L 376.02,678.65 L 376.41,679.50 L 376.95,679.68 L 377.73,678.72 L 378.22,679.13 L 378.72,679.48 L 379.37,679.12 L 379.81,679.76 L 380.37,679.85" fill="none" stroke="#111" stroke-linecap="round" stroke-linejoin="round" stroke-width="2.2" /><path d="M 380.37,679.85 L 380.97,679.67 L 381.44,680.21 L 382.10,679.75 L 382.47,680.78 L 383.09,680.55 L 383.74,680.10 L 384.15,680.93 L 384.85,680.29 L 385.23,681.25 L 385.90,680.75 L 386.42,681.00" fill="none" stroke="#111" stroke-linecap="round" stroke-linejoin="round" stroke-width="2.2" /><path d="M 386.42,681.00 L 386.97,681.12 L 387.56,680.95 L 388.01,681.68 L 388.62,681.39 L 389.18,681.44 L 389.79,681.14 L 390.32,681.34 L 390.82,681.74 L 391.35,681.96 L 391.87,682.26 L 392.48,681.99" fill="none" stroke="#111" stroke-linecap="round" stroke-linejoin="round" stroke-width="2.2" /><path d="M 392.48,681.99 L 393.04,681.95 L 393.56,682.27 L 394.18,681.87 L 394.74,681.84 L 395.17,682.80 L 395.85,681.91 L 396.28,682.86 L 396.96,682.04 L 397.44,682.62 L 397.98,682.75 L 398.53,682.82" fill="none" stroke="#111" stroke-linecap="round" stroke-linejoin="round" stroke-width="2.2" /><path d="M 398.53,682.82 L 399.06,683.07 L 399.69,682.41 L 400.23,682.57 L 400.79,682.53 L 401.33,682.70 L 401.90,682.63 L 402.33,683.79 L 402.89,683.68 L 403.51,683.14 L 404.05,683.29 L 404.59,683.50" fill="none" stroke="#111" stroke-linecap="round" stroke-linejoin="round" stroke-width="2.2" /><path d="M 404.59,683.50 L 405.17,683.12 L 405.65,684.01 L 406.23,683.77 L 406.84,683.16 L 407.31,684.13 L 407.85,684.28 L 408.40,684.28 L 409.01,683.68 L 409.56,683.71 L 410.11,683.75 L 410.64,684.03" fill="none" stroke="#111" stroke-linecap="round" stroke-linejoin="round" stroke-width="2.2" /><path d="M 410.64,684.03 L 411.18,684.25 L 411.76,683.75 L 412.30,683.94 L 412.88,683.65 L 413.39,684.26 L 413.98,683.71 L 414.49,684.31 L 415.08,683.80 L 415.62,683.91 L 416.13,684.61 L 416.70,684.40" fill="none" stroke="#111" stroke-linecap="round" stroke-linejoin="round" stroke-width="2.2" /><path d="M 416.70,684.40 L 417.24,684.51 L 417.81,683.97 L 418.36,684.00 L 418.92,683.92 L 419.46,684.28 L 419.98,685.01 L 420.56,684.36 L 421.12,684.09 L 421.63,685.06 L 422.20,684.63 L 422.75,684.61" fill="none" stroke="#111" stroke-linecap="round" stroke-linejoin="round" stroke-width="2.2" /><path d="M 422.75,684.61 L 423.31,684.23 L 423.85,685.04 L 424.40,684.82 L 424.95,684.86 L 425.51,684.19 L 426.06,684.17 L 426.60,685.11 L 427.16,684.27 L 427.71,684.10 L 428.26,684.61 L 428.81,684.67" fill="none" stroke="#111" stroke-linecap="round" stroke-linejoin="round" stroke-width="2.2" /><path d="M 428.81,684.67 L 429.37,685.10 L 429.92,685.13 L 430.45,684.08 L 431.01,684.76 L 431.57,685.07 L 432.10,684.08 L 432.65,684.08 L 433.22,685.13 L 433.76,684.42 L 434.32,685.07 L 434.86,684.57" fill="none" stroke="#111" stroke-linecap="round" stroke-linejoin="round" stroke-width="2.2" /><path d="M 434.86,684.57 L 435.41,684.48 L 435.97,684.65 L 436.50,684.12 L 437.04,683.95 L 437.63,684.77 L 438.17,684.63 L 438.72,684.48 L 439.29,684.89 L 439.84,684.87 L 440.35,683.84 L 440.92,684.31" fill="none" stroke="#111" stroke-linecap="round" stroke-linejoin="round" stroke-width="2.2" /><path d="M 440.92,684.31 L 441.47,684.26 L 442.05,684.74 L 442.59,684.54 L 443.09,683.80 L 443.65,683.86 L 444.21,683.88 L 444.75,683.81 L 445.36,684.59 L 445.89,684.23 L 446.39,683.48 L 446.97,683.90" fill="none" stroke="#111" stroke-linecap="round" stroke-linejoin="round" stroke-width="2.2" /><path d="M 446.97,683.90 L 447.57,684.32 L 448.03,683.29 L 448.65,684.00 L 449.15,683.41 L 449.73,683.67 L 450.31,684.01 L 450.81,683.41 L 451.35,683.24 L 451.87,682.85 L 452.48,683.39 L 453.03,683.34" fill="none" stroke="#111" stroke-linecap="round" stroke-linejoin="round" stroke-width="2.2" /><path d="M 453.03,683.34 L 453.60,683.44 L 454.13,683.22 L 454.69,683.22 L 455.26,683.31 L 455.83,683.47 L 456.29,682.65 L 456.83,682.46 L 457.37,682.30 L 458.02,683.08 L 458.53,682.70 L 459.08,682.62" fill="none" stroke="#111" stroke-linecap="round" stroke-linejoin="round" stroke-width="2.2" /><path d="M 459.08,682.62 L 459.56,682.07 L 460.10,681.90 L 460.77,682.60 L 461.37,682.89 L 461.91,682.73 L 462.43,682.43 L 462.86,681.55 L 463.55,682.39 L 463.99,681.61 L 464.55,681.57 L 465.14,681.74" fill="none" stroke="#111" stroke-linecap="round" stroke-linejoin="round" stroke-width="2.2" /><path d="M 465.14,681.74 L 465.61,681.18 L 466.31,681.97 L 466.88,682.00 L 467.25,680.87 L 467.81,680.78 L 468.52,681.67 L 469.00,681.11 L 469.59,681.25 L 470.01,680.42 L 470.65,680.83 L 471.19,680.71" fill="none" stroke="#111" stroke-linecap="round" stroke-linejoin="round" stroke-width="2.2" /><path d="M 471.19,680.71 L 471.65,680.15 L 472.19,679.96 L 472.95,680.92 L 473.46,680.63 L 473.84,679.63 L 474.42,679.66 L 475.00,679.70 L 475.50,679.36 L 476.05,679.23 L 476.79,680.12 L 477.25,679.52" fill="none" stroke="#111" stroke-linecap="round" stroke-linejoin="round" stroke-width="2.2" /><path d="M 477.25,679.52 L 477.90,679.86 L 478.30,679.04 L 478.79,678.65 L 479.56,679.51 L 480.08,679.25 L 480.64,679.20 L 481.15,678.90 L 481.77,679.07 L 482.30,678.88 L 482.73,678.18 L 483.30,678.18" fill="none" stroke="#111" stroke-linecap="round" stroke-linejoin="round" stroke-width="2.2" /><path d="M 483.30,678.18 L 483.93,678.35 L 484.31,677.51 L 485.07,678.24 L 485.41,677.27 L 486.19,678.06 L 486.73,677.87 L 487.22,677.48 L 487.62,676.75 L 488.13,676.42 L 488.84,676.96 L 489.36,676.68" fill="none" stroke="#111" stroke-linecap="round" stroke-linejoin="round" stroke-width="2.2" /><path d="M 489.36,676.68 L 489.81,676.16 L 490.46,676.39 L 490.89,675.81 L 491.58,676.16 L 492.07,675.78 L 492.53,675.30 L 493.07,675.10 L 493.79,675.57 L 494.30,675.28 L 494.93,675.43 L 495.41,675.03" fill="none" stroke="#111" stroke-linecap="round" stroke-linejoin="round" stroke-width="2.2" /><path d="M 495.41,675.03 L 496.10,675.31 L 496.41,674.34 L 497.18,674.92 L 497.65,674.48 L 498.32,674.73 L 498.57,673.55 L 499.13,673.41 L 499.65,673.15 L 500.21,673.02 L 500.95,673.51 L 501.47,673.22" fill="none" stroke="#111" stroke-linecap="round" stroke-linejoin="round" stroke-width="2.2" /><path d="M 501.47,673.22 L 502.11,673.34 L 502.70,673.27 L 503.06,672.51 L 503.83,673.01 L 504.10,671.95 L 504.84,672.36 L 505.16,671.46 L 505.93,671.98 L 506.43,671.62 L 507.09,671.79 L 507.52,671.25" fill="none" stroke="#111" stroke-linecap="round" stroke-linejoin="round" stroke-width="2.2" /><path d="M 507.52,671.25 L 508.15,671.28 L 508.65,670.93 L 509.05,670.31 L 509.58,670.07 L 510.37,670.56 L 510.83,670.10 L 511.52,670.32 L 511.79,669.32 L 512.46,669.47 L 512.98,669.18 L 513.58,669.13" fill="none" stroke="#111" stroke-linecap="round" stroke-linejoin="round" stroke-width="2.2" /><path d="M 513.58,669.13 L 514.15,668.97 L 514.52,668.30 L 515.29,668.67 L 515.92,668.68 L 516.14,667.59 L 517.07,668.41 L 517.33,667.43 L 518.11,667.82 L 518.48,667.13 L 519.25,667.51 L 519.63,666.86" fill="none" stroke="#111" stroke-linecap="round" stroke-linejoin="round" stroke-width="2.2" /><path d="M 519.63,666.86 L 520.03,666.25 L 520.77,666.50 L 521.07,665.67 L 521.65,665.51 L 522.32,665.59 L 522.74,665.04 L 523.32,664.89 L 523.87,664.67 L 524.43,664.48 L 525.06,664.46 L 525.69,664.42" fill="none" stroke="#111" stroke-linecap="round" stroke-linejoin="round" stroke-width="2.2" /><path d="M 525.69,664.42 L 526.09,663.83 L 526.60,663.50 L 527.19,663.38 L 527.83,663.34 L 528.62,663.66 L 529.02,663.08 L 529.49,662.65 L 530.27,662.97 L 530.51,662.00 L 531.34,662.41 L 531.74,661.84" fill="none" stroke="#111" stroke-linecap="round" stroke-linejoin="round" stroke-width="2.2" /><path d="M 531.74,661.84 L 532.28,661.55 L 532.78,661.20 L 533.55,661.43 L 533.78,660.48 L 534.73,661.12 L 535.16,660.60 L 535.59,660.07 L 536.30,660.17 L 536.92,660.09 L 537.04,658.88 L 537.80,659.09" fill="none" stroke="#111" stroke-linecap="round" stroke-linejoin="round" stroke-width="2.2" /><path d="M 537.80,659.09 L 538.14,658.39 L 539.12,659.03 L 539.21,657.80 L 539.77,657.56 L 540.43,657.53 L 541.26,657.86 L 541.71,657.37 L 541.96,656.48 L 542.98,657.20 L 543.43,656.72 L 543.85,656.20" fill="none" stroke="#111" stroke-linecap="round" stroke-linejoin="round" stroke-width="2.2" /><path d="M 543.85,656.20 L 544.22,655.56 L 545.21,656.15 L 545.67,655.70 L 545.96,654.89 L 546.41,654.42 L 547.12,654.46 L 547.60,654.04 L 548.38,654.23 L 548.92,653.93 L 549.19,653.08 L 549.91,653.14" fill="none" stroke="#111" stroke-linecap="round" stroke-linejoin="round" stroke-width="2.2" /><path d="M 549.91,653.14 L 550.69,653.28 L 550.88,652.31 L 551.66,652.46 L 552.35,652.43 L 552.93,652.19 L 553.35,651.66 L 553.76,651.10 L 554.28,650.76 L 555.05,650.86 L 555.19,649.80 L 555.96,649.93" fill="none" stroke="#111" stroke-linecap="round" stroke-linejoin="round" stroke-width="2.2" /><path d="M 555.96,649.93 L 556.62,649.82 L 557.32,649.78 L 557.87,649.48 L 558.14,648.67 L 558.90,648.73 L 559.05,647.70 L 560.01,648.14 L 560.63,647.96 L 560.72,646.83 L 561.72,647.33 L 562.02,646.57" fill="none" stroke="#111" stroke-linecap="round" stroke-linejoin="round" stroke-width="2.2" /><path d="M 562.02,646.57 L 562.47,646.08 L 563.33,646.28 L 563.63,645.54 L 564.39,645.59 L 564.99,645.34 L 565.27,644.56 L 566.13,644.77 L 566.35,643.88 L 566.94,643.63 L 567.42,643.19 L 568.07,643.05" fill="none" stroke="#111" stroke-linecap="round" stroke-linejoin="round" stroke-width="2.2" /><path d="M 568.07,643.05 L 568.37,642.30 L 569.42,642.78 L 569.86,642.27 L 570.08,641.39 L 570.54,640.91 L 571.08,640.56 L 571.93,640.71 L 572.74,640.81 L 573.28,640.45 L 573.84,640.14 L 574.13,639.37" fill="none" stroke="#111" stroke-linecap="round" stroke-linejoin="round" stroke-width="2.2" /><path d="M 574.13,639.37 L 574.93,639.42 L 575.54,639.16 L 576.01,638.69 L 576.58,638.38 L 577.20,638.14 L 577.47,637.34 L 578.02,637.00 L 578.69,636.83 L 578.98,636.07 L 579.63,635.88 L 580.18,635.54" fill="none" stroke="#111" stroke-linecap="round" stroke-linejoin="round" stroke-width="2.2" /><path d="M 580.18,635.54 L 580.53,634.87 L 581.55,635.21 L 581.98,634.67 L 582.61,634.44 L 583.19,634.11 L 583.43,633.28 L 584.27,633.35 L 584.86,633.06 L 585.00,632.07 L 585.89,632.22 L 586.24,631.55" fill="none" stroke="#111" stroke-linecap="round" stroke-linejoin="round" stroke-width="2.2" /><path d="M 586.24,631.55 L 587.06,631.58 L 587.25,630.67 L 588.05,630.66 L 588.72,630.46 L 588.68,629.22 L 589.53,629.28 L 590.26,629.16 L 590.70,628.62 L 591.50,628.62 L 591.51,627.44 L 592.29,627.41" fill="none" stroke="#111" stroke-linecap="round" stroke-linejoin="round" stroke-width="2.2" /><path d="M 592.29,627.41 L 592.58,626.65 L 593.20,626.36 L 593.93,626.22 L 594.49,625.84 L 595.22,625.70 L 595.28,624.62 L 596.37,624.99 L 596.96,624.65 L 597.50,624.24 L 597.69,623.35 L 598.35,623.11" fill="none" stroke="#111" stroke-linecap="round" stroke-linejoin="round" stroke-width="2.2" /><path d="M 598.35,623.11 L 599.11,623.00 L 599.74,622.70 L 600.22,622.19 L 600.67,621.65 L 600.87,620.78 L 601.91,621.03 L 601.88,619.84 L 602.86,620.03 L 603.06,619.14 L 604.01,619.28 L 604.40,618.66" fill="none" stroke="#111" stroke-linecap="round" stroke-linejoin="round" stroke-width="2.2" /><path d="M 604.40,618.66 L 605.20,618.56 L 605.84,618.26 L 605.82,617.10 L 606.80,617.24 L 606.89,616.21 L 607.55,615.94 L 608.55,616.11 L 608.46,614.85 L 609.10,614.55 L 609.76,614.27 L 610.46,614.05" fill="none" stroke="#111" stroke-linecap="round" stroke-linejoin="round" stroke-width="2.2" /><path d="M 610.46,614.05 L 610.69,613.22 L 611.78,613.47 L 612.19,612.85 L 612.84,612.55 L 613.02,611.65 L 613.41,611.01 L 614.11,610.76 L 614.77,610.47 L 615.69,610.50 L 615.76,609.46 L 616.51,609.28" fill="none" stroke="#111" stroke-linecap="round" stroke-linejoin="round" stroke-width="2.2" /><path d="M 616.51,609.28 L 617.01,608.78 L 617.68,608.47 L 618.51,608.36 L 618.73,607.51 L 618.98,606.69 L 620.10,606.95 L 620.13,605.86 L 620.60,605.32 L 621.48,605.27 L 621.75,604.48 L 622.57,604.36" fill="none" stroke="#111" stroke-linecap="round" stroke-linejoin="round" stroke-width="2.2" /><path d="M 622.57,604.36 L 623.06,603.83 L 623.60,603.35 L 624.22,602.98 L 625.12,602.93 L 625.31,602.05 L 626.11,601.88 L 626.11,600.76 L 626.68,600.32 L 627.31,599.96 L 628.06,599.73 L 628.62,599.29" fill="none" stroke="#111" stroke-linecap="round" stroke-linejoin="round" stroke-width="2.2" /><path d="M 628.62,599.29 L 628.84,598.43 L 629.68,598.29 L 630.07,597.63 L 630.69,597.23 L 631.23,596.75 L 631.75,596.23 L 632.30,595.75 L 632.93,595.37 L 633.55,594.97 L 633.82,594.17 L 634.68,594.06" fill="none" stroke="#111" stroke-linecap="round" stroke-linejoin="round" stroke-width="2.2" /><path d="M 634.68,594.06 L 634.91,593.21 L 636.14,593.49 L 636.66,592.96 L 637.20,592.46 L 637.78,592.00 L 637.74,590.84 L 638.48,590.57 L 639.26,590.34 L 639.31,589.29 L 640.50,589.52 L 640.73,588.67" fill="none" stroke="#111" stroke-linecap="round" stroke-linejoin="round" stroke-width="2.2" /><path d="M 640.73,588.67 L 640.94,587.79 L 642.17,588.03 L 642.63,587.43 L 642.78,586.49 L 643.18,585.82 L 643.85,585.45 L 644.63,585.19 L 645.52,585.05 L 646.03,584.50 L 646.32,583.71 L 646.79,583.13" fill="none" stroke="#111" stroke-linecap="round" stroke-linejoin="round" stroke-width="2.2" /><path d="M 646.79,583.13 L 647.02,582.27 L 647.63,581.82 L 648.80,581.95 L 649.38,581.47 L 649.71,580.72 L 650.31,580.25 L 650.26,579.10 L 651.56,579.37 L 652.07,578.81 L 652.02,577.65 L 652.84,577.43" fill="none" stroke="#111" stroke-linecap="round" stroke-linejoin="round" stroke-width="2.2" /><path d="M 652.84,577.43 L 653.34,576.84 L 654.10,576.53 L 654.36,575.69 L 654.70,574.94 L 655.41,574.58 L 655.79,573.86 L 656.68,573.68 L 657.34,573.26 L 657.65,572.48 L 658.55,572.31 L 658.90,571.58" fill="none" stroke="#111" stroke-linecap="round" stroke-linejoin="round" stroke-width="2.2" /><path d="M 658.90,571.58 L 659.11,570.69 L 659.81,570.29 L 660.24,569.62 L 660.76,569.04 L 661.43,568.62 L 661.88,567.98 L 662.60,567.60 L 663.52,567.43 L 664.14,566.95 L 664.37,566.08 L 664.95,565.57" fill="none" stroke="#111" stroke-linecap="round" stroke-linejoin="round" stroke-width="2.2" /><path d="M 664.95,565.57 L 665.66,565.16 L 666.07,564.46 L 666.21,563.50 L 667.15,563.32 L 668.11,563.16 L 668.37,562.31 L 668.81,561.64 L 669.07,560.80 L 669.61,560.23 L 670.33,559.83 L 671.01,559.40" fill="none" stroke="#111" stroke-linecap="round" stroke-linejoin="round" stroke-width="2.2" /><path d="M 671.01,559.40 L 671.34,558.62 L 671.75,557.91 L 672.60,557.62 L 673.04,556.94 L 674.13,556.88 L 674.70,556.32 L 674.73,555.25 L 675.44,554.83 L 676.33,554.58 L 676.26,553.41 L 677.06,553.08" fill="none" stroke="#111" stroke-linecap="round" stroke-linejoin="round" stroke-width="2.2" /><path d="M 677.06,553.08 L 677.24,552.14 L 678.45,552.17 L 679.10,551.67 L 678.95,550.43 L 679.65,549.98 L 679.99,549.20 L 680.99,549.03 L 681.29,548.20 L 682.39,548.13 L 682.46,547.09 L 683.12,546.61" fill="none" stroke="#111" stroke-linecap="round" stroke-linejoin="round" stroke-width="2.2" /><path d="M 683.12,546.61 L 683.32,545.68 L 684.09,545.28 L 684.59,544.63 L 685.32,544.19 L 685.77,543.50 L 686.13,542.72 L 686.76,542.19 L 687.86,542.09 L 687.75,540.88 L 688.90,540.83 L 689.17,539.97" fill="none" stroke="#111" stroke-linecap="round" stroke-linejoin="round" stroke-width="2.2" /><path d="M 689.17,539.97 L 690.08,539.68 L 689.83,538.34 L 690.85,538.14 L 691.45,537.58 L 692.14,537.08 L 692.62,536.40 L 693.34,535.93 L 694.00,535.41 L 693.74,534.08 L 694.83,533.94 L 695.23,533.19" fill="none" stroke="#111" stroke-linecap="round" stroke-linejoin="round" stroke-width="2.2" /><path d="M 695.23,533.19 L 695.94,532.70 L 695.99,531.63 L 697.21,531.58 L 697.51,530.74 L 698.42,530.41 L 698.48,529.36 L 699.04,528.74 L 699.67,528.17 L 700.32,527.62 L 700.47,526.64 L 701.28,526.25" fill="none" stroke="#111" stroke-linecap="round" stroke-linejoin="round" stroke-width="2.2" /><path d="M 701.28,526.25 L 701.75,525.53 L 702.66,525.19 L 702.49,523.93 L 703.11,523.34 L 703.65,522.69 L 704.22,522.06 L 704.79,521.43 L 705.28,520.73 L 706.42,520.60 L 706.78,519.78 L 707.34,519.15" fill="none" stroke="#111" stroke-linecap="round" stroke-linejoin="round" stroke-width="2.2" /><path d="M 707.34,519.15 L 708.03,518.60 L 708.26,517.68 L 709.08,517.25 L 709.41,516.40 L 709.94,515.73 L 710.71,515.24 L 711.23,514.56 L 712.17,514.22 L 712.27,513.19 L 712.84,512.55 L 713.39,511.89" fill="none" stroke="#111" stroke-linecap="round" stroke-linejoin="round" stroke-width="2.2" /><path d="M 713.39,511.89 L 714.16,511.40 L 714.50,510.55 L 714.93,509.78 L 715.38,509.02 L 715.95,508.36 L 716.93,508.04 L 717.43,507.33 L 718.22,506.85 L 717.94,505.50 L 719.32,505.50 L 719.45,504.48" fill="none" stroke="#111" stroke-linecap="round" stroke-linejoin="round" stroke-width="2.2" /><path d="M 719.45,504.48 L 719.68,503.54 L 720.40,502.99 L 721.53,502.76 L 721.75,501.81 L 722.04,500.92 L 722.62,500.25 L 723.16,499.56 L 723.93,499.04 L 724.18,498.12 L 725.26,497.86 L 725.50,496.92" fill="none" stroke="#111" stroke-linecap="round" stroke-linejoin="round" stroke-width="2.2" /><path d="M 725.50,496.92 L 726.10,496.25 L 727.07,495.88 L 726.91,494.62 L 727.55,493.99 L 728.67,493.74 L 728.44,492.42 L 729.08,491.79 L 730.08,491.44 L 730.09,490.32 L 730.70,489.66 L 731.56,489.20" fill="none" stroke="#111" stroke-linecap="round" stroke-linejoin="round" stroke-width="2.2" /><path d="M 731.56,489.20 L 732.45,488.75 L 732.44,487.60 L 733.65,487.39 L 734.09,486.59 L 734.68,485.90 L 734.89,484.93 L 735.83,484.51 L 735.53,483.14 L 736.88,483.04 L 737.06,482.04 L 737.61,481.32" fill="none" stroke="#111" stroke-linecap="round" stroke-linejoin="round" stroke-width="2.2" /><path d="M 737.61,481.32 L 737.78,480.30 L 738.33,479.57 L 739.05,478.97 L 739.52,478.18 L 740.68,477.91 L 740.57,476.68 L 741.10,475.93 L 741.54,475.12 L 742.61,474.79 L 742.90,473.86 L 743.67,473.29" fill="none" stroke="#111" stroke-linecap="round" stroke-linejoin="round" stroke-width="2.2" /><path d="M 743.67,473.29 L 743.96,472.36 L 744.57,471.66 L 744.88,470.73 L 745.83,470.29 L 746.41,469.57 L 746.76,468.67 L 747.60,468.14 L 748.32,467.52 L 748.39,466.42 L 749.56,466.13 L 749.72,465.11" fill="none" stroke="#111" stroke-linecap="round" stroke-linejoin="round" stroke-width="2.2" /><path d="M 749.72,465.11 L 750.66,464.63 L 751.22,463.87 L 750.90,462.48 L 751.93,462.08 L 752.18,461.10 L 752.70,460.32 L 753.91,460.04 L 753.74,458.76 L 754.53,458.17 L 754.81,457.22 L 755.78,456.76" fill="none" stroke="#111" stroke-linecap="round" stroke-linejoin="round" stroke-width="2.2" /><path d="M 755.78,456.76 L 756.69,456.25 L 756.49,454.94 L 757.49,454.49 L 758.28,453.88 L 758.08,452.58 L 758.65,451.82 L 759.45,451.23 L 759.73,450.26 L 760.43,449.59 L 761.71,449.35 L 761.83,448.27" fill="none" stroke="#111" stroke-linecap="round" stroke-linejoin="round" stroke-width="2.2" /><path d="M 761.83,448.27 L 762.39,447.48 L 762.67,446.51 L 763.87,446.18 L 764.12,445.18 L 764.41,444.21 L 764.69,443.23 L 765.32,442.50 L 766.65,442.26 L 766.48,440.97 L 766.96,440.13 L 767.89,439.61" fill="none" stroke="#111" stroke-linecap="round" stroke-linejoin="round" stroke-width="2.2" /><path d="M 767.89,439.61 L 768.84,439.09 L 768.58,437.73 L 769.63,437.27 L 770.24,436.51 L 770.49,435.50 L 770.74,434.50 L 771.38,433.76 L 772.03,433.02 L 773.00,432.51 L 773.40,431.61 L 773.94,430.80" fill="none" stroke="#111" stroke-linecap="round" stroke-linejoin="round" stroke-width="2.2" /><path d="M 773.94,430.80 L 774.86,430.24 L 775.37,429.39 L 775.35,428.19 L 776.62,427.86 L 776.38,426.51 L 777.72,426.24 L 778.21,425.38 L 778.16,424.16 L 778.64,423.29 L 779.89,422.95 L 780.00,421.84" fill="none" stroke="#111" stroke-linecap="round" stroke-linejoin="round" stroke-width="2.2" /><path d="M 604.00,618.96 L 604.04,622.25 L 604.12,625.53 L 603.84,628.82 L 604.29,632.11 L 603.67,635.39 L 603.64,638.68 L 604.29,641.97 L 604.16,645.25 L 603.65,648.54 L 604.35,651.83 L 604.25,655.11 L 604.00,658.40 L 603.81,661.68 L 604.35,664.97 L 604.33,668.26 L 604.07,671.54 L 603.66,674.83 L 603.68,678.12 L 604.36,681.40 L 603.71,684.69 L 604.29,687.98 L 604.22,691.26 L 604.11,694.55 L 604.28,697.84 L 603.79,701.12 L 603.81,704.41 L 604.34,707.70 L 604.12,710.98 L 603.77,714.27 L 604.35,717.56 L 603.63,720.84 L 603.77,724.13 L 603.89,727.42 L 603.79,730.70 L 603.72,733.99 L 603.89,737.28 L 603.92,740.56 L 604.18,743.85 L 603.91,747.13 L 604.03,750.42 L 603.93,753.71 L 603.66,756.99 L 604.37,760.28 L 604.13,763.57 L 604.24,766.85 L 604.06,770.14 L 604.13,773.43 L 604.04,776.71 L 604.00,780.00" fill="none" stroke="#111" stroke-dasharray="9.6 13.0" stroke-dashoffset="0.5" stroke-linecap="round" stroke-linejoin="round" stroke-width="2.0" /><path d="M 604.00,618.96 L 594.12,618.90 L 584.24,618.85 L 574.37,619.17 L 564.49,619.21 L 554.61,619.21 L 544.73,618.92 L 534.86,618.96 L 524.98,618.73 L 515.10,618.89 L 505.22,618.73 L 495.35,619.27 L 485.47,618.98 L 475.59,618.64 L 465.71,618.63 L 455.84,618.62 L 445.96,619.02 L 436.08,619.25 L 426.20,618.93 L 416.33,619.31 L 406.45,619.31 L 396.57,618.89 L 386.69,619.27 L 376.82,619.29 L 366.94,618.82 L 357.06,618.69 L 347.18,618.69 L 337.31,618.76 L 327.43,618.82 L 317.55,618.68 L 307.67,618.62 L 297.80,618.65 L 287.92,619.05 L 278.04,619.11 L 268.16,619.00 L 258.29,619.33 L 248.41,618.64 L 238.53,619.00 L 228.65,618.78 L 218.78,618.64 L 208.90,619.34 L 199.02,618.60 L 189.14,618.99 L 179.27,618.61 L 169.39,618.81 L 159.51,618.71 L 149.63,619.12 L 139.76,618.87 L 129.88,618.93 L 120.00,618.96" fill="none" stroke="#111" stroke-dasharray="8.2 12.9" stroke-dashoffset="0.3" stroke-linecap="round" stroke-linejoin="round" stroke-width="2.0" /><path d="M 599.00,618.96 L 599.67,618.79 L 600.33,619.03 L 601.00,619.25 L 601.67,618.70 L 602.33,618.84 L 603.00,619.31 L 603.67,618.62 L 604.33,619.06 L 605.00,618.79 L 605.67,618.85 L 606.33,618.63 L 607.00,619.29 L 607.67,618.65 L 608.33,618.91 L 609.00,618.96" fill="none" stroke="#111" stroke-linecap="round" stroke-linejoin="round" stroke-width="2.0" /><path d="M 604.00,613.96 L 604.05,614.63 L 604.05,615.29 L 603.76,615.96 L 603.93,616.63 L 604.36,617.29 L 603.65,617.96 L 603.75,618.63 L 603.88,619.29 L 604.30,619.96 L 604.03,620.63 L 604.26,621.29 L 604.37,621.96 L 603.70,622.63 L 603.77,623.29 L 604.00,623.96" fill="none" stroke="#111" stroke-linecap="round" stroke-linejoin="round" stroke-width="2.0" /></svg>