<?xml version="1.0" encoding="utf-8" ?>
<svg baseProfile="full" height="900" version="1.1" width="900" xmlns="http://www.w3.org/2000/svg" xmlns:ev="http://www.w3.org/2001/xml-events" xmlns:xlink="http://www.w3.org/1999/xlink"><defs /><path d="M 120.00,780.12 L 127.42,779.77 L 134.83,780.17 L 142.25,779.97 L 149.66,779.77 L 157.08,780.08 L 164.49,780.00 L 171.91,779.75 L 179.33,780.18 L 186.74,779.77 L 194.16,780.19 L 201.57,780.12 L 208.99,780.04 L 216.40,779.82 L 223.82,780.24 L 231.24,779.95 L 238.65,779.77 L 246.07,780.15 L 253.48,779.99 L 260.90,779.91 L 268.31,780.09 L 275.73,779.87 L 283.15,779.76 L 290.56,780.17 L 297.98,780.17 L 305.39,779.76 L 312.81,779.98 L 320.22,780.21 L 327.64,779.82 L 335.06,779.90 L 342.47,779.96 L 349.89,780.15 L 357.30,780.23 L 364.72,780.23 L 372.13,780.21 L 379.55,780.02 L 386.97,780.24 L 394.38,780.05 L 401.80,779.99 L 409.21,779.80 L 416.63,779.89 L 424.04,779.95 L 431.46,780.09 L 438.88,779.77 L 446.29,780.24 L 453.71,780.23 L 461.12,780.16 L 468.54,780.24 L 475.96,780.14 L 483.37,780.06 L 490.79,780.07 L 498.20,780.21 L 505.62,779.85 L 513.03,779.77 L 520.45,779.99 L 527.87,779.96 L 535.28,779.97 L 542.70,780.19 L 550.11,780.22 L 557.53,780.24 L 564.94,779.83 L 572.36,780.10 L 579.78,779.98 L 587.19,780.24 L 594.61,779.97 L 602.02,780.07 L 609.44,780.24 L 616.85,780.24 L 624.27,780.04 L 631.69,779.91 L 639.10,780.23 L 646.52,780.20 L 653.93,779.74 L 661.35,779.96 L 668.76,780.23 L 676.18,780.18 L 683.60,779.97 L 691.01,779.97 L 698.43,779.82 L 705.84,780.13 L 713.26,779.92 L 720.67,780.12 L 728.09,779.81 L 735.51,779.93 L 742.92,780.21 L 750.34,780.24 L 757.75,780.17 L 765.17,779.77 L 772.58,780.21 L 780.00,780.02" fill="none" stroke="#111" stroke-linecap="round" stroke-linejoin="round" stroke-width="2.2" /><path d="M 119.91,780.00 L 120.00,772.58 L 119.82,765.17 L 119.80,757.75 L 119.87,750.34 L 119.94,742.92 L 120.01,735.51 L 120.10,728.09 L 120.07,720.67 L 120.25,713.26 L 119.75,705.84 L 119.78,698.43 L 119.82,691.01 L 119.78,683.60 L 119.99,676.18 L 119.76,668.76 L 120.17,661.35 L 120.05,653.93 L 119.76,646.52 L 119.78,639.10 L 119.87,631.69 L 120.11,624.27 L 119.86,616.85 L 120.01,609.44 L 120.20,602.02 L 120.02,594.61 L 120.24,587.19 L 120.17,579.78 L 119.77,572.36 L 120.24,564.94 L 119.79,557.53 L 120.25,550.11 L 119.78,542.70 L 120.04,535.28 L 120.26,527.87 L 119.83,520.45 L 120.24,513.03 L 119.79,505.62 L 120.00,498.20 L 119.96,490.79 L 119.94,483.37 L 119.78,475.96 L 119.77,468.54 L 120.08,461.12 L 119.91,453.71 L 119.88,446.29 L 119.98,438.88 L 120.24,431.46 L 120.06,424.04 L 120.02,416.63 L 119.78,409.21 L 120.26,401.80 L 120.21,394.38 L 119.96,386.97 L 119.75,379.55 L 119.86,372.13 L 119.93,364.72 L 120.05,357.30 L 119.78,349.89 L 120.20,342.47 L 120.06,335.06 L 119.95,327.64 L 120.08,320.22 L 120.24,312.81 L 120.26,305.39 L 119.83,297.98 L 119.88,290.56 L 120.16,283.15 L 119.77,275.73 L 119.79,268.31 L 120.02,260.90 L 120.04,253.48 L 119.83,246.07 L 119.97,238.65 L 120.24,231.24 L 120.24,223.82 L 119.81,216.40 L 119.78,208.99 L 119.77,201.57 L 120.24,194.16 L 119.78,186.74 L 119.76,179.33 L 120.25,171.91 L 120.24,164.49 L 119.77,157.08 L 119.88,149.66 L 119.90,142.25 L 120.10,134.83 L 120.01,127.42 L 120.00,120.00" fill="none" stroke="#111" stroke-linecap="round" stroke-linejoin="round" stroke-width="2.2" /><path d="M 768.45,772.04 L 769.28,772.23 L 770.14,772.37 L 770.81,772.88 L 771.61,773.14 L 772.39,773.44 L 772.98,774.12 L 773.82,774.29 L 774.57,774.66 L 775.16,775.34 L 776.04,775.42 L 776.74,775.89 L 777.49,776.24 L 778.16,776.78" fill="none" stroke="#111" stroke-linecap="round" stroke-linejoin="round" stroke-width="2.2" /><path d="M 778.41,776.49 L 778.67,776.84 L 778.86,777.22 L 778.80,777.73 L 779.19,778.01 L 779.11,778.53 L 779.60,778.76 L 779.80,779.14 L 779.89,779.58 L 779.98,780.01" fill="none" stroke="#111" stroke-linecap="round" stroke-linejoin="round" stroke-width="2.2" /><path d="M 770.14,787.37 L 770.81,787.12 L 771.09,786.41 L 771.60,785.98 L 772.41,785.91 L 772.62,785.11 L 773.41,785.01 L 773.83,784.47 L 774.14,783.80 L 774.96,783.73 L 775.46,783.29 L 775.86,782.72 L 776.48,782.42 L 776.99,781.99" fill="none" stroke="#111" stroke-linecap="round" stroke-linejoin="round" stroke-width="2.2" /><path d="M 776.76,781.65 L 777.10,781.44 L 777.50,781.32 L 777.91,781.23 L 778.36,781.19 L 778.59,780.79 L 778.93,780.57 L 779.18,780.19 L 779.54,780.01 L 780.02,780.03" fill="none" stroke="#111" stroke-linecap="round" stroke-linejoin="round" stroke-width="2.2" /><path d="M 113.01,131.46 L 113.52,130.79 L 114.08,130.17 L 114.70,129.60 L 115.34,129.05 L 116.06,128.57 L 116.46,127.81 L 117.04,127.20 L 117.72,126.69 L 118.25,126.05 L 118.44,125.10 L 119.12,124.58 L 119.73,124.00 L 120.32,123.41" fill="none" stroke="#111" stroke-linecap="round" stroke-linejoin="round" stroke-width="2.2" /><path d="M 120.15,123.38 L 120.39,122.98 L 119.98,122.64 L 120.20,122.24 L 120.00,121.88 L 119.95,121.51 L 120.30,121.11 L 120.31,120.73 L 120.19,120.36 L 119.77,120.02" fill="none" stroke="#111" stroke-linecap="round" stroke-linejoin="round" stroke-width="2.2" /><path d="M 125.50,131.61 L 125.19,130.93 L 125.15,130.14 L 124.75,129.50 L 124.82,128.68 L 124.55,127.98 L 124.29,127.29 L 123.74,126.70 L 123.66,125.93 L 123.04,125.37 L 123.18,124.52 L 122.93,123.82 L 122.44,123.21 L 122.02,122.58" fill="none" stroke="#111" stroke-linecap="round" stroke-linejoin="round" stroke-width="2.2" /><path d="M 122.18,122.53 L 121.86,122.32 L 121.85,121.83 L 121.44,121.70 L 121.39,121.25 L 121.10,121.01 L 120.77,120.81 L 120.54,120.51 L 120.29,120.24 L 120.17,119.85" fill="none" stroke="#111" stroke-linecap="round" stroke-linejoin="round" stroke-width="2.2" /><path d="M 229.73,770.00 L 229.77,771.82 L 230.04,773.64 L 230.09,775.45 L 229.74,777.27 L 229.93,779.09 L 230.21,780.91 L 229.92,782.73 L 229.79,784.55 L 229.87,786.36 L 230.10,788.18 L 230.13,790.00" fill="none" stroke="#111" stroke-linecap="round" stroke-linejoin="round" stroke-width="2.2" /><path d="M 340.21,770.00 L 339.82,771.82 L 340.23,773.64 L 339.97,775.45 L 340.24,777.27 L 339.88,779.09 L 340.23,780.91 L 339.90,782.73 L 339.96,784.55 L 340.21,786.36 L 339.83,788.18 L 340.13,790.00" fill="none" stroke="#111" stroke-linecap="round" stroke-linejoin="round" stroke-width="2.2" /><path d="M 450.15,770.00 L 450.26,771.82 L 450.25,773.64 L 449.76,775.45 L 449.78,777.27 L 450.03,779.09 L 449.79,780.91 L 449.87,782.73 L 450.18,784.55 L 450.11,786.36 L 449.78,788.18 L 449.84,790.00" fill="none" stroke="#111" stroke-linecap="round" stroke-linejoin="round" stroke-width="2.2" /><path d="M 560.18,770.00 L 559.77,771.82 L 560.11,773.64 L 559.79,775.45 L 560.05,777.27 L 559.97,779.09 L 560.26,780.91 L 560.06,782.73 L 559.77,784.55 L 559.87,786.36 L 560.19,788.18 L 560.23,790.00" fill="none" stroke="#111" stroke-linecap="round" stroke-linejoin="round" stroke-width="2.2" /><path d="M 669.83,770.00 L 669.77,771.82 L 669.97,773.64 L 669.77,775.45 L 670.07,777.27 L 670.05,779.09 L 670.23,780.91 L 669.76,782.73 L 669.91,784.55 L 669.97,786.36 L 670.18,788.18 L 669.83,790.00" fill="none" stroke="#111" stroke-linecap="round" stroke-linejoin="round" stroke-width="2.2" /><path d="M 110.00,670.17 L 111.82,670.23 L 113.64,669.78 L 115.45,670.19 L 117.27,670.12 L 119.09,670.08 L 120.91,670.03 L 122.73,669.81 L 124.55,670.22 L 126.36,670.22 L 128.18,670.23 L 130.00,670.10" fill="none" stroke="#111" stroke-linecap="round" stroke-linejoin="round" stroke-width="2.2" /><path d="M 110.00,560.02 L 111.82,560.13 L 113.64,560.25 L 115.45,560.14 L 117.27,560.20 L 119.09,559.74 L 120.91,560.20 L 122.73,559.78 L 124.55,559.83 L 126.36,559.84 L 128.18,560.23 L 130.00,560.03" fill="none" stroke="#111" stroke-linecap="round" stroke-linejoin="round" stroke-width="2.2" /><path d="M 110.00,449.75 L 111.82,449.77 L 113.64,450.13 L 115.45,449.88 L 117.27,449.79 L 119.09,449.78 L 120.91,449.93 L 122.73,449.98 L 124.55,450.09 L 126.36,449.91 L 128.18,449.79 L 130.00,450.19" fill="none" stroke="#111" stroke-linecap="round" stroke-linejoin="round" stroke-width="2.2" /><path d="M 110.00,339.76 L 111.82,339.81 L 113.64,340.21 L 115.45,339.85 L 117.27,339.88 L 119.09,339.85 L 120.91,340.00 L 122.73,340.10 L 124.55,340.19 L 126.36,339.77 L 128.18,340.19 L 130.00,339.86" fill="none" stroke="#111" stroke-linecap="round" stroke-linejoin="round" stroke-width="2.2" /><path d="M 110.00,229.76 L 111.82,229.97 L 113.64,230.13 L 115.45,230.16 L 117.27,230.10 L 119.09,230.16 L 120.91,229.80 L 122.73,230.06 L 124.55,230.20 L 126.36,230.19 L 128.18,230.20 L 130.00,230.07" fill="none" stroke="#111" stroke-linecap="round" stroke-linejoin="round" stroke-width="2.2" /><path d="M 120.00,743.57 L 120.68,743.30 L 120.65,742.25 L 121.15,741.79 L 122.34,742.08 L 122.18,740.89 L 123.11,740.90 L 123.51,740.33 L 123.69,739.51 L 124.77,739.68 L 124.70,738.59 L 125.55,738.51" fill="none" stroke="#111" stroke-linecap="round" stroke-linejoin="round" stroke-width="2.2" /><path d="M 125.55,738.51 L 126.29,738.29 L 126.90,737.93 L 127.28,737.33 L 127.93,737.01 L 127.95,736.02 L 128.22,735.29 L 129.18,735.32 L 129.50,734.64 L 129.74,733.89 L 130.27,733.45 L 131.09,733.31" fill="none" stroke="#111" stroke-linecap="round" stroke-linejoin="round" stroke-width="2.2" /><path d="M 131.09,733.31 L 131.43,732.66 L 131.83,732.06 L 132.81,732.08 L 133.29,731.56 L 133.58,730.86 L 134.40,730.71 L 134.63,729.93 L 135.49,729.83 L 135.98,729.32 L 136.11,728.45 L 136.64,727.99" fill="none" stroke="#111" stroke-linecap="round" stroke-linejoin="round" stroke-width="2.2" /><path d="M 136.64,727.99 L 137.36,727.72 L 137.92,727.28 L 138.36,726.72 L 138.25,725.60 L 139.55,725.91 L 140.07,725.44 L 139.80,724.15 L 141.03,724.40 L 140.86,723.22 L 142.01,723.38 L 142.18,722.55" fill="none" stroke="#111" stroke-linecap="round" stroke-linejoin="round" stroke-width="2.2" /><path d="M 142.18,722.55 L 142.35,721.71 L 143.48,721.84 L 143.87,721.22 L 143.80,720.14 L 144.64,719.97 L 145.15,719.47 L 145.90,719.21 L 146.22,718.52 L 146.37,717.66 L 147.30,717.58 L 147.73,717.01" fill="none" stroke="#111" stroke-linecap="round" stroke-linejoin="round" stroke-width="2.2" /><path d="M 147.73,717.01 L 147.89,716.15 L 148.49,715.74 L 149.60,715.82 L 149.39,714.61 L 150.66,714.84 L 150.45,713.62 L 150.96,713.12 L 151.37,712.52 L 151.95,712.08 L 152.48,711.58 L 153.28,711.36" fill="none" stroke="#111" stroke-linecap="round" stroke-linejoin="round" stroke-width="2.2" /><path d="M 153.28,711.36 L 153.72,710.79 L 154.56,710.59 L 154.86,709.87 L 154.94,708.93 L 156.11,709.06 L 156.16,708.10 L 156.54,707.46 L 157.09,706.98 L 157.77,706.62 L 158.64,706.46 L 158.82,705.63" fill="none" stroke="#111" stroke-linecap="round" stroke-linejoin="round" stroke-width="2.2" /><path d="M 158.82,705.63 L 159.35,705.12 L 160.05,704.78 L 159.90,703.63 L 161.08,703.74 L 161.67,703.29 L 161.55,702.17 L 161.96,701.55 L 162.91,701.45 L 163.72,701.21 L 163.63,700.11 L 164.37,699.81" fill="none" stroke="#111" stroke-linecap="round" stroke-linejoin="round" stroke-width="2.2" /><path d="M 164.37,699.81 L 164.67,699.08 L 165.48,698.84 L 166.28,698.58 L 166.00,697.30 L 166.63,696.89 L 167.71,696.90 L 167.88,696.05 L 168.53,695.65 L 169.22,695.29 L 169.16,694.23 L 169.92,693.93" fill="none" stroke="#111" stroke-linecap="round" stroke-linejoin="round" stroke-width="2.2" /><path d="M 169.92,693.93 L 170.10,693.09 L 170.76,692.69 L 171.30,692.18 L 171.71,691.56 L 172.05,690.87 L 172.96,690.70 L 173.30,690.00 L 174.07,689.72 L 174.21,688.83 L 175.26,688.80 L 175.46,687.98" fill="none" stroke="#111" stroke-linecap="round" stroke-linejoin="round" stroke-width="2.2" /><path d="M 175.46,687.98 L 175.95,687.42 L 176.71,687.11 L 176.77,686.16 L 177.83,686.13 L 177.59,684.89 L 178.67,684.88 L 179.17,684.33 L 179.11,683.26 L 179.59,682.69 L 180.83,682.83 L 181.01,681.98" fill="none" stroke="#111" stroke-linecap="round" stroke-linejoin="round" stroke-width="2.2" /><path d="M 181.01,681.98 L 181.86,681.75 L 181.60,680.50 L 182.08,679.93 L 183.09,679.84 L 183.15,678.89 L 183.62,678.31 L 184.66,678.25 L 185.39,677.91 L 185.15,676.67 L 186.16,676.59 L 186.55,675.94" fill="none" stroke="#111" stroke-linecap="round" stroke-linejoin="round" stroke-width="2.2" /><path d="M 186.55,675.94 L 187.26,675.58 L 187.82,675.08 L 187.79,674.04 L 188.93,674.07 L 188.75,672.88 L 189.98,673.00 L 190.39,672.36 L 190.88,671.79 L 190.91,670.81 L 191.35,670.20 L 192.10,669.88" fill="none" stroke="#111" stroke-linecap="round" stroke-linejoin="round" stroke-width="2.2" /><path d="M 192.10,669.88 L 192.94,669.63 L 193.20,668.85 L 193.93,668.50 L 193.76,667.33 L 194.72,667.20 L 195.55,666.94 L 195.90,666.24 L 195.75,665.10 L 196.25,664.54 L 197.05,664.25 L 197.65,663.79" fill="none" stroke="#111" stroke-linecap="round" stroke-linejoin="round" stroke-width="2.2" /><path d="M 197.65,663.79 L 198.13,663.22 L 198.70,662.72 L 199.43,662.37 L 199.84,661.73 L 199.93,660.80 L 200.27,660.09 L 200.76,659.53 L 201.25,658.96 L 201.80,658.45 L 202.37,657.96 L 203.19,657.69" fill="none" stroke="#111" stroke-linecap="round" stroke-linejoin="round" stroke-width="2.2" /><path d="M 203.19,657.69 L 203.79,657.22 L 204.55,656.89 L 204.36,655.71 L 205.59,655.82 L 205.77,654.96 L 206.62,654.73 L 207.04,654.09 L 206.94,652.99 L 208.02,652.96 L 208.07,651.99 L 208.74,651.59" fill="none" stroke="#111" stroke-linecap="round" stroke-linejoin="round" stroke-width="2.2" /><path d="M 208.74,651.59 L 208.90,650.73 L 209.77,650.50 L 210.23,649.91 L 211.10,649.69 L 211.66,649.18 L 211.54,648.06 L 212.67,648.08 L 213.11,647.47 L 212.98,646.34 L 214.14,646.38 L 214.29,645.50" fill="none" stroke="#111" stroke-linecap="round" stroke-linejoin="round" stroke-width="2.2" /><path d="M 214.29,645.50 L 214.53,644.71 L 215.02,644.14 L 215.80,643.85 L 215.91,642.93 L 216.54,642.49 L 217.11,642.01 L 218.02,641.82 L 218.65,641.39 L 218.54,640.27 L 219.42,640.07 L 219.83,639.43" fill="none" stroke="#111" stroke-linecap="round" stroke-linejoin="round" stroke-width="2.2" /><path d="M 219.83,639.43 L 219.96,638.53 L 220.64,638.15 L 220.92,637.39 L 222.20,637.56 L 222.03,636.39 L 223.09,636.35 L 223.03,635.29 L 223.71,634.90 L 224.53,634.64 L 224.73,633.81 L 225.38,633.39" fill="none" stroke="#111" stroke-linecap="round" stroke-linejoin="round" stroke-width="2.2" /><path d="M 225.38,633.39 L 226.14,633.09 L 226.39,632.31 L 227.28,632.12 L 227.79,631.58 L 228.30,631.04 L 228.23,629.96 L 229.21,629.86 L 229.69,629.29 L 229.54,628.14 L 230.25,627.79 L 230.92,627.40" fill="none" stroke="#111" stroke-linecap="round" stroke-linejoin="round" stroke-width="2.2" /><path d="M 230.92,627.40 L 231.17,626.62 L 232.30,626.66 L 232.58,625.91 L 232.76,625.07 L 233.72,624.95 L 233.86,624.07 L 234.79,623.93 L 235.33,623.42 L 235.26,622.34 L 235.84,621.87 L 236.47,621.45" fill="none" stroke="#111" stroke-linecap="round" stroke-linejoin="round" stroke-width="2.2" /><path d="M 236.47,621.45 L 236.75,620.71 L 237.10,620.03 L 237.78,619.66 L 238.07,618.92 L 238.60,618.41 L 239.51,618.26 L 239.66,617.39 L 240.10,616.79 L 241.22,616.84 L 241.90,616.47 L 242.02,615.57" fill="none" stroke="#111" stroke-linecap="round" stroke-linejoin="round" stroke-width="2.2" /><path d="M 242.02,615.57 L 242.91,615.41 L 242.70,614.21 L 243.26,613.72 L 244.38,613.79 L 244.93,613.30 L 244.78,612.15 L 245.42,611.75 L 245.79,611.09 L 246.82,611.07 L 246.93,610.16 L 247.56,609.76" fill="none" stroke="#111" stroke-linecap="round" stroke-linejoin="round" stroke-width="2.2" /><path d="M 247.56,609.76 L 248.36,609.52 L 248.50,608.64 L 249.34,608.45 L 249.89,607.98 L 250.33,607.39 L 250.44,606.48 L 251.48,606.48 L 251.26,605.26 L 252.43,605.39 L 252.38,604.32 L 253.11,604.02" fill="none" stroke="#111" stroke-linecap="round" stroke-linejoin="round" stroke-width="2.2" /><path d="M 253.11,604.02 L 253.96,603.85 L 253.91,602.80 L 254.80,602.66 L 255.28,602.13 L 255.26,601.10 L 256.54,601.34 L 256.36,600.16 L 256.80,599.58 L 257.41,599.17 L 258.39,599.13 L 258.66,598.38" fill="none" stroke="#111" stroke-linecap="round" stroke-linejoin="round" stroke-width="2.2" /><path d="M 258.66,598.38 L 258.86,597.58 L 259.45,597.16 L 259.87,596.57 L 260.31,596.00 L 261.21,595.90 L 262.07,595.75 L 262.35,595.02 L 262.58,594.24 L 263.48,594.13 L 263.77,593.41 L 264.20,592.84" fill="none" stroke="#111" stroke-linecap="round" stroke-linejoin="round" stroke-width="2.2" /><path d="M 264.20,592.84 L 264.67,592.31 L 265.11,591.75 L 265.75,591.39 L 266.22,590.87 L 266.82,590.47 L 267.58,590.23 L 267.33,588.97 L 268.50,589.15 L 269.13,588.79 L 269.44,588.10 L 269.75,587.40" fill="none" stroke="#111" stroke-linecap="round" stroke-linejoin="round" stroke-width="2.2" /><path d="M 269.75,587.40 L 270.12,586.78 L 270.41,586.07 L 271.14,585.83 L 271.74,585.44 L 272.23,584.94 L 272.78,584.51 L 273.24,583.98 L 273.86,583.62 L 274.11,582.87 L 275.10,582.89 L 275.29,582.09" fill="none" stroke="#111" stroke-linecap="round" stroke-linejoin="round" stroke-width="2.2" /><path d="M 275.29,582.09 L 275.49,581.29 L 275.90,580.72 L 277.05,580.93 L 276.94,579.80 L 278.12,580.06 L 278.69,579.65 L 278.61,578.55 L 278.97,577.93 L 279.99,578.01 L 280.17,577.19 L 280.84,576.90" fill="none" stroke="#111" stroke-linecap="round" stroke-linejoin="round" stroke-width="2.2" /><path d="M 280.84,576.90 L 281.10,576.17 L 281.54,575.64 L 282.25,575.40 L 282.57,574.74 L 283.39,574.63 L 283.50,573.74 L 284.32,573.63 L 285.23,573.61 L 285.55,572.95 L 285.83,572.24 L 286.39,571.84" fill="none" stroke="#111" stroke-linecap="round" stroke-linejoin="round" stroke-width="2.2" /><path d="M 286.39,571.84 L 287.11,571.64 L 287.04,570.55 L 287.57,570.13 L 288.66,570.35 L 289.04,569.76 L 289.08,568.78 L 290.26,569.10 L 290.76,568.65 L 291.19,568.12 L 291.60,567.57 L 291.93,566.93" fill="none" stroke="#111" stroke-linecap="round" stroke-linejoin="round" stroke-width="2.2" /><path d="M 291.93,566.93 L 292.68,566.78 L 293.21,566.37 L 293.37,565.54 L 293.64,564.83 L 294.12,564.37 L 295.25,564.67 L 295.41,563.83 L 295.74,563.20 L 296.83,563.45 L 296.96,562.58 L 297.48,562.16" fill="none" stroke="#111" stroke-linecap="round" stroke-linejoin="round" stroke-width="2.2" /><path d="M 297.48,562.16 L 298.16,561.96 L 298.12,560.89 L 299.30,561.28 L 299.70,560.73 L 299.80,559.83 L 300.27,559.37 L 300.73,558.89 L 301.27,558.52 L 301.94,558.30 L 302.80,558.31 L 303.03,557.56" fill="none" stroke="#111" stroke-linecap="round" stroke-linejoin="round" stroke-width="2.2" /><path d="M 303.03,557.56 L 303.34,556.92 L 304.19,556.94 L 304.73,556.59 L 305.35,556.33 L 305.70,555.73 L 305.92,554.98 L 306.68,554.89 L 307.39,554.75 L 307.91,554.36 L 307.87,553.28 L 308.57,553.12" fill="none" stroke="#111" stroke-linecap="round" stroke-linejoin="round" stroke-width="2.2" /><path d="M 308.57,553.12 L 308.88,552.47 L 309.72,552.52 L 310.31,552.25 L 310.28,551.16 L 311.00,551.06 L 311.69,550.91 L 312.42,550.82 L 312.50,549.88 L 313.23,549.78 L 313.74,549.40 L 314.12,548.85" fill="none" stroke="#111" stroke-linecap="round" stroke-linejoin="round" stroke-width="2.2" /><path d="M 314.12,548.85 L 314.54,548.36 L 315.28,548.32 L 315.95,548.17 L 315.82,546.93 L 316.96,547.42 L 317.05,546.50 L 317.81,546.47 L 317.91,545.55 L 318.88,545.81 L 319.37,545.42 L 319.66,544.76" fill="none" stroke="#111" stroke-linecap="round" stroke-linejoin="round" stroke-width="2.2" /><path d="M 319.66,544.76 L 320.33,544.63 L 320.64,544.01 L 321.42,544.05 L 321.51,543.10 L 322.07,542.82 L 322.97,543.03 L 323.27,542.39 L 323.83,542.11 L 323.90,541.14 L 324.43,540.82 L 325.21,540.86" fill="none" stroke="#111" stroke-linecap="round" stroke-linejoin="round" stroke-width="2.2" /><path d="M 325.21,540.86 L 325.52,540.23 L 326.00,539.85 L 326.50,539.51 L 327.32,539.64 L 328.00,539.57 L 327.98,538.45 L 328.88,538.70 L 329.54,538.60 L 329.86,537.98 L 330.11,537.26 L 330.76,537.14" fill="none" stroke="#111" stroke-linecap="round" stroke-linejoin="round" stroke-width="2.2" /><path d="M 330.76,537.14 L 331.00,536.41 L 331.58,536.21 L 332.00,535.76 L 332.54,535.49 L 333.41,535.75 L 333.91,535.43 L 334.31,534.95 L 334.75,534.52 L 335.58,534.71 L 335.66,533.73 L 336.30,533.62" fill="none" stroke="#111" stroke-linecap="round" stroke-linejoin="round" stroke-width="2.2" /><path d="M 336.30,533.62 L 336.96,533.58 L 337.02,532.54 L 337.59,532.35 L 338.45,532.63 L 339.05,532.49 L 339.51,532.12 L 340.09,531.94 L 340.58,531.61 L 341.11,531.35 L 341.40,530.70 L 341.85,530.31" fill="none" stroke="#111" stroke-linecap="round" stroke-linejoin="round" stroke-width="2.2" /><path d="M 341.85,530.31 L 342.36,530.03 L 342.68,529.42 L 343.28,529.31 L 344.08,529.56 L 344.52,529.16 L 344.74,528.37 L 345.63,528.77 L 345.68,527.69 L 346.45,527.87 L 346.65,527.04 L 347.39,527.19" fill="none" stroke="#111" stroke-linecap="round" stroke-linejoin="round" stroke-width="2.2" /><path d="M 347.39,527.19 L 347.69,526.53 L 348.24,526.35 L 348.79,526.18 L 349.58,526.46 L 350.15,526.33 L 350.17,525.13 L 351.03,525.54 L 351.50,525.22 L 352.07,525.08 L 352.22,524.15 L 352.94,524.29" fill="none" stroke="#111" stroke-linecap="round" stroke-linejoin="round" stroke-width="2.2" /><path d="M 352.94,524.29 L 353.26,523.66 L 354.20,524.31 L 354.28,523.20 L 355.21,523.82 L 355.35,522.83 L 355.80,522.48 L 356.71,523.06 L 357.02,522.43 L 357.23,521.58 L 357.84,521.55 L 358.49,521.60" fill="none" stroke="#111" stroke-linecap="round" stroke-linejoin="round" stroke-width="2.2" /><path d="M 358.49,521.60 L 358.90,521.17 L 359.27,520.64 L 360.22,521.41 L 360.72,521.20 L 360.79,519.98 L 361.29,519.76 L 361.89,519.74 L 362.67,520.14 L 363.20,519.97 L 363.73,519.80 L 364.03,519.13" fill="none" stroke="#111" stroke-linecap="round" stroke-linejoin="round" stroke-width="2.2" /><path d="M 364.03,519.13 L 364.55,518.95 L 364.86,518.27 L 365.59,518.62 L 365.86,517.84 L 366.51,517.98 L 367.05,517.87 L 367.77,518.20 L 368.22,517.87 L 368.69,517.58 L 369.04,516.99 L 369.58,516.87" fill="none" stroke="#111" stroke-linecap="round" stroke-linejoin="round" stroke-width="2.2" /><path d="M 369.58,516.87 L 369.93,516.28 L 370.47,516.18 L 371.25,516.74 L 371.78,516.65 L 372.00,515.67 L 372.44,515.32 L 373.00,515.29 L 373.52,515.14 L 374.30,515.71 L 374.52,514.76 L 375.13,514.84" fill="none" stroke="#111" stroke-linecap="round" stroke-linejoin="round" stroke-width="2.2" /><path d="M 375.13,514.84 L 375.75,515.05 L 376.28,514.96 L 376.51,513.96 L 377.30,514.66 L 377.79,514.46 L 378.14,513.82 L 378.49,513.19 L 379.12,513.40 L 379.57,513.06 L 380.02,512.74 L 380.67,513.03" fill="none" stroke="#111" stroke-linecap="round" stroke-linejoin="round" stroke-width="2.2" /><path d="M 380.67,513.03 L 381.30,513.32 L 381.77,513.04 L 382.29,512.98 L 382.76,512.70 L 383.14,512.12 L 383.84,512.67 L 384.16,511.87 L 384.65,511.67 L 385.33,512.14 L 385.70,511.56 L 386.22,511.45" fill="none" stroke="#111" stroke-linecap="round" stroke-linejoin="round" stroke-width="2.2" /><path d="M 386.22,511.45 L 386.72,511.30 L 387.27,511.39 L 387.75,511.16 L 388.10,510.40 L 388.86,511.31 L 389.13,510.25 L 389.63,510.11 L 390.12,509.91 L 390.72,510.17 L 391.33,510.48 L 391.76,510.09" fill="none" stroke="#111" stroke-linecap="round" stroke-linejoin="round" stroke-width="2.2" /><path d="M 391.76,510.09 L 392.22,509.73 L 392.87,510.36 L 393.29,509.86 L 393.85,510.02 L 394.36,509.93 L 394.77,509.40 L 395.20,508.89 L 395.73,508.92 L 396.20,508.65 L 396.81,509.07 L 397.31,508.96" fill="none" stroke="#111" stroke-linecap="round" stroke-linejoin="round" stroke-width="2.2" /><path d="M 397.31,508.96 L 397.80,508.78 L 398.41,509.34 L 398.73,508.15 L 399.25,508.16 L 399.80,508.32 L 400.31,508.29 L 400.83,508.31 L 401.33,508.20 L 401.84,508.15 L 402.28,507.68 L 402.86,508.05" fill="none" stroke="#111" stroke-linecap="round" stroke-linejoin="round" stroke-width="2.2" /><path d="M 402.86,508.05 L 403.32,507.63 L 403.89,508.16 L 404.40,508.14 L 404.84,507.54 L 405.31,507.19 L 405.90,507.81 L 406.44,508.05 L 406.84,507.11 L 407.39,507.47 L 407.94,507.79 L 408.40,507.37" fill="none" stroke="#111" stroke-linecap="round" stroke-linejoin="round" stroke-width="2.2" /><path d="M 408.40,507.37 L 408.93,507.65 L 409.39,507.07 L 409.87,506.74 L 410.40,506.92 L 410.90,506.87 L 411.47,507.68 L 411.96,507.37 L 412.41,506.74 L 412.96,507.27 L 413.41,506.50 L 413.95,506.92" fill="none" stroke="#111" stroke-linecap="round" stroke-linejoin="round" stroke-width="2.2" /><path d="M 413.95,506.92 L 414.47,507.25 L 414.98,507.38 L 415.45,506.55 L 415.99,507.40 L 416.46,506.57 L 416.99,507.06 L 417.48,506.68 L 417.98,506.75 L 418.47,506.21 L 419.01,507.12 L 419.50,506.69" fill="none" stroke="#111" stroke-linecap="round" stroke-linejoin="round" stroke-width="2.2" /><path d="M 419.50,506.69 L 420.00,506.62 L 420.50,506.22 L 421.01,506.20 L 421.51,506.36 L 422.02,506.88 L 422.52,506.19 L 423.03,506.99 L 423.53,507.15 L 424.03,506.79 L 424.54,506.62 L 425.04,506.68" fill="none" stroke="#111" stroke-linecap="round" stroke-linejoin="round" stroke-width="2.2" /><path d="M 425.04,506.68 L 425.53,507.16 L 426.03,507.29 L 426.53,507.28 L 427.08,506.17 L 427.58,506.23 L 428.09,506.24 L 428.58,506.50 L 429.06,507.20 L 429.60,506.29 L 430.09,506.58 L 430.59,506.89" fill="none" stroke="#111" stroke-linecap="round" stroke-linejoin="round" stroke-width="2.2" /><path d="M 430.59,506.89 L 431.06,507.29 L 431.63,506.49 L 432.10,506.99 L 432.64,506.53 L 433.07,507.59 L 433.64,506.71 L 434.08,507.70 L 434.63,507.15 L 435.09,507.71 L 435.60,507.66 L 436.13,507.32" fill="none" stroke="#111" stroke-linecap="round" stroke-linejoin="round" stroke-width="2.2" /><path d="M 436.13,507.32 L 436.62,507.56 L 437.08,507.94 L 437.59,508.00 L 438.08,508.13 L 438.71,507.10 L 439.10,508.18 L 439.70,507.45 L 440.13,508.09 L 440.69,507.72 L 441.15,508.10 L 441.68,507.96" fill="none" stroke="#111" stroke-linecap="round" stroke-linejoin="round" stroke-width="2.2" /><path d="M 441.68,507.96 L 442.12,508.49 L 442.78,507.52 L 443.22,508.01 L 443.70,508.27 L 444.14,508.74 L 444.72,508.35 L 445.29,507.97 L 445.79,508.08 L 446.14,509.15 L 446.76,508.46 L 447.23,508.81" fill="none" stroke="#111" stroke-linecap="round" stroke-linejoin="round" stroke-width="2.2" /><path d="M 447.23,508.81 L 447.82,508.46 L 448.14,509.52 L 448.65,509.57 L 449.19,509.48 L 449.73,509.40 L 450.24,509.43 L 450.66,510.00 L 451.36,509.07 L 451.78,509.58 L 452.19,510.19 L 452.77,509.87" fill="none" stroke="#111" stroke-linecap="round" stroke-linejoin="round" stroke-width="2.2" /><path d="M 452.77,509.87 L 453.37,509.56 L 453.67,510.59 L 454.42,509.64 L 454.77,510.42 L 455.40,509.96 L 455.72,510.91 L 456.39,510.30 L 456.92,510.29 L 457.18,511.47 L 457.91,510.58 L 458.32,511.13" fill="none" stroke="#111" stroke-linecap="round" stroke-linejoin="round" stroke-width="2.2" /><path d="M 458.32,511.13 L 458.94,510.81 L 459.23,511.76 L 459.73,511.92 L 460.47,511.15 L 460.81,511.89 L 461.46,511.47 L 461.82,512.17 L 462.49,511.67 L 462.97,511.87 L 463.27,512.79 L 463.87,512.58" fill="none" stroke="#111" stroke-linecap="round" stroke-linejoin="round" stroke-width="2.2" /><path d="M 463.87,512.58 L 464.26,513.09 L 464.99,512.48 L 465.35,513.13 L 465.72,513.72 L 466.23,513.85 L 466.93,513.36 L 467.40,513.63 L 467.75,514.29 L 468.32,514.20 L 468.80,514.43 L 469.41,514.23" fill="none" stroke="#111" stroke-linecap="round" stroke-linejoin="round" stroke-width="2.2" /><path d="M 469.41,514.23 L 469.99,514.19 L 470.60,514.02 L 470.78,515.18 L 471.58,514.44 L 472.09,514.59 L 472.36,515.47 L 473.07,515.02 L 473.62,515.04 L 474.01,515.54 L 474.42,516.01 L 474.96,516.07" fill="none" stroke="#111" stroke-linecap="round" stroke-linejoin="round" stroke-width="2.2" /><path d="M 474.96,516.07 L 475.46,516.26 L 476.16,515.91 L 476.50,516.54 L 477.14,516.35 L 477.30,517.48 L 478.01,517.10 L 478.36,517.70 L 479.14,517.13 L 479.54,517.60 L 480.00,517.90 L 480.50,518.08" fill="none" stroke="#111" stroke-linecap="round" stroke-linejoin="round" stroke-width="2.2" /><path d="M 480.50,518.08 L 481.01,518.28 L 481.31,518.99 L 481.85,519.10 L 482.63,518.59 L 482.82,519.61 L 483.66,518.94 L 484.14,519.21 L 484.66,519.35 L 484.90,520.23 L 485.53,520.11 L 486.05,520.27" fill="none" stroke="#111" stroke-linecap="round" stroke-linejoin="round" stroke-width="2.2" /><path d="M 486.05,520.27 L 486.53,520.54 L 487.26,520.23 L 487.35,521.40 L 488.24,520.72 L 488.64,521.18 L 489.17,521.32 L 489.37,522.26 L 490.27,521.54 L 490.39,522.67 L 491.28,521.96 L 491.60,522.62" fill="none" stroke="#111" stroke-linecap="round" stroke-linejoin="round" stroke-width="2.2" /><path d="M 491.60,522.62 L 492.02,523.04 L 492.37,523.61 L 493.33,522.82 L 493.58,523.61 L 493.97,524.10 L 494.44,524.38 L 494.99,524.53 L 495.73,524.23 L 496.35,524.20 L 496.65,524.87 L 497.14,525.14" fill="none" stroke="#111" stroke-linecap="round" stroke-linejoin="round" stroke-width="2.2" /><path d="M 497.14,525.14 L 497.69,525.30 L 498.01,525.91 L 498.56,526.06 L 498.99,526.46 L 499.88,525.89 L 500.26,526.40 L 500.60,526.99 L 501.20,527.02 L 501.50,527.68 L 502.31,527.29 L 502.69,527.80" fill="none" stroke="#111" stroke-linecap="round" stroke-linejoin="round" stroke-width="2.2" /><path d="M 502.69,527.80 L 503.12,528.20 L 503.94,527.84 L 504.43,528.11 L 504.47,529.29 L 505.39,528.72 L 505.64,529.49 L 506.09,529.85 L 506.76,529.77 L 507.32,529.91 L 507.92,529.98 L 508.24,530.61" fill="none" stroke="#111" stroke-linecap="round" stroke-linejoin="round" stroke-width="2.2" /><path d="M 508.24,530.61 L 508.90,530.57 L 508.98,531.63 L 509.60,531.69 L 510.49,531.23 L 510.65,532.15 L 511.50,531.77 L 511.73,532.56 L 512.12,533.03 L 512.74,533.08 L 513.09,533.65 L 513.78,533.56" fill="none" stroke="#111" stroke-linecap="round" stroke-linejoin="round" stroke-width="2.2" /><path d="M 513.78,533.56 L 514.15,534.09 L 515.03,533.68 L 515.20,534.57 L 515.82,534.64 L 516.57,534.47 L 516.97,534.94 L 517.51,535.16 L 517.90,535.64 L 518.57,535.62 L 518.64,536.68 L 519.33,536.63" fill="none" stroke="#111" stroke-linecap="round" stroke-linejoin="round" stroke-width="2.2" /><path d="M 519.33,536.63 L 520.06,536.53 L 520.35,537.18 L 520.72,537.71 L 521.08,538.25 L 521.63,538.46 L 522.33,538.41 L 523.12,538.20 L 523.43,538.83 L 524.07,538.89 L 524.56,539.20 L 524.87,539.82" fill="none" stroke="#111" stroke-linecap="round" stroke-linejoin="round" stroke-width="2.2" /><path d="M 524.87,539.82 L 525.55,539.84 L 526.01,540.21 L 526.12,541.18 L 527.12,540.63 L 527.54,541.09 L 527.93,541.57 L 528.51,541.75 L 528.80,542.41 L 529.22,542.84 L 530.04,542.61 L 530.42,543.13" fill="none" stroke="#111" stroke-linecap="round" stroke-linejoin="round" stroke-width="2.2" /><path d="M 530.42,543.13 L 531.20,542.99 L 531.37,543.84 L 532.18,543.66 L 532.69,543.96 L 532.70,545.07 L 533.33,545.17 L 533.94,545.30 L 534.31,545.83 L 534.97,545.90 L 535.20,546.65 L 535.97,546.53" fill="none" stroke="#111" stroke-linecap="round" stroke-linejoin="round" stroke-width="2.2" /><path d="M 535.97,546.53 L 536.58,546.68 L 536.75,547.52 L 537.60,547.29 L 538.08,547.65 L 538.20,548.57 L 539.27,547.99 L 539.22,549.19 L 539.72,549.51 L 540.46,549.47 L 540.90,549.88 L 541.51,550.03" fill="none" stroke="#111" stroke-linecap="round" stroke-linejoin="round" stroke-width="2.2" /><path d="M 541.51,550.03 L 541.85,550.61 L 542.30,551.02 L 542.79,551.37 L 543.71,551.05 L 543.76,552.07 L 544.38,552.23 L 545.31,551.89 L 545.33,552.96 L 545.78,553.37 L 546.61,553.20 L 547.06,553.61" fill="none" stroke="#111" stroke-linecap="round" stroke-linejoin="round" stroke-width="2.2" /><path d="M 547.06,553.61 L 547.73,553.68 L 547.95,554.45 L 548.64,554.49 L 549.37,554.48 L 549.81,554.92 L 550.37,555.16 L 550.29,556.39 L 550.80,556.70 L 551.31,557.02 L 552.29,556.64 L 552.61,557.26" fill="none" stroke="#111" stroke-linecap="round" stroke-linejoin="round" stroke-width="2.2" /><path d="M 552.61,557.26 L 553.39,557.18 L 553.54,558.05 L 554.37,557.89 L 554.53,558.75 L 554.86,559.35 L 555.69,559.19 L 555.86,560.03 L 556.66,559.93 L 556.94,560.60 L 557.40,561.01 L 558.15,560.97" fill="none" stroke="#111" stroke-linecap="round" stroke-linejoin="round" stroke-width="2.2" /><path d="M 558.15,560.97 L 558.41,561.68 L 558.97,561.93 L 559.81,561.78 L 560.11,562.43 L 560.40,563.09 L 561.37,562.74 L 561.85,563.12 L 562.17,563.74 L 563.00,563.60 L 563.01,564.66 L 563.70,564.74" fill="none" stroke="#111" stroke-linecap="round" stroke-linejoin="round" stroke-width="2.2" /><path d="M 563.70,564.74 L 564.48,564.68 L 564.76,565.35 L 564.92,566.21 L 565.82,565.98 L 566.21,566.48 L 566.88,566.59 L 567.47,566.81 L 567.86,567.33 L 568.41,567.60 L 568.76,568.18 L 569.24,568.55" fill="none" stroke="#111" stroke-linecap="round" stroke-linejoin="round" stroke-width="2.2" /><path d="M 569.24,568.55 L 569.48,569.29 L 570.33,569.15 L 570.58,569.85 L 571.26,569.96 L 571.61,570.53 L 572.39,570.48 L 572.88,570.85 L 573.55,570.96 L 574.09,571.26 L 574.24,572.11 L 574.79,572.40" fill="none" stroke="#111" stroke-linecap="round" stroke-linejoin="round" stroke-width="2.2" /><path d="M 574.79,572.40 L 575.02,573.13 L 575.84,573.03 L 576.18,573.63 L 577.00,573.53 L 577.08,574.48 L 578.03,574.20 L 578.35,574.82 L 579.10,574.81 L 579.62,575.15 L 579.55,576.32 L 580.34,576.26" fill="none" stroke="#111" stroke-linecap="round" stroke-linejoin="round" stroke-width="2.2" /><path d="M 580.34,576.26 L 580.63,576.91 L 581.62,576.58 L 581.93,577.20 L 582.64,577.26 L 583.00,577.83 L 583.32,578.44 L 584.16,578.31 L 584.53,578.85 L 584.67,579.73 L 585.40,579.75 L 585.88,580.14" fill="none" stroke="#111" stroke-linecap="round" stroke-linejoin="round" stroke-width="2.2" /><path d="M 585.88,580.14 L 586.22,580.74 L 587.18,580.44 L 587.66,580.83 L 587.96,581.47 L 588.22,582.17 L 588.63,582.65 L 589.68,582.23 L 589.79,583.14 L 590.68,582.94 L 590.94,583.65 L 591.43,584.02" fill="none" stroke="#111" stroke-linecap="round" stroke-linejoin="round" stroke-width="2.2" /><path d="M 591.43,584.02 L 592.17,584.04 L 592.26,584.98 L 593.06,584.91 L 593.11,585.91 L 593.67,586.18 L 594.38,586.25 L 594.68,586.89 L 595.75,586.43 L 595.64,587.66 L 596.71,587.20 L 596.97,587.90" fill="none" stroke="#111" stroke-linecap="round" stroke-linejoin="round" stroke-width="2.2" /><path d="M 596.97,587.90 L 597.63,588.03 L 597.70,589.01 L 598.29,589.24 L 599.11,589.13 L 599.22,590.05 L 599.70,590.43 L 600.31,590.63 L 601.25,590.36 L 601.85,590.57 L 602.31,590.98 L 602.52,591.75" fill="none" stroke="#111" stroke-linecap="round" stroke-linejoin="round" stroke-width="2.2" /><path d="M 602.52,591.75 L 602.79,592.45 L 603.50,592.49 L 604.15,592.63 L 604.30,593.49 L 604.90,593.70 L 605.72,593.59 L 606.37,593.73 L 606.37,594.80 L 607.05,594.90 L 607.33,595.57 L 608.07,595.58" fill="none" stroke="#111" stroke-linecap="round" stroke-linejoin="round" stroke-width="2.2" /><path d="M 608.07,595.58 L 608.40,596.17 L 608.82,596.65 L 609.88,596.18 L 609.79,597.38 L 610.61,597.26 L 610.81,598.06 L 611.70,597.84 L 612.43,597.85 L 612.54,598.77 L 613.39,598.61 L 613.61,599.37" fill="none" stroke="#111" stroke-linecap="round" stroke-linejoin="round" stroke-width="2.2" /><path d="M 613.61,599.37 L 613.96,599.94 L 614.69,599.95 L 614.82,600.84 L 615.34,601.16 L 615.93,601.37 L 616.34,601.85 L 616.86,602.16 L 617.96,601.62 L 618.45,601.98 L 618.51,602.98 L 619.16,603.11" fill="none" stroke="#111" stroke-linecap="round" stroke-linejoin="round" stroke-width="2.2" /><path d="M 619.16,603.11 L 619.51,603.67 L 620.48,603.30 L 620.62,604.19 L 621.41,604.10 L 621.91,604.43 L 622.00,605.39 L 622.44,605.82 L 623.05,606.00 L 623.80,605.97 L 624.42,606.12 L 624.71,606.79" fill="none" stroke="#111" stroke-linecap="round" stroke-linejoin="round" stroke-width="2.2" /><path d="M 624.71,606.79 L 624.99,607.46 L 625.52,607.75 L 626.31,607.63 L 626.63,608.24 L 626.93,608.89 L 627.54,609.05 L 628.07,609.33 L 628.85,609.25 L 629.22,609.78 L 630.01,609.67 L 630.25,610.40" fill="none" stroke="#111" stroke-linecap="round" stroke-linejoin="round" stroke-width="2.2" /><path d="M 630.25,610.40 L 630.57,611.01 L 631.30,610.97 L 631.90,611.15 L 632.53,611.28 L 632.67,612.17 L 633.28,612.33 L 634.07,612.19 L 634.51,612.62 L 634.70,613.44 L 635.28,613.64 L 635.80,613.93" fill="none" stroke="#111" stroke-linecap="round" stroke-linejoin="round" stroke-width="2.2" /><path d="M 635.80,613.93 L 636.43,614.03 L 636.97,614.29 L 637.58,614.43 L 637.71,615.35 L 638.23,615.65 L 639.05,615.45 L 639.04,616.58 L 639.86,616.39 L 640.62,616.30 L 641.12,616.62 L 641.34,617.38" fill="none" stroke="#111" stroke-linecap="round" stroke-linejoin="round" stroke-width="2.2" /><path d="M 641.34,617.38 L 641.78,617.80 L 642.58,617.61 L 642.67,618.60 L 643.13,618.99 L 644.14,618.44 L 644.18,619.52 L 644.96,619.37 L 645.10,620.27 L 645.59,620.60 L 646.13,620.84 L 646.89,620.73" fill="none" stroke="#111" stroke-linecap="round" stroke-linejoin="round" stroke-width="2.2" /><path d="M 646.89,620.73 L 647.65,620.59 L 648.16,620.87 L 648.13,622.08 L 648.81,622.07 L 649.57,621.94 L 649.63,622.98 L 650.63,622.44 L 651.01,622.94 L 651.65,623.00 L 652.18,623.26 L 652.44,623.97" fill="none" stroke="#111" stroke-linecap="round" stroke-linejoin="round" stroke-width="2.2" /><path d="M 652.44,623.97 L 652.98,624.18 L 653.19,625.00 L 654.01,624.72 L 654.39,625.21 L 654.71,625.82 L 655.48,625.64 L 656.21,625.52 L 656.29,626.57 L 656.81,626.81 L 657.50,626.78 L 657.98,627.09" fill="none" stroke="#111" stroke-linecap="round" stroke-linejoin="round" stroke-width="2.2" /><path d="M 657.98,627.09 L 658.47,627.39 L 658.73,628.13 L 659.62,627.68 L 660.01,628.17 L 660.25,628.93 L 660.75,629.21 L 661.77,628.53 L 661.80,629.68 L 662.26,630.02 L 663.18,629.53 L 663.53,630.10" fill="none" stroke="#111" stroke-linecap="round" stroke-linejoin="round" stroke-width="2.2" /><path d="M 663.53,630.10 L 664.03,630.36 L 664.72,630.27 L 665.16,630.65 L 665.34,631.53 L 665.82,631.85 L 666.31,632.14 L 666.85,632.32 L 667.76,631.80 L 668.08,632.42 L 668.81,632.25 L 669.08,632.97" fill="none" stroke="#111" stroke-linecap="round" stroke-linejoin="round" stroke-width="2.2" /><path d="M 669.08,632.97 L 669.50,633.37 L 670.35,632.93 L 670.55,633.79 L 670.89,634.38 L 671.61,634.18 L 671.87,634.93 L 672.38,635.16 L 673.33,634.50 L 673.79,634.83 L 674.01,635.66 L 674.62,635.70" fill="none" stroke="#111" stroke-linecap="round" stroke-linejoin="round" stroke-width="2.2" /><path d="M 674.62,635.70 L 675.20,635.77 L 675.40,636.66 L 675.95,636.79 L 676.52,636.88 L 677.04,637.10 L 677.75,636.89 L 677.96,637.74 L 678.75,637.36 L 678.96,638.24 L 679.62,638.14 L 680.17,638.28" fill="none" stroke="#111" stroke-linecap="round" stroke-linejoin="round" stroke-width="2.2" /><path d="M 680.17,638.28 L 680.84,638.12 L 681.21,638.63 L 681.73,638.83 L 682.07,639.43 L 682.49,639.84 L 683.09,639.83 L 683.48,640.32 L 684.26,639.92 L 684.87,639.88 L 685.02,640.91 L 685.71,640.70" fill="none" stroke="#111" stroke-linecap="round" stroke-linejoin="round" stroke-width="2.2" /><path d="M 685.71,640.70 L 686.40,640.46 L 686.59,641.43 L 687.05,641.75 L 687.93,641.03 L 688.43,641.24 L 688.56,642.38 L 689.34,641.89 L 689.75,642.34 L 690.25,642.56 L 690.89,642.43 L 691.26,642.96" fill="none" stroke="#111" stroke-linecap="round" stroke-linejoin="round" stroke-width="2.2" /><path d="M 691.26,642.96 L 691.71,643.29 L 692.37,643.07 L 692.70,643.72 L 693.30,643.67 L 693.91,643.56 L 694.40,643.79 L 694.60,644.79 L 695.20,644.74 L 695.68,645.00 L 696.14,645.29 L 696.81,645.05" fill="none" stroke="#111" stroke-linecap="round" stroke-linejoin="round" stroke-width="2.2" /><path d="M 696.81,645.05 L 697.33,645.16 L 697.87,645.24 L 698.32,645.57 L 698.98,645.28 L 699.16,646.42 L 699.73,646.39 L 700.41,646.04 L 700.96,646.08 L 701.50,646.15 L 702.00,646.36 L 702.35,646.96" fill="none" stroke="#111" stroke-linecap="round" stroke-linejoin="round" stroke-width="2.2" /><path d="M 702.35,646.96 L 702.89,647.00 L 703.40,647.14 L 703.71,647.94 L 704.21,648.11 L 705.01,647.32 L 705.51,647.50 L 706.00,647.70 L 706.55,647.70 L 707.05,647.85 L 707.50,648.19 L 707.90,648.69" fill="none" stroke="#111" stroke-linecap="round" stroke-linejoin="round" stroke-width="2.2" /><path d="M 707.90,648.69 L 708.28,649.28 L 709.06,648.41 L 709.52,648.71 L 709.95,649.13 L 710.33,649.70 L 711.03,649.14 L 711.51,649.37 L 712.06,649.34 L 712.30,650.46 L 712.84,650.44 L 713.45,650.23" fill="none" stroke="#111" stroke-linecap="round" stroke-linejoin="round" stroke-width="2.2" /><path d="M 713.45,650.23 L 714.06,649.89 L 714.45,650.49 L 715.09,650.07 L 715.44,650.80 L 716.10,650.31 L 716.46,651.01 L 716.89,651.44 L 717.58,650.78 L 718.08,650.92 L 718.46,651.58 L 718.99,651.58" fill="none" stroke="#111" stroke-linecap="round" stroke-linejoin="round" stroke-width="2.2" /><path d="M 718.99,651.58 L 719.51,651.60 L 719.90,652.28 L 720.52,651.80 L 720.95,652.27 L 721.62,651.58 L 721.97,652.41 L 722.62,651.81 L 723.05,652.28 L 723.60,652.16 L 724.05,652.53 L 724.54,652.72" fill="none" stroke="#111" stroke-linecap="round" stroke-linejoin="round" stroke-width="2.2" /><path d="M 724.54,652.72 L 725.04,652.83 L 725.46,653.42 L 726.08,652.79 L 726.53,653.22 L 727.11,652.85 L 727.53,653.45 L 728.14,652.87 L 728.53,653.64 L 728.98,654.05 L 729.51,654.02 L 730.08,653.67" fill="none" stroke="#111" stroke-linecap="round" stroke-linejoin="round" stroke-width="2.2" /><path d="M 730.08,653.67 L 730.57,653.91 L 731.16,653.27 L 731.66,653.36 L 732.14,653.64 L 732.59,654.13 L 733.10,654.15 L 733.65,653.85 L 734.07,654.58 L 734.59,654.49 L 735.08,654.70 L 735.63,654.40" fill="none" stroke="#111" stroke-linecap="round" stroke-linejoin="round" stroke-width="2.2" /><path d="M 735.63,654.40 L 736.18,653.97 L 736.69,653.99 L 737.16,654.39 L 737.69,654.13 L 738.13,654.89 L 738.71,654.14 L 739.17,654.63 L 739.71,654.24 L 740.18,654.69 L 740.71,654.42 L 741.18,654.92" fill="none" stroke="#111" stroke-linecap="round" stroke-linejoin="round" stroke-width="2.2" /><path d="M 741.18,654.92 L 741.65,655.45 L 742.18,655.14 L 742.70,654.74 L 743.17,655.38 L 743.71,654.83 L 744.23,654.54 L 744.74,654.58 L 745.21,655.08 L 745.69,655.68 L 746.20,655.53 L 746.72,655.23" fill="none" stroke="#111" stroke-linecap="round" stroke-linejoin="round" stroke-width="2.2" /><path d="M 746.72,655.23 L 747.22,655.61 L 747.72,655.69 L 748.24,654.75 L 748.74,655.39 L 749.25,655.02 L 749.76,654.76 L 750.26,654.89 L 750.76,654.88 L 751.26,655.01 L 751.76,655.74 L 752.27,655.31" fill="none" stroke="#111" stroke-linecap="round" stroke-linejoin="round" stroke-width="2.2" /><path d="M 752.27,655.31 L 752.77,655.36 L 753.29,655.77 L 753.79,655.45 L 754.27,654.70 L 754.79,655.26 L 755.31,655.78 L 755.79,654.77 L 756.30,655.10 L 756.82,655.76 L 757.31,655.25 L 757.82,655.18" fill="none" stroke="#111" stroke-linecap="round" stroke-linejoin="round" stroke-width="2.2" /><path d="M 757.82,655.18 L 758.33,655.23 L 758.82,655.03 L 759.35,655.37 L 759.81,654.68 L 760.35,655.30 L 760.83,654.80 L 761.34,654.85 L 761.87,655.32 L 762.35,654.88 L 762.83,654.39 L 763.36,654.82" fill="none" stroke="#111" stroke-linecap="round" stroke-linejoin="round" stroke-width="2.2" /><path d="M 763.36,654.82 L 763.92,655.29 L 764.31,654.17 L 764.83,654.25 L 765.33,654.13 L 765.83,654.02 L 766.44,655.03 L 766.90,654.57 L 767.34,653.91 L 767.92,654.53 L 768.45,654.75 L 768.91,654.24" fill="none" stroke="#111" stroke-linecap="round" stroke-linejoin="round" stroke-width="2.2" /><path d="M 768.91,654.24 L 769.39,654.01 L 769.84,653.55 L 770.36,653.60 L 771.00,654.48 L 771.48,654.22 L 771.90,653.58 L 772.43,653.66 L 772.99,653.98 L 773.51,654.00 L 774.02,654.01 L 774.45,653.43" fill="none" stroke="#111" stroke-linecap="round" stroke-linejoin="round" stroke-width="2.2" /><path d="M 774.45,653.43 L 775.00,653.57 L 775.40,652.89 L 775.87,652.62 L 776.37,652.54 L 776.96,652.87 L 777.52,653.11 L 778.07,653.21 L 778.40,652.20 L 779.08,653.06 L 779.54,652.72 L 780.00,652.40" fill="none" stroke="#111" stroke-linecap="round" stroke-linejoin="round" stroke-width="2.2" /><path d="M 120.00,756.80 L 120.28,755.61 L 120.87,754.59 L 121.40,753.54 L 122.67,752.89 L 122.45,751.43 L 123.04,750.41 L 124.16,749.68 L 124.30,748.41 L 125.53,747.75 L 125.46,746.37 L 125.90,745.26 L 126.90,744.47 L 127.42,743.42" fill="none" stroke="#111" stroke-linecap="round" stroke-linejoin="round" stroke-width="2.2" /><path d="M 127.42,743.42 L 128.27,742.75 L 128.89,741.93 L 129.29,740.96 L 130.03,740.21 L 129.96,738.93 L 130.85,738.29 L 131.02,737.17 L 132.09,736.65 L 132.20,735.49 L 132.82,734.66 L 133.54,733.91 L 134.30,733.18 L 134.83,732.30" fill="none" stroke="#111" stroke-linecap="round" stroke-linejoin="round" stroke-width="2.2" /><path d="M 134.83,732.30 L 135.63,731.74 L 136.30,731.09 L 136.27,729.89 L 137.45,729.63 L 137.97,728.86 L 137.98,727.69 L 139.15,727.43 L 139.31,726.38 L 140.25,725.93 L 140.57,725.00 L 140.94,724.12 L 141.44,723.33 L 142.25,722.79" fill="none" stroke="#111" stroke-linecap="round" stroke-linejoin="round" stroke-width="2.2" /><path d="M 142.25,722.79 L 142.60,721.95 L 143.13,721.27 L 143.86,720.78 L 144.68,720.37 L 144.89,719.40 L 145.36,718.67 L 146.20,718.28 L 146.52,717.41 L 147.54,717.17 L 147.76,716.22 L 148.85,716.05 L 148.86,714.91 L 149.66,714.47" fill="none" stroke="#111" stroke-linecap="round" stroke-linejoin="round" stroke-width="2.2" /><path d="M 149.66,714.47 L 150.02,713.69 L 150.93,713.47 L 151.10,712.49 L 152.09,712.35 L 152.83,711.95 L 153.28,711.26 L 153.40,710.24 L 154.56,710.26 L 154.49,709.05 L 155.66,709.09 L 156.25,708.54 L 156.34,707.49 L 157.08,707.09" fill="none" stroke="#111" stroke-linecap="round" stroke-linejoin="round" stroke-width="2.2" /><path d="M 157.08,707.09 L 157.66,706.59 L 158.29,706.15 L 158.91,705.69 L 159.16,704.83 L 160.23,704.87 L 160.24,703.73 L 161.37,703.85 L 161.35,702.67 L 162.13,702.40 L 162.50,701.67 L 163.51,701.65 L 163.77,700.78 L 164.49,700.45" fill="none" stroke="#111" stroke-linecap="round" stroke-linejoin="round" stroke-width="2.2" /><path d="M 164.49,700.45 L 165.02,699.93 L 165.88,699.82 L 166.46,699.37 L 166.52,698.28 L 167.49,698.31 L 167.72,697.43 L 168.76,697.53 L 168.78,696.40 L 169.86,696.56 L 170.36,696.00 L 170.79,695.38 L 171.55,695.14 L 171.91,694.42" fill="none" stroke="#111" stroke-linecap="round" stroke-linejoin="round" stroke-width="2.2" /><path d="M 171.91,694.42 L 172.37,693.85 L 173.03,693.55 L 173.49,692.97 L 173.97,692.42 L 175.04,692.67 L 175.59,692.21 L 175.98,691.55 L 176.48,691.03 L 177.30,690.94 L 177.48,689.99 L 177.98,689.47 L 178.55,689.04 L 179.33,688.89" fill="none" stroke="#111" stroke-linecap="round" stroke-linejoin="round" stroke-width="2.2" /><path d="M 179.33,688.89 L 179.84,688.42 L 180.66,688.38 L 181.30,688.11 L 181.38,687.00 L 181.92,686.56 L 182.68,686.44 L 183.52,686.43 L 183.70,685.48 L 184.29,685.12 L 184.81,684.66 L 185.34,684.20 L 186.12,684.12 L 186.74,683.79" fill="none" stroke="#111" stroke-linecap="round" stroke-linejoin="round" stroke-width="2.2" /><path d="M 186.74,683.79 L 187.17,683.21 L 188.12,683.44 L 188.56,682.86 L 189.15,682.53 L 189.81,682.31 L 190.34,681.89 L 190.96,681.60 L 191.08,680.53 L 192.00,680.71 L 192.67,680.50 L 193.24,680.14 L 193.41,679.14 L 194.16,679.06" fill="none" stroke="#111" stroke-linecap="round" stroke-linejoin="round" stroke-width="2.2" /><path d="M 194.16,679.06 L 194.57,678.46 L 195.41,678.58 L 196.10,678.42 L 196.20,677.30 L 197.06,677.44 L 197.60,677.06 L 198.39,677.09 L 198.88,676.61 L 199.08,675.65 L 199.63,675.27 L 200.43,675.33 L 200.85,674.73 L 201.57,674.65" fill="none" stroke="#111" stroke-linecap="round" stroke-linejoin="round" stroke-width="2.2" /><path d="M 201.57,674.65 L 202.04,674.13 L 202.73,674.03 L 203.14,673.44 L 204.03,673.68 L 204.33,672.88 L 204.88,672.52 L 205.49,672.28 L 206.33,672.44 L 206.92,672.16 L 207.11,671.16 L 207.89,671.22 L 208.27,670.56 L 208.99,670.51" fill="none" stroke="#111" stroke-linecap="round" stroke-linejoin="round" stroke-width="2.2" /><path d="M 208.99,670.51 L 209.41,669.91 L 210.14,669.92 L 210.59,669.40 L 211.39,669.54 L 211.65,668.64 L 212.61,669.09 L 212.80,668.06 L 213.40,667.82 L 214.15,667.85 L 214.54,667.21 L 215.20,667.10 L 215.83,666.90 L 216.40,666.61" fill="none" stroke="#111" stroke-linecap="round" stroke-linejoin="round" stroke-width="2.2" /><path d="M 216.40,666.61 L 216.93,666.24 L 217.50,665.95 L 218.29,666.11 L 218.64,665.39 L 219.13,664.94 L 219.94,665.15 L 220.38,664.60 L 220.77,663.95 L 221.42,663.83 L 222.31,664.18 L 222.60,663.35 L 223.10,662.91 L 223.82,662.93" fill="none" stroke="#111" stroke-linecap="round" stroke-linejoin="round" stroke-width="2.2" /><path d="M 223.82,662.93 L 224.25,662.36 L 225.00,662.47 L 225.71,662.51 L 225.93,661.49 L 226.76,661.78 L 227.06,660.93 L 227.99,661.43 L 228.23,660.47 L 229.15,660.93 L 229.43,660.06 L 229.91,659.59 L 230.66,659.71 L 231.24,659.45" fill="none" stroke="#111" stroke-linecap="round" stroke-linejoin="round" stroke-width="2.2" /><path d="M 231.24,659.45 L 231.68,658.90 L 232.26,658.68 L 232.98,658.76 L 233.57,658.55 L 234.18,658.38 L 234.48,657.53 L 235.07,657.31 L 235.70,657.19 L 236.26,656.92 L 236.75,656.48 L 237.52,656.67 L 238.21,656.67 L 238.65,656.14" fill="none" stroke="#111" stroke-linecap="round" stroke-linejoin="round" stroke-width="2.2" /><path d="M 238.65,656.14 L 239.15,655.72 L 239.83,655.74 L 240.37,655.44 L 241.04,655.43 L 241.58,655.11 L 242.23,655.05 L 242.76,654.70 L 243.32,654.45 L 243.95,654.34 L 244.32,653.64 L 244.77,653.11 L 245.63,653.54 L 246.07,652.99" fill="none" stroke="#111" stroke-linecap="round" stroke-linejoin="round" stroke-width="2.2" /><path d="M 246.07,652.99 L 246.51,652.44 L 247.06,652.15 L 247.79,652.32 L 248.43,652.27 L 248.85,651.65 L 249.49,651.59 L 249.96,651.12 L 250.79,651.53 L 251.28,651.10 L 251.84,650.83 L 252.18,650.06 L 252.82,649.98 L 253.48,649.98" fill="none" stroke="#111" stroke-linecap="round" stroke-linejoin="round" stroke-width="2.2" /><path d="M 253.48,649.98 L 254.15,650.01 L 254.74,649.84 L 255.35,649.72 L 255.89,649.41 L 256.19,648.51 L 257.01,648.93 L 257.37,648.17 L 258.21,648.63 L 258.47,647.60 L 259.32,648.11 L 259.82,647.71 L 260.32,647.31 L 260.90,647.11" fill="none" stroke="#111" stroke-linecap="round" stroke-linejoin="round" stroke-width="2.2" /><path d="M 260.90,647.11 L 261.52,647.02 L 262.10,646.84 L 262.68,646.66 L 263.22,646.35 L 263.74,646.01 L 264.16,645.40 L 265.04,646.02 L 265.44,645.35 L 266.04,645.22 L 266.52,644.76 L 267.33,645.19 L 267.74,644.55 L 268.31,644.35" fill="none" stroke="#111" stroke-linecap="round" stroke-linejoin="round" stroke-width="2.2" /><path d="M 268.31,644.35 L 269.00,644.46 L 269.46,643.95 L 269.89,643.35 L 270.74,643.94 L 271.24,643.54 L 271.70,643.04 L 272.44,643.30 L 272.91,642.81 L 273.32,642.16 L 274.17,642.73 L 274.67,642.33 L 275.07,641.66 L 275.73,641.70" fill="none" stroke="#111" stroke-linecap="round" stroke-linejoin="round" stroke-width="2.2" /><path d="M 275.73,641.70 L 276.40,641.81 L 276.72,640.87 L 277.49,641.25 L 278.09,641.14 L 278.62,640.84 L 279.08,640.32 L 279.79,640.53 L 280.15,639.73 L 280.93,640.13 L 281.38,639.58 L 281.99,639.51 L 282.68,639.67 L 283.15,639.16" fill="none" stroke="#111" stroke-linecap="round" stroke-linejoin="round" stroke-width="2.2" /><path d="M 283.15,639.16 L 283.77,639.14 L 284.14,638.35 L 284.72,638.19 L 285.56,638.81 L 286.08,638.46 L 286.42,637.59 L 287.12,637.79 L 287.80,637.92 L 288.34,637.64 L 288.74,636.93 L 289.27,636.64 L 289.88,636.56 L 290.56,636.71" fill="none" stroke="#111" stroke-linecap="round" stroke-linejoin="round" stroke-width="2.2" /><path d="M 290.56,636.71 L 291.11,636.47 L 291.83,636.74 L 292.14,635.76 L 292.79,635.81 L 293.33,635.53 L 294.05,635.82 L 294.46,635.14 L 295.13,635.29 L 295.69,635.07 L 296.26,634.89 L 296.80,634.60 L 297.42,634.58 L 297.98,634.35" fill="none" stroke="#111" stroke-linecap="round" stroke-linejoin="round" stroke-width="2.2" /><path d="M 297.98,634.35 L 298.45,633.86 L 299.01,633.64 L 299.63,633.63 L 300.22,633.51 L 300.92,633.78 L 301.49,633.58 L 301.96,633.10 L 302.56,633.00 L 303.05,632.56 L 303.64,632.45 L 304.13,632.03 L 304.72,631.90 L 305.39,632.07" fill="none" stroke="#111" stroke-linecap="round" stroke-linejoin="round" stroke-width="2.2" /><path d="M 305.39,632.07 L 306.03,632.13 L 306.57,631.84 L 307.08,631.48 L 307.61,631.18 L 308.24,631.19 L 308.75,630.84 L 309.36,630.80 L 310.07,631.09 L 310.41,630.14 L 310.98,629.97 L 311.56,629.85 L 312.30,630.25 L 312.81,629.87" fill="none" stroke="#111" stroke-linecap="round" stroke-linejoin="round" stroke-width="2.2" /><path d="M 312.81,629.87 L 313.29,629.39 L 314.04,629.85 L 314.53,629.41 L 315.21,629.62 L 315.78,629.47 L 316.11,628.46 L 316.79,628.68 L 317.45,628.83 L 318.06,628.81 L 318.59,628.48 L 319.19,628.43 L 319.71,628.10 L 320.22,627.73" fill="none" stroke="#111" stroke-linecap="round" stroke-linejoin="round" stroke-width="2.2" /><path d="M 320.22,627.73 L 320.72,627.29 L 321.35,627.36 L 322.03,627.60 L 322.60,627.44 L 323.18,627.30 L 323.76,627.17 L 324.12,626.27 L 324.91,626.89 L 325.39,626.40 L 325.87,625.92 L 326.61,626.38 L 327.09,625.91 L 327.64,625.67" fill="none" stroke="#111" stroke-linecap="round" stroke-linejoin="round" stroke-width="2.2" /><path d="M 327.64,625.67 L 328.29,625.82 L 328.89,625.76 L 329.35,625.19 L 329.95,625.14 L 330.49,624.88 L 331.09,624.83 L 331.76,625.05 L 332.11,624.09 L 332.69,623.95 L 333.23,623.71 L 333.80,623.55 L 334.39,623.48 L 335.06,623.66" fill="none" stroke="#111" stroke-linecap="round" stroke-linejoin="round" stroke-width="2.2" /><path d="M 335.06,623.66 L 335.55,623.24 L 336.10,623.00 L 336.77,623.22 L 337.45,623.49 L 337.80,622.52 L 338.59,623.17 L 339.13,622.92 L 339.59,622.36 L 340.24,622.51 L 340.75,622.12 L 341.44,622.43 L 341.91,621.92 L 342.47,621.72" fill="none" stroke="#111" stroke-linecap="round" stroke-linejoin="round" stroke-width="2.2" /><path d="M 342.47,621.72 L 343.08,621.71 L 343.56,621.21 L 344.26,621.58 L 344.66,620.79 L 345.37,621.17 L 345.80,620.49 L 346.57,621.13 L 347.05,620.62 L 347.51,620.05 L 348.09,619.94 L 348.65,619.75 L 349.35,620.09 L 349.89,619.83" fill="none" stroke="#111" stroke-linecap="round" stroke-linejoin="round" stroke-width="2.2" /><path d="M 349.89,619.83 L 350.48,619.78 L 351.02,619.52 L 351.52,619.09 L 352.13,619.12 L 352.73,619.09 L 353.21,618.57 L 353.97,619.21 L 354.55,619.10 L 355.09,618.83 L 355.56,618.30 L 356.10,618.01 L 356.65,617.82 L 357.30,618.00" fill="none" stroke="#111" stroke-linecap="round" stroke-linejoin="round" stroke-width="2.2" /><path d="M 357.30,618.00 L 357.89,617.92 L 358.54,618.13 L 359.12,618.02 L 359.69,617.89 L 360.12,617.18 L 360.83,617.59 L 361.21,616.66 L 361.92,617.12 L 362.37,616.47 L 363.04,616.75 L 363.56,616.43 L 364.23,616.67 L 364.72,616.21" fill="none" stroke="#111" stroke-linecap="round" stroke-linejoin="round" stroke-width="2.2" /><path d="M 364.72,616.21 L 365.35,616.31 L 365.75,615.49 L 366.53,616.22 L 366.99,615.63 L 367.56,615.48 L 368.13,615.37 L 368.68,615.13 L 369.38,615.55 L 369.77,614.65 L 370.52,615.28 L 370.94,614.52 L 371.62,614.84 L 372.13,614.47" fill="none" stroke="#111" stroke-linecap="round" stroke-linejoin="round" stroke-width="2.2" /><path d="M 372.13,614.47 L 372.72,614.40 L 373.32,614.39 L 373.82,613.97 L 374.31,613.50 L 375.08,614.21 L 375.64,614.04 L 376.20,613.85 L 376.69,613.40 L 377.23,613.15 L 377.94,613.60 L 378.50,613.42 L 379.05,613.21 L 379.55,612.77" fill="none" stroke="#111" stroke-linecap="round" stroke-linejoin="round" stroke-width="2.2" /><path d="M 379.55,612.77 L 380.13,612.69 L 380.76,612.85 L 381.36,612.84 L 381.84,612.31 L 382.33,611.83 L 383.01,612.18 L 383.63,612.29 L 384.04,611.45 L 384.78,612.06 L 385.17,611.12 L 385.91,611.75 L 386.44,611.47 L 386.97,611.12" fill="none" stroke="#111" stroke-linecap="round" stroke-linejoin="round" stroke-width="2.2" /><path d="M 386.97,611.12 L 387.59,611.25 L 388.01,610.44 L 388.75,611.06 L 389.31,610.93 L 389.72,610.04 L 390.36,610.25 L 390.87,609.83 L 391.51,610.05 L 392.10,610.02 L 392.76,610.31 L 393.33,610.18 L 393.77,609.43 L 394.38,609.51" fill="none" stroke="#111" stroke-linecap="round" stroke-linejoin="round" stroke-width="2.2" /><path d="M 394.38,609.51 L 394.95,609.39 L 395.54,609.36 L 396.19,609.61 L 396.68,609.10 L 397.15,608.52 L 397.87,609.09 L 398.32,608.41 L 398.95,608.55 L 399.45,608.12 L 400.07,608.22 L 400.73,608.53 L 401.16,607.74 L 401.80,607.94" fill="none" stroke="#111" stroke-linecap="round" stroke-linejoin="round" stroke-width="2.2" /><path d="M 401.80,607.94 L 402.43,608.11 L 402.87,607.37 L 403.60,608.02 L 404.17,607.92 L 404.65,607.33 L 405.13,606.81 L 405.85,607.39 L 406.32,606.80 L 406.88,606.64 L 407.58,607.16 L 407.97,606.16 L 408.71,606.82 L 409.21,606.40" fill="none" stroke="#111" stroke-linecap="round" stroke-linejoin="round" stroke-width="2.2" /><path d="M 409.21,606.40 L 409.83,606.53 L 410.27,605.77 L 410.84,605.65 L 411.56,606.23 L 411.99,605.47 L 412.64,605.74 L 413.13,605.19 L 413.86,605.88 L 414.41,605.67 L 414.98,605.55 L 415.58,605.57 L 416.00,604.72 L 416.63,604.90" fill="none" stroke="#111" stroke-linecap="round" stroke-linejoin="round" stroke-width="2.2" /><path d="M 416.63,604.90 L 417.13,604.43 L 417.76,604.63 L 418.40,604.85 L 418.93,604.55 L 419.56,604.73 L 420.14,604.65 L 420.61,604.06 L 421.19,603.97 L 421.68,603.46 L 422.27,603.44 L 422.87,603.46 L 423.54,603.89 L 424.04,603.43" fill="none" stroke="#111" stroke-linecap="round" stroke-linejoin="round" stroke-width="2.2" /><path d="M 424.04,603.43 L 424.68,603.64 L 425.11,602.82 L 425.72,602.90 L 426.40,603.38 L 426.90,602.90 L 427.49,602.89 L 428.12,603.09 L 428.67,602.84 L 429.26,602.87 L 429.67,601.91 L 430.35,602.35 L 430.91,602.21 L 431.46,601.99" fill="none" stroke="#111" stroke-linecap="round" stroke-linejoin="round" stroke-width="2.2" /><path d="M 431.46,601.99 L 431.98,601.63 L 432.64,601.99 L 433.22,601.94 L 433.76,601.66 L 434.23,601.03 L 434.94,601.65 L 435.53,601.65 L 436.03,601.14 L 436.55,600.78 L 437.24,601.30 L 437.70,600.61 L 438.37,601.03 L 438.88,600.59" fill="none" stroke="#111" stroke-linecap="round" stroke-linejoin="round" stroke-width="2.2" /><path d="M 438.88,600.59 L 439.49,600.70 L 439.96,600.05 L 440.64,600.53 L 441.14,600.08 L 441.81,600.50 L 442.28,599.86 L 442.92,600.14 L 443.43,599.68 L 443.95,599.32 L 444.66,599.96 L 445.09,599.12 L 445.74,599.41 L 446.29,599.21" fill="none" stroke="#111" stroke-linecap="round" stroke-linejoin="round" stroke-width="2.2" /><path d="M 446.29,599.21 L 446.80,598.77 L 447.35,598.54 L 448.07,599.29 L 448.50,598.37 L 449.18,598.90 L 449.63,598.13 L 450.26,598.33 L 450.89,598.55 L 451.37,597.95 L 452.04,598.42 L 452.57,598.09 L 453.08,597.67 L 453.71,597.86" fill="none" stroke="#111" stroke-linecap="round" stroke-linejoin="round" stroke-width="2.2" /><path d="M 453.71,597.86 L 454.29,597.80 L 454.90,597.95 L 455.33,597.08 L 455.94,597.17 L 456.64,597.80 L 457.17,597.46 L 457.78,597.59 L 458.29,597.17 L 458.77,596.53 L 459.46,597.14 L 460.06,597.19 L 460.50,596.36 L 461.12,596.54" fill="none" stroke="#111" stroke-linecap="round" stroke-linejoin="round" stroke-width="2.2" /><path d="M 461.12,596.54 L 461.65,596.16 L 462.26,596.31 L 462.79,596.00 L 463.37,595.92 L 464.05,596.47 L 464.50,595.65 L 465.14,595.98 L 465.69,595.73 L 466.19,595.26 L 466.86,595.75 L 467.43,595.63 L 468.03,595.67 L 468.54,595.25" fill="none" stroke="#111" stroke-linecap="round" stroke-linejoin="round" stroke-width="2.2" /><path d="M 468.54,595.25 L 469.09,595.02 L 469.75,595.45 L 470.21,594.73 L 470.90,595.30 L 471.45,595.09 L 471.91,594.34 L 472.60,594.97 L 473.08,594.34 L 473.61,593.97 L 474.23,594.17 L 474.77,593.92 L 475.35,593.87 L 475.96,593.98" fill="none" stroke="#111" stroke-linecap="round" stroke-linejoin="round" stroke-width="2.2" /><path d="M 475.96,593.98 L 476.48,593.61 L 477.02,593.35 L 477.62,593.42 L 478.26,593.76 L 478.88,593.94 L 479.41,593.62 L 480.01,593.70 L 480.58,593.59 L 481.02,592.68 L 481.61,592.75 L 482.30,593.31 L 482.81,592.90 L 483.37,592.73" fill="none" stroke="#111" stroke-linecap="round" stroke-linejoin="round" stroke-width="2.2" /><path d="M 483.37,592.73 L 483.99,592.91 L 484.51,592.54 L 485.01,592.04 L 485.63,592.23 L 486.28,592.63 L 486.73,591.79 L 487.43,592.48 L 487.87,591.61 L 488.57,592.28 L 489.14,592.21 L 489.71,592.06 L 490.27,591.91 L 490.79,591.51" fill="none" stroke="#111" stroke-linecap="round" stroke-linejoin="round" stroke-width="2.2" /><path d="M 490.79,591.51 L 491.31,591.14 L 491.89,591.09 L 492.57,591.65 L 493.12,591.43 L 493.65,591.08 L 494.16,590.66 L 494.80,591.00 L 495.38,590.95 L 495.98,591.04 L 496.44,590.29 L 497.02,590.24 L 497.61,590.25 L 498.20,590.31" fill="none" stroke="#111" stroke-linecap="round" stroke-linejoin="round" stroke-width="2.2" /><path d="M 498.20,590.31 L 498.73,589.94 L 499.42,590.60 L 499.89,589.91 L 500.42,589.52 L 501.09,590.10 L 501.56,589.37 L 502.19,589.61 L 502.83,589.97 L 503.29,589.22 L 503.97,589.77 L 504.44,589.07 L 505.03,589.08 L 505.62,589.13" fill="none" stroke="#111" stroke-linecap="round" stroke-linejoin="round" stroke-width="2.2" /><path d="M 505.62,589.13 L 506.15,588.77 L 506.83,589.40 L 507.39,589.27 L 507.94,589.04 L 508.47,588.69 L 509.10,589.00 L 509.54,588.07 L 510.11,587.97 L 510.82,588.77 L 511.39,588.68 L 511.87,588.02 L 512.42,587.76 L 513.03,587.97" fill="none" stroke="#111" stroke-linecap="round" stroke-linejoin="round" stroke-width="2.2" /><path d="M 513.03,587.97 L 513.66,588.22 L 514.11,587.38 L 514.81,588.14 L 515.38,588.03 L 515.95,587.94 L 516.40,587.05 L 517.10,587.81 L 517.62,587.42 L 518.18,587.28 L 518.67,586.64 L 519.32,587.06 L 519.85,586.75 L 520.45,586.83" fill="none" stroke="#111" stroke-linecap="round" stroke-linejoin="round" stroke-width="2.2" /><path d="M 520.45,586.83 L 521.03,586.83 L 521.63,586.92 L 522.10,586.14 L 522.80,586.91 L 523.37,586.87 L 523.86,586.24 L 524.51,586.64 L 525.06,586.47 L 525.60,586.18 L 526.17,586.06 L 526.75,586.08 L 527.32,585.96 L 527.87,585.71" fill="none" stroke="#111" stroke-linecap="round" stroke-linejoin="round" stroke-width="2.2" /><path d="M 527.87,585.71 L 528.48,585.94 L 529.03,585.67 L 529.61,585.70 L 530.13,585.26 L 530.78,585.68 L 531.35,585.65 L 531.81,584.79 L 532.44,585.09 L 533.06,585.38 L 533.50,584.43 L 534.14,584.80 L 534.66,584.36 L 535.28,584.61" fill="none" stroke="#111" stroke-linecap="round" stroke-linejoin="round" stroke-width="2.2" /><path d="M 535.28,584.61 L 535.90,584.84 L 536.35,583.98 L 537.05,584.73 L 537.52,583.96 L 538.08,583.81 L 538.72,584.24 L 539.21,583.61 L 539.82,583.78 L 540.38,583.62 L 541.01,583.96 L 541.52,583.45 L 542.08,583.29 L 542.70,583.52" fill="none" stroke="#111" stroke-linecap="round" stroke-linejoin="round" stroke-width="2.2" /><path d="M 542.70,583.52 L 543.27,583.43 L 543.78,582.96 L 544.45,583.57 L 544.94,582.91 L 545.61,583.56 L 546.11,582.96 L 546.69,582.95 L 547.28,583.00 L 547.79,582.51 L 548.37,582.48 L 549.03,583.06 L 549.58,582.80 L 550.11,582.46" fill="none" stroke="#111" stroke-linecap="round" stroke-linejoin="round" stroke-width="2.2" /><path d="M 550.11,582.46 L 550.70,582.52 L 551.20,581.89 L 551.88,582.60 L 552.41,582.27 L 552.92,581.71 L 553.51,581.82 L 554.08,581.73 L 554.70,581.95 L 555.21,581.50 L 555.80,581.53 L 556.41,581.75 L 556.99,581.74 L 557.53,581.41" fill="none" stroke="#111" stroke-linecap="round" stroke-linejoin="round" stroke-width="2.2" /><path d="M 557.53,581.41 L 558.09,581.29 L 558.73,581.67 L 559.29,581.50 L 559.76,580.70 L 560.39,581.11 L 560.93,580.77 L 561.58,581.31 L 562.05,580.48 L 562.60,580.27 L 563.28,580.97 L 563.76,580.25 L 564.39,580.55 L 564.94,580.38" fill="none" stroke="#111" stroke-linecap="round" stroke-linejoin="round" stroke-width="2.2" /><path d="M 564.94,580.38 L 565.53,580.40 L 566.14,580.61 L 566.67,580.26 L 567.21,579.97 L 567.81,580.06 L 568.40,580.15 L 568.91,579.63 L 569.49,579.60 L 570.12,580.00 L 570.63,579.43 L 571.28,579.94 L 571.84,579.78 L 572.36,579.36" fill="none" stroke="#111" stroke-linecap="round" stroke-linejoin="round" stroke-width="2.2" /><path d="M 572.36,579.36 L 572.96,579.53 L 573.55,579.58 L 574.02,578.76 L 574.58,578.61 L 575.22,579.00 L 575.84,579.34 L 576.34,578.71 L 576.91,578.65 L 577.55,579.08 L 578.12,578.97 L 578.60,578.29 L 579.18,578.25 L 579.78,578.36" fill="none" stroke="#111" stroke-linecap="round" stroke-linejoin="round" stroke-width="2.2" /><path d="M 579.78,578.36 L 580.32,578.08 L 580.86,577.82 L 581.54,578.57 L 582.12,578.52 L 582.67,578.28 L 583.14,577.49 L 583.82,578.24 L 584.38,578.03 L 584.85,577.26 L 585.43,577.26 L 586.00,577.18 L 586.59,577.23 L 587.19,577.38" fill="none" stroke="#111" stroke-linecap="round" stroke-linejoin="round" stroke-width="2.2" /><path d="M 587.19,577.38 L 587.75,577.19 L 588.29,576.90 L 588.95,577.51 L 589.50,577.28 L 590.02,576.82 L 590.67,577.34 L 591.13,576.44 L 591.80,577.15 L 592.30,576.53 L 592.94,577.00 L 593.52,576.96 L 594.03,576.40 L 594.61,576.40" fill="none" stroke="#111" stroke-linecap="round" stroke-linejoin="round" stroke-width="2.2" /><path d="M 594.61,576.40 L 595.13,576.00 L 595.77,576.45 L 596.38,576.65 L 596.93,576.44 L 597.50,576.33 L 597.99,575.65 L 598.65,576.27 L 599.18,575.93 L 599.72,575.57 L 600.31,575.69 L 600.94,576.02 L 601.48,575.76 L 602.02,575.45" fill="none" stroke="#111" stroke-linecap="round" stroke-linejoin="round" stroke-width="2.2" /><path d="M 602.02,575.45 L 602.59,575.36 L 603.19,575.50 L 603.78,575.59 L 604.31,575.19 L 604.82,574.67 L 605.45,575.02 L 606.02,574.94 L 606.53,574.43 L 607.18,575.00 L 607.67,574.26 L 608.24,574.22 L 608.84,574.40 L 609.44,574.50" fill="none" stroke="#111" stroke-linecap="round" stroke-linejoin="round" stroke-width="2.2" /><path d="M 609.44,574.50 L 610.02,574.56 L 610.63,574.77 L 611.20,574.71 L 611.74,574.37 L 612.24,573.74 L 612.90,574.40 L 613.38,573.56 L 613.99,573.83 L 614.60,574.08 L 615.13,573.68 L 615.75,574.04 L 616.28,573.63 L 616.85,573.57" fill="none" stroke="#111" stroke-linecap="round" stroke-linejoin="round" stroke-width="2.2" /><path d="M 616.85,573.57 L 617.38,573.16 L 618.01,573.53 L 618.59,573.56 L 619.12,573.15 L 619.72,573.36 L 620.26,573.02 L 620.80,572.71 L 621.38,572.68 L 621.93,572.51 L 622.52,572.55 L 623.10,572.58 L 623.74,573.08 L 624.27,572.66" fill="none" stroke="#111" stroke-linecap="round" stroke-linejoin="round" stroke-width="2.2" /><path d="M 624.27,572.66 L 624.84,572.59 L 625.45,572.87 L 625.93,572.03 L 626.51,572.02 L 627.11,572.25 L 627.71,572.35 L 628.32,572.61 L 628.87,572.37 L 629.36,571.63 L 630.00,572.19 L 630.54,571.84 L 631.16,572.17 L 631.69,571.75" fill="none" stroke="#111" stroke-linecap="round" stroke-linejoin="round" stroke-width="2.2" /><path d="M 631.69,571.75 L 632.29,572.00 L 632.87,572.00 L 633.45,571.96 L 633.96,571.42 L 634.55,571.53 L 635.16,571.78 L 635.63,570.89 L 636.25,571.20 L 636.77,570.75 L 637.44,571.50 L 638.00,571.30 L 638.52,570.87 L 639.10,570.86" fill="none" stroke="#111" stroke-linecap="round" stroke-linejoin="round" stroke-width="2.2" /><path d="M 639.10,570.86 L 639.72,571.17 L 640.25,570.78 L 640.84,570.85 L 641.34,570.19 L 641.96,570.57 L 642.55,570.66 L 643.05,570.02 L 643.66,570.31 L 644.18,569.79 L 644.81,570.24 L 645.34,569.78 L 645.96,570.19 L 646.52,569.98" fill="none" stroke="#111" stroke-linecap="round" stroke-linejoin="round" stroke-width="2.2" /><path d="M 646.52,569.98 L 647.13,570.27 L 647.61,569.43 L 648.17,569.30 L 648.76,569.34 L 649.32,569.26 L 649.92,569.37 L 650.56,569.92 L 651.13,569.89 L 651.68,569.64 L 652.27,569.73 L 652.76,569.01 L 653.36,569.17 L 653.93,569.11" fill="none" stroke="#111" stroke-linecap="round" stroke-linejoin="round" stroke-width="2.2" /><path d="M 653.93,569.11 L 654.54,569.33 L 655.11,569.29 L 655.69,569.32 L 656.17,568.46 L 656.83,569.14 L 657.40,569.14 L 657.91,568.54 L 658.49,568.50 L 659.11,568.86 L 659.68,568.86 L 660.15,567.90 L 660.82,568.65 L 661.35,568.25" fill="none" stroke="#111" stroke-linecap="round" stroke-linejoin="round" stroke-width="2.2" /><path d="M 661.35,568.25 L 661.89,567.94 L 662.45,567.78 L 663.11,568.46 L 663.59,567.66 L 664.16,567.58 L 664.82,568.29 L 665.39,568.24 L 665.96,568.13 L 666.50,567.84 L 667.09,567.90 L 667.61,567.38 L 668.18,567.35 L 668.76,567.40" fill="none" stroke="#111" stroke-linecap="round" stroke-linejoin="round" stroke-width="2.2" /><path d="M 668.76,567.40 L 669.30,567.04 L 669.95,567.65 L 670.50,567.41 L 671.06,567.24 L 671.66,567.44 L 672.15,566.69 L 672.71,566.54 L 673.36,567.16 L 673.94,567.19 L 674.50,567.06 L 675.07,567.00 L 675.62,566.76 L 676.18,566.57" fill="none" stroke="#111" stroke-linecap="round" stroke-linejoin="round" stroke-width="2.2" /><path d="M 676.18,566.57 L 676.72,566.22 L 677.27,566.03 L 677.93,566.74 L 678.51,566.76 L 679.05,566.43 L 679.56,565.81 L 680.13,565.70 L 680.79,566.52 L 681.31,565.98 L 681.83,565.49 L 682.48,566.06 L 683.05,566.06 L 683.60,565.74" fill="none" stroke="#111" stroke-linecap="round" stroke-linejoin="round" stroke-width="2.2" /><path d="M 683.60,565.74 L 684.16,565.65 L 684.71,565.41 L 685.27,565.24 L 685.84,565.15 L 686.49,565.80 L 687.06,565.78 L 687.63,565.72 L 688.12,564.92 L 688.78,565.62 L 689.32,565.34 L 689.83,564.71 L 690.40,564.66 L 691.01,564.93" fill="none" stroke="#111" stroke-linecap="round" stroke-linejoin="round" stroke-width="2.2" /><path d="M 691.01,564.93 L 691.56,564.64 L 692.15,564.80 L 692.68,564.39 L 693.33,565.00 L 693.91,565.07 L 694.39,564.18 L 694.97,564.20 L 695.55,564.16 L 696.14,564.28 L 696.75,564.61 L 697.31,564.50 L 697.89,564.51 L 698.43,564.12" fill="none" stroke="#111" stroke-linecap="round" stroke-linejoin="round" stroke-width="2.2" /><path d="M 698.43,564.12 L 699.00,564.07 L 699.54,563.72 L 700.11,563.65 L 700.74,564.14 L 701.30,564.06 L 701.83,563.62 L 702.42,563.71 L 703.01,563.85 L 703.53,563.27 L 704.08,563.03 L 704.67,563.14 L 705.30,563.68 L 705.84,563.33" fill="none" stroke="#111" stroke-linecap="round" stroke-linejoin="round" stroke-width="2.2" /><path d="M 705.84,563.33 L 706.41,563.26 L 707.00,563.39 L 707.51,562.72 L 708.09,562.80 L 708.70,563.11 L 709.22,562.54 L 709.89,563.38 L 710.38,562.61 L 711.02,563.20 L 711.54,562.67 L 712.17,563.11 L 712.71,562.84 L 713.26,562.54" fill="none" stroke="#111" stroke-linecap="round" stroke-linejoin="round" stroke-width="2.2" /><path d="M 713.26,562.54 L 713.86,562.80 L 714.44,562.84 L 714.96,562.25 L 715.58,562.68 L 716.14,562.56 L 716.69,562.22 L 717.23,561.87 L 717.78,561.64 L 718.38,561.93 L 718.92,561.57 L 719.54,561.98 L 720.09,561.65 L 720.67,561.76" fill="none" stroke="#111" stroke-linecap="round" stroke-linejoin="round" stroke-width="2.2" /><path d="M 720.67,561.76 L 721.22,561.51 L 721.83,561.76 L 722.41,561.83 L 722.92,561.16 L 723.56,561.83 L 724.13,561.74 L 724.63,561.00 L 725.19,560.84 L 725.77,560.83 L 726.42,561.59 L 726.92,560.82 L 727.49,560.75 L 728.09,561.00" fill="none" stroke="#111" stroke-linecap="round" stroke-linejoin="round" stroke-width="2.2" /><path d="M 728.09,561.00 L 728.68,561.11 L 729.27,561.24 L 729.83,561.13 L 730.35,560.59 L 730.94,560.72 L 731.54,560.91 L 732.06,560.38 L 732.69,560.87 L 733.19,560.16 L 733.83,560.79 L 734.33,559.99 L 734.93,560.22 L 735.51,560.24" fill="none" stroke="#111" stroke-linecap="round" stroke-linejoin="round" stroke-width="2.2" /><path d="M 735.51,560.24 L 736.08,560.25 L 736.66,560.25 L 737.22,560.14 L 737.74,559.57 L 738.31,559.46 L 738.97,560.29 L 739.49,559.79 L 740.07,559.79 L 740.65,559.87 L 741.20,559.54 L 741.78,559.64 L 742.37,559.78 L 742.92,559.49" fill="none" stroke="#111" stroke-linecap="round" stroke-linejoin="round" stroke-width="2.2" /><path d="M 742.92,559.49 L 743.47,559.24 L 744.10,559.71 L 744.67,559.71 L 745.16,558.79 L 745.73,558.74 L 746.36,559.26 L 746.92,559.17 L 747.50,559.21 L 748.03,558.77 L 748.63,558.94 L 749.16,558.50 L 749.79,559.08 L 750.34,558.74" fill="none" stroke="#111" stroke-linecap="round" stroke-linejoin="round" stroke-width="2.2" /><path d="M 750.34,558.74 L 750.88,558.40 L 751.52,559.04 L 752.05,558.62 L 752.65,558.85 L 753.23,558.83 L 753.73,558.13 L 754.36,558.67 L 754.93,558.60 L 755.50,558.48 L 756.01,557.82 L 756.65,558.55 L 757.22,558.41 L 757.75,558.01" fill="none" stroke="#111" stroke-linecap="round" stroke-linejoin="round" stroke-width="2.2" /><path d="M 757.75,558.01 L 758.36,558.32 L 758.94,558.33 L 759.49,558.11 L 760.02,557.69 L 760.59,557.62 L 761.21,558.08 L 761.79,558.10 L 762.28,557.22 L 762.89,557.56 L 763.50,557.89 L 764.07,557.84 L 764.56,556.96 L 765.17,557.28" fill="none" stroke="#111" stroke-linecap="round" stroke-linejoin="round" stroke-width="2.2" /><path d="M 765.17,557.28 L 765.71,556.90 L 766.35,557.63 L 766.83,556.64 L 767.49,557.44 L 768.00,556.80 L 768.62,557.24 L 769.12,556.52 L 769.74,556.91 L 770.26,556.33 L 770.83,556.30 L 771.46,556.88 L 771.99,556.35 L 772.58,556.57" fill="none" stroke="#111" stroke-linecap="round" stroke-linejoin="round" stroke-width="2.2" /><path d="M 772.58,556.57 L 773.17,556.63 L 773.69,556.13 L 774.28,556.22 L 774.83,555.95 L 775.43,556.25 L 775.98,555.99 L 776.62,556.60 L 777.14,556.01 L 777.73,556.24 L 778.25,555.66 L 778.88,556.22 L 779.42,555.84 L 780.00,555.86" fill="none" stroke="#111" stroke-linecap="round" stroke-linejoin="round" stroke-width="2.2" /><path d="M 703.00,647.17 L 703.06,649.88 L 702.94,652.60 L 702.79,655.31 L 702.74,658.02 L 702.81,660.73 L 702.67,663.44 L 703.36,666.15 L 702.64,668.86 L 703.06,671.57 L 703.36,674.28 L 703.03,676.99 L 702.68,679.70 L 702.90,682.41 L 702.73,685.12 L 703.16,687.83 L 703.24,690.55 L 702.66,693.26 L 702.67,695.97 L 702.72,698.68 L 702.69,701.39 L 702.81,704.10 L 703.33,706.81 L 702.67,709.52 L 703.25,712.23 L 703.17,714.94 L 702.68,717.65 L 702.68,720.36 L 702.70,723.07 L 702.98,725.79 L 702.83,728.50 L 702.72,731.21 L 702.83,733.92 L 703.26,736.63 L 702.73,739.34 L 702.66,742.05 L 703.28,744.76 L 703.34,747.47 L 703.30,750.18 L 703.33,752.89 L 703.18,755.60 L 703.05,758.31 L 702.80,761.02 L 702.70,763.74 L 702.82,766.45 L 702.77,769.16 L 702.84,771.87 L 702.97,774.58 L 703.06,777.29 L 703.00,780.00" fill="none" stroke="#111" stroke-dasharray="8.8 10.2" stroke-dashoffset="14.8" stroke-linecap="round" stroke-linejoin="round" stroke-width="2.0" /><path d="M 703.00,647.17 L 691.10,647.16 L 679.20,647.12 L 667.31,647.11 L 655.41,647.01 L 643.51,647.53 L 631.61,646.90 L 619.71,647.44 L 607.82,647.53 L 595.92,647.14 L 584.02,646.93 L 572.12,647.24 L 560.22,647.22 L 548.33,647.48 L 536.43,647.03 L 524.53,646.94 L 512.63,647.37 L 500.73,646.89 L 488.84,646.83 L 476.94,646.88 L 465.04,646.89 L 453.14,647.39 L 441.24,646.90 L 429.35,646.81 L 417.45,647.43 L 405.55,647.46 L 393.65,646.86 L 381.76,647.05 L 369.86,647.02 L 357.96,647.50 L 346.06,646.98 L 334.16,646.89 L 322.27,647.26 L 310.37,647.14 L 298.47,647.48 L 286.57,647.32 L 274.67,647.53 L 262.78,647.21 L 250.88,647.10 L 238.98,647.52 L 227.08,647.52 L 215.18,647.04 L 203.29,646.90 L 191.39,646.99 L 179.49,647.36 L 167.59,646.95 L 155.69,647.00 L 143.80,647.27 L 131.90,647.22 L 120.00,647.17" fill="none" stroke="#111" stroke-dasharray="10.3 10.2" stroke-dashoffset="10.1" stroke-linecap="round" stroke-linejoin="round" stroke-width="2.0" /><path d="M 698.00,647.17 L 698.67,647.31 L 699.33,647.40 L 700.00,646.84 L 700.67,647.45 L 701.33,646.89 L 702.00,647.05 L 702.67,646.84 L 703.33,646.99 L 704.00,646.83 L 704.67,647.43 L 705.33,647.22 L 706.00,646.84 L 706.67,647.16 L 707.33,647.08 L 708.00,647.17" fill="none" stroke="#111" stroke-linecap="round" stroke-linejoin="round" stroke-width="2.0" /><path d="M 703.00,642.17 L 702.87,642.84 L 703.18,643.51 L 702.70,644.17 L 702.76,644.84 L 703.02,645.51 L 702.78,646.17 L 702.67,646.84 L 702.80,647.51 L 703.26,648.17 L 703.36,648.84 L 703.12,649.51 L 703.36,650.17 L 702.67,650.84 L 702.77,651.51 L 703.00,652.17" fill="none" stroke="#111" stroke-linecap="round" stroke-linejoin="round" stroke-width="2.0" /></svg>