<?xml version="1.0" encoding="utf-8" ?>
<svg baseProfile="full" height="900" version="1.1" width="900" xmlns="http://www.w3.org/2000/svg" xmlns:ev="http://www.w3.org/2001/xml-events" xmlns:xlink="http://www.w3.org/1999/xlink"><defs /><path d="M 120.00,779.91 L 127.42,780.00 L 134.83,779.82 L 142.25,779.80 L 149.66,779.87 L 157.08,779.94 L 164.49,780.01 L 171.91,780.10 L 179.33,780.07 L 186.74,780.25 L 194.16,779.75 L 201.57,779.78 L 208.99,779.82 L 216.40,779.78 L 223.82,779.99 L 231.24,779.76 L 238.65,780.17 L 246.07,780.05 L 253.48,779.76 L 260.90,779.78 L 268.31,779.87 L 275.73,780.11 L 283.15,779.86 L 290.56,780.01 L 297.98,780.20 L 305.39,780.02 L 312.81,780.24 L 320.22,780.17 L 327.64,779.77 L 335.06,780.24 L 342.47,779.79 L 349.89,780.25 L 357.30,779.78 L 364.72,780.04 L 372.13,780.26 L 379.55,779.83 L 386.97,780.24 L 394.38,779.79 L 401.80,780.00 L 409.21,779.96 L 416.63,779.94 L 424.04,779.78 L 431.46,779.77 L 438.88,780.08 L 446.29,779.91 L 453.71,779.88 L 461.12,779.98 L 468.54,780.24 L 475.96,780.06 L 483.37,780.02 L 490.79,779.78 L 498.20,780.26 L 505.62,780.21 L 513.03,779.96 L 520.45,779.75 L 527.87,779.86 L 535.28,779.93 L 542.70,780.05 L 550.11,779.78 L 557.53,780.20 L 564.94,780.06 L 572.36,779.95 L 579.78,780.08 L 587.19,780.24 L 594.61,780.26 L 602.02,779.83 L 609.44,779.88 L 616.85,780.16 L 624.27,779.77 L 631.69,779.79 L 639.10,780.02 L 646.52,780.04 L 653.93,779.83 L 661.35,779.97 L 668.76,780.24 L 676.18,780.24 L 683.60,779.81 L 691.01,779.78 L 698.43,779.77 L 705.84,780.24 L 713.26,779.78 L 720.67,779.76 L 728.09,780.25 L 735.51,780.24 L 742.92,779.77 L 750.34,779.88 L 757.75,779.90 L 765.17,780.10 L 772.58,780.01 L 780.00,780.00" fill="none" stroke="#111" stroke-linecap="round" stroke-linejoin="round" stroke-width="2.2" /><path d="M 119.76,780.00 L 119.95,772.58 L 120.11,765.17 L 120.07,757.75 L 120.16,750.34 L 119.76,742.92 L 120.01,735.51 L 119.95,728.09 L 120.03,720.67 L 119.77,713.26 L 119.79,705.84 L 120.02,698.43 L 119.75,691.01 L 120.18,683.60 L 120.06,676.18 L 119.85,668.76 L 119.77,661.35 L 120.16,653.93 L 120.02,646.52 L 120.19,639.10 L 119.76,631.69 L 120.05,624.27 L 120.07,616.85 L 119.76,609.44 L 120.24,602.02 L 120.17,594.61 L 119.77,587.19 L 119.75,579.78 L 119.82,572.36 L 120.11,564.94 L 120.03,557.53 L 119.89,550.11 L 120.04,542.70 L 120.00,535.28 L 120.21,527.87 L 119.76,520.45 L 119.76,513.03 L 120.07,505.62 L 120.12,498.20 L 120.24,490.79 L 120.22,483.37 L 119.81,475.96 L 119.95,468.54 L 119.76,461.12 L 120.01,453.71 L 120.20,446.29 L 120.10,438.88 L 119.99,431.46 L 120.20,424.04 L 119.92,416.63 L 120.10,409.21 L 119.76,401.80 L 119.79,394.38 L 120.21,386.97 L 120.06,379.55 L 120.11,372.13 L 119.80,364.72 L 119.97,357.30 L 119.94,349.89 L 120.16,342.47 L 119.95,335.06 L 120.04,327.64 L 120.23,320.22 L 120.23,312.81 L 120.14,305.39 L 119.75,297.98 L 119.94,290.56 L 119.77,283.15 L 120.18,275.73 L 120.18,268.31 L 120.23,260.90 L 119.89,253.48 L 120.22,246.07 L 120.20,238.65 L 120.08,231.24 L 120.21,223.82 L 120.16,216.40 L 120.18,208.99 L 119.88,201.57 L 120.20,194.16 L 119.88,186.74 L 120.15,179.33 L 119.80,171.91 L 120.01,164.49 L 119.90,157.08 L 120.00,149.66 L 120.22,142.25 L 119.76,134.83 L 120.24,127.42 L 120.23,120.00" fill="none" stroke="#111" stroke-linecap="round" stroke-linejoin="round" stroke-width="2.2" /><path d="M 768.54,773.01 L 769.21,773.52 L 769.83,774.08 L 770.40,774.70 L 770.95,775.34 L 771.43,776.06 L 772.19,776.46 L 772.80,777.04 L 773.31,777.72 L 773.95,778.25 L 774.90,778.44 L 775.42,779.12 L 776.00,779.73 L 776.59,780.32" fill="none" stroke="#111" stroke-linecap="round" stroke-linejoin="round" stroke-width="2.2" /><path d="M 776.62,780.15 L 777.02,780.39 L 777.36,779.98 L 777.76,780.20 L 778.12,780.00 L 778.49,779.95 L 778.89,780.30 L 779.27,780.31 L 779.64,780.19 L 779.98,779.77" fill="none" stroke="#111" stroke-linecap="round" stroke-linejoin="round" stroke-width="2.2" /><path d="M 768.39,785.50 L 769.07,785.19 L 769.86,785.15 L 770.50,784.75 L 771.32,784.82 L 772.02,784.55 L 772.71,784.29 L 773.30,783.74 L 774.07,783.66 L 774.63,783.04 L 775.48,783.18 L 776.18,782.93 L 776.79,782.44 L 777.42,782.02" fill="none" stroke="#111" stroke-linecap="round" stroke-linejoin="round" stroke-width="2.2" /><path d="M 777.47,782.18 L 777.68,781.86 L 778.17,781.85 L 778.30,781.44 L 778.75,781.39 L 778.99,781.10 L 779.19,780.77 L 779.49,780.54 L 779.76,780.29 L 780.15,780.17" fill="none" stroke="#111" stroke-linecap="round" stroke-linejoin="round" stroke-width="2.2" /><path d="M 111.80,132.76 L 112.54,132.06 L 112.66,131.01 L 113.17,130.19 L 113.54,129.29 L 114.28,128.58 L 114.87,127.80 L 115.19,126.87 L 115.78,126.08 L 116.07,125.13 L 116.36,124.19 L 117.16,123.51 L 117.43,122.56 L 117.91,121.72" fill="none" stroke="#111" stroke-linecap="round" stroke-linejoin="round" stroke-width="2.2" /><path d="M 117.91,121.68 L 118.13,121.48 L 118.39,121.33 L 118.53,121.04 L 118.88,120.99 L 118.95,120.61 L 119.20,120.44 L 119.65,120.51 L 119.80,120.22 L 120.17,120.21" fill="none" stroke="#111" stroke-linecap="round" stroke-linejoin="round" stroke-width="2.2" /><path d="M 127.57,129.22 L 126.85,128.88 L 126.47,128.09 L 125.77,127.72 L 125.11,127.30 L 124.60,126.69 L 123.70,126.59 L 123.34,125.77 L 122.43,125.70 L 121.86,125.15 L 121.46,124.39 L 120.69,124.11 L 120.15,123.54 L 119.57,123.01" fill="none" stroke="#111" stroke-linecap="round" stroke-linejoin="round" stroke-width="2.2" /><path d="M 119.20,123.16 L 119.36,122.82 L 119.63,122.50 L 119.81,122.17 L 119.89,121.81 L 119.81,121.43 L 119.98,121.10 L 119.67,120.68 L 120.00,120.37 L 120.03,120.00" fill="none" stroke="#111" stroke-linecap="round" stroke-linejoin="round" stroke-width="2.2" /><path d="M 230.20,770.00 L 230.13,771.82 L 229.74,773.64 L 230.16,775.45 L 229.73,777.27 L 230.24,779.09 L 230.18,780.91 L 229.93,782.73 L 229.73,784.55 L 230.18,786.36 L 229.79,788.18 L 230.03,790.00" fill="none" stroke="#111" stroke-linecap="round" stroke-linejoin="round" stroke-width="2.2" /><path d="M 339.83,770.00 L 339.99,771.82 L 339.79,773.64 L 339.89,775.45 L 339.93,777.27 L 339.86,779.09 L 340.00,780.91 L 339.78,782.73 L 340.04,784.55 L 339.79,786.36 L 339.87,788.18 L 339.87,790.00" fill="none" stroke="#111" stroke-linecap="round" stroke-linejoin="round" stroke-width="2.2" /><path d="M 449.77,770.00 L 450.26,771.82 L 449.83,773.64 L 449.74,775.45 L 449.77,777.27 L 450.17,779.09 L 450.11,780.91 L 450.18,782.73 L 450.07,784.55 L 449.76,786.36 L 450.24,788.18 L 449.77,790.00" fill="none" stroke="#111" stroke-linecap="round" stroke-linejoin="round" stroke-width="2.2" /><path d="M 560.01,770.00 L 559.76,771.82 L 559.81,773.64 L 560.13,775.45 L 560.22,777.27 L 559.88,779.09 L 560.01,780.91 L 560.11,782.73 L 559.91,784.55 L 559.79,786.36 L 560.06,788.18 L 559.90,790.00" fill="none" stroke="#111" stroke-linecap="round" stroke-linejoin="round" stroke-width="2.2" /><path d="M 670.19,770.00 L 670.03,771.82 L 670.20,773.64 L 670.21,775.45 L 669.89,777.27 L 669.76,779.09 L 669.78,780.91 L 670.23,782.73 L 669.85,784.55 L 670.22,786.36 L 670.22,788.18 L 669.93,790.00" fill="none" stroke="#111" stroke-linecap="round" stroke-linejoin="round" stroke-width="2.2" /><path d="M 110.00,669.77 L 111.82,670.23 L 113.64,669.77 L 115.45,670.05 L 117.27,670.12 L 119.09,669.81 L 120.91,669.84 L 122.73,669.90 L 124.55,670.24 L 126.36,670.09 L 128.18,669.88 L 130.00,669.95" fill="none" stroke="#111" stroke-linecap="round" stroke-linejoin="round" stroke-width="2.2" /><path d="M 110.00,560.25 L 111.82,560.22 L 113.64,560.25 L 115.45,559.91 L 117.27,560.26 L 119.09,559.90 L 120.91,559.75 L 122.73,560.15 L 124.55,559.93 L 126.36,560.04 L 128.18,559.88 L 130.00,560.15" fill="none" stroke="#111" stroke-linecap="round" stroke-linejoin="round" stroke-width="2.2" /><path d="M 110.00,450.07 L 111.82,449.92 L 113.64,450.09 L 115.45,449.99 L 117.27,449.93 L 119.09,449.86 L 120.91,449.84 L 122.73,449.86 L 124.55,450.08 L 126.36,450.11 L 128.18,449.75 L 130.00,450.15" fill="none" stroke="#111" stroke-linecap="round" stroke-linejoin="round" stroke-width="2.2" /><path d="M 110.00,340.23 L 111.82,340.06 L 113.64,339.76 L 115.45,339.89 L 117.27,339.78 L 119.09,339.74 L 120.91,339.98 L 122.73,339.78 L 124.55,339.78 L 126.36,340.10 L 128.18,339.78 L 130.00,340.25" fill="none" stroke="#111" stroke-linecap="round" stroke-linejoin="round" stroke-width="2.2" /><path d="M 110.00,229.97 L 111.82,229.75 L 113.64,229.94 L 115.45,230.17 L 117.27,229.75 L 119.09,230.04 L 120.91,229.91 L 122.73,229.78 L 124.55,229.76 L 126.36,229.80 L 128.18,229.85 L 130.00,230.15" fill="none" stroke="#111" stroke-linecap="round" stroke-linejoin="round" stroke-width="2.2" /><path d="M 468.52,690.25 L 470.87,688.65 L 472.92,686.62 L 475.05,684.71 L 477.40,683.11 L 479.64,681.34 L 482.41,680.29 L 484.41,678.22 L 487.14,677.12 L 489.11,674.98" fill="none" stroke="#111" stroke-linecap="round" stroke-linejoin="round" stroke-width="2.2" /><path d="M 489.11,674.98 L 491.13,672.98 L 493.46,671.39 L 495.71,669.69 L 497.79,667.79 L 500.32,666.45 L 502.60,664.79 L 504.51,662.65 L 507.25,661.60 L 509.25,659.57" fill="none" stroke="#111" stroke-linecap="round" stroke-linejoin="round" stroke-width="2.2" /><path d="M 509.25,659.57 L 511.14,657.51 L 513.42,655.93 L 516.01,654.75 L 518.24,653.12 L 519.72,650.55 L 521.87,648.81 L 524.66,647.89 L 526.21,645.40 L 528.71,644.10" fill="none" stroke="#111" stroke-linecap="round" stroke-linejoin="round" stroke-width="2.2" /><path d="M 528.71,644.10 L 531.15,642.84 L 532.72,640.52 L 535.08,639.17 L 537.28,637.62 L 539.13,635.65 L 540.98,633.68 L 543.05,631.97 L 545.04,630.17 L 547.27,628.65" fill="none" stroke="#111" stroke-linecap="round" stroke-linejoin="round" stroke-width="2.2" /><path d="M 547.27,628.65 L 549.24,626.98 L 550.85,624.91 L 553.06,623.51 L 554.72,621.49 L 556.99,620.16 L 558.51,617.98 L 560.53,616.37 L 562.45,614.64 L 564.71,613.30" fill="none" stroke="#111" stroke-linecap="round" stroke-linejoin="round" stroke-width="2.2" /><path d="M 564.71,613.30 L 566.34,611.44 L 568.32,609.96 L 569.73,607.87 L 571.63,606.29 L 574.01,605.23 L 575.17,602.87 L 577.57,601.84 L 578.97,599.73 L 580.85,598.14" fill="none" stroke="#111" stroke-linecap="round" stroke-linejoin="round" stroke-width="2.2" /><path d="M 580.85,598.14 L 582.16,596.16 L 583.76,594.48 L 585.48,592.91 L 587.12,591.26 L 589.21,590.05 L 590.92,588.48 L 592.34,586.61 L 593.53,584.52 L 595.54,583.24" fill="none" stroke="#111" stroke-linecap="round" stroke-linejoin="round" stroke-width="2.2" /><path d="M 595.54,583.24 L 597.20,581.80 L 598.11,579.69 L 599.82,578.30 L 601.06,576.48 L 602.52,574.87 L 604.55,573.77 L 605.46,571.66 L 606.78,569.92 L 608.65,568.68" fill="none" stroke="#111" stroke-linecap="round" stroke-linejoin="round" stroke-width="2.2" /><path d="M 608.65,568.68 L 609.73,566.95 L 610.90,565.29 L 612.14,563.70 L 613.41,562.12 L 614.77,560.62 L 616.60,559.51 L 617.18,557.37 L 618.43,555.79 L 620.10,554.54" fill="none" stroke="#111" stroke-linecap="round" stroke-linejoin="round" stroke-width="2.2" /><path d="M 620.10,554.54 L 621.10,552.96 L 622.53,551.70 L 622.87,549.65 L 624.70,548.67 L 625.81,547.17 L 626.31,545.25 L 628.13,544.26 L 628.58,542.29 L 629.83,540.90" fill="none" stroke="#111" stroke-linecap="round" stroke-linejoin="round" stroke-width="2.2" /><path d="M 629.83,540.90 L 630.26,539.16 L 631.44,537.89 L 632.06,536.27 L 632.95,534.82 L 633.91,533.41 L 635.14,532.16 L 635.73,530.53 L 637.45,529.58 L 637.83,527.82" fill="none" stroke="#111" stroke-linecap="round" stroke-linejoin="round" stroke-width="2.2" /><path d="M 637.83,527.82 L 638.42,526.38 L 639.73,525.31 L 640.12,523.77 L 640.77,522.36 L 641.32,520.91 L 641.57,519.29 L 642.85,518.21 L 643.49,516.80 L 644.13,515.38" fill="none" stroke="#111" stroke-linecap="round" stroke-linejoin="round" stroke-width="2.2" /><path d="M 644.13,515.38 L 644.64,514.08 L 644.67,512.58 L 646.17,511.66 L 646.24,510.19 L 646.47,508.77 L 647.70,507.75 L 648.18,506.43 L 647.88,504.80 L 648.77,503.64" fill="none" stroke="#111" stroke-linecap="round" stroke-linejoin="round" stroke-width="2.2" /><path d="M 648.77,503.64 L 648.59,502.28 L 649.96,501.35 L 649.56,499.92 L 650.63,498.90 L 650.11,497.44 L 650.29,496.18 L 650.69,494.97 L 651.08,493.77 L 651.85,492.67" fill="none" stroke="#111" stroke-linecap="round" stroke-linejoin="round" stroke-width="2.2" /><path d="M 651.85,492.67 L 651.53,491.46 L 652.67,490.49 L 652.93,489.37 L 652.22,488.10 L 652.35,486.96 L 652.42,485.82 L 652.87,484.73 L 653.79,483.72 L 653.50,482.52" fill="none" stroke="#111" stroke-linecap="round" stroke-linejoin="round" stroke-width="2.2" /><path d="M 653.50,482.52 L 653.64,481.49 L 653.05,480.44 L 653.15,479.41 L 654.03,478.41 L 653.49,477.36 L 654.18,476.35 L 654.30,475.33 L 654.26,474.29 L 653.86,473.24" fill="none" stroke="#111" stroke-linecap="round" stroke-linejoin="round" stroke-width="2.2" /><path d="M 653.86,473.24 L 654.14,472.28 L 653.94,471.37 L 653.12,470.50 L 652.97,469.58 L 653.04,468.64 L 652.83,467.73 L 653.55,466.73 L 653.46,465.80 L 653.11,464.89" fill="none" stroke="#111" stroke-linecap="round" stroke-linejoin="round" stroke-width="2.2" /><path d="M 653.11,464.89 L 652.35,464.20 L 653.20,463.15 L 652.51,462.44 L 652.45,461.60 L 652.40,460.74 L 652.30,459.91 L 651.43,459.24 L 651.06,458.46 L 651.44,457.51" fill="none" stroke="#111" stroke-linecap="round" stroke-linejoin="round" stroke-width="2.2" /><path d="M 651.44,457.51 L 650.89,456.91 L 651.30,455.95 L 650.81,455.33 L 649.89,454.86 L 650.57,453.80 L 649.30,453.47 L 649.11,452.73 L 649.27,451.86 L 649.03,451.14" fill="none" stroke="#111" stroke-linecap="round" stroke-linejoin="round" stroke-width="2.2" /><path d="M 649.03,451.14 L 649.16,450.30 L 648.37,449.96 L 647.87,449.47 L 647.56,448.87 L 647.83,447.95 L 647.39,447.42 L 646.37,447.21 L 645.98,446.65 L 646.10,445.81" fill="none" stroke="#111" stroke-linecap="round" stroke-linejoin="round" stroke-width="2.2" /><path d="M 646.10,445.81 L 645.36,445.64 L 645.12,445.06 L 645.38,444.11 L 644.61,443.95 L 643.85,443.79 L 644.11,442.84 L 643.39,442.64 L 643.39,441.89 L 642.85,441.55" fill="none" stroke="#111" stroke-linecap="round" stroke-linejoin="round" stroke-width="2.2" /><path d="M 642.85,441.55 L 642.68,440.98 L 642.39,440.54 L 641.38,440.87 L 641.18,440.33 L 641.22,439.53 L 640.24,439.82 L 640.23,439.07 L 639.68,438.92 L 639.47,438.39" fill="none" stroke="#111" stroke-linecap="round" stroke-linejoin="round" stroke-width="2.2" /><path d="M 639.47,438.39 L 638.80,438.65 L 638.58,438.16 L 638.14,438.06 L 638.25,437.05 L 637.36,437.65 L 636.94,437.50 L 636.62,437.20 L 636.27,436.94 L 636.13,436.33" fill="none" stroke="#111" stroke-linecap="round" stroke-linejoin="round" stroke-width="2.2" /><path d="M 636.13,436.33 L 635.93,435.73 L 635.32,436.51 L 634.94,436.52 L 634.59,436.43 L 634.24,436.34 L 633.95,436.05 L 633.74,435.47 L 633.35,435.52 L 633.01,435.40" fill="none" stroke="#111" stroke-linecap="round" stroke-linejoin="round" stroke-width="2.2" /><path d="M 633.01,435.40 L 632.72,435.70 L 632.37,435.14 L 632.11,435.87 L 631.74,434.94 L 631.47,435.55 L 631.14,435.32 L 630.84,435.45 L 630.51,435.15 L 630.23,435.59" fill="none" stroke="#111" stroke-linecap="round" stroke-linejoin="round" stroke-width="2.2" /><path d="M 630.23,435.59 L 630.09,435.94 L 629.44,435.38 L 629.72,436.49 L 629.05,435.89 L 628.75,435.98 L 628.91,436.86 L 628.16,436.13 L 628.02,436.48 L 627.92,436.90" fill="none" stroke="#111" stroke-linecap="round" stroke-linejoin="round" stroke-width="2.2" /><path d="M 627.92,436.90 L 627.72,437.17 L 627.89,437.71 L 627.45,437.80 L 626.84,437.77 L 627.00,438.31 L 627.12,438.81 L 626.95,439.10 L 626.76,439.37 L 626.14,439.33" fill="none" stroke="#111" stroke-linecap="round" stroke-linejoin="round" stroke-width="2.2" /><path d="M 626.14,439.33 L 626.38,439.85 L 626.09,440.19 L 625.45,440.41 L 625.10,440.73 L 625.39,441.27 L 625.79,441.84 L 624.66,441.90 L 625.52,442.63 L 624.94,442.87" fill="none" stroke="#111" stroke-linecap="round" stroke-linejoin="round" stroke-width="2.2" /><path d="M 624.94,442.87 L 625.25,443.43 L 624.59,443.87 L 624.24,444.34 L 624.73,444.93 L 625.12,445.50 L 624.82,445.99 L 624.02,446.41 L 624.63,447.01 L 624.34,447.49" fill="none" stroke="#111" stroke-linecap="round" stroke-linejoin="round" stroke-width="2.2" /><path d="M 624.34,447.49 L 624.54,448.12 L 623.95,448.75 L 624.87,449.39 L 624.44,450.02 L 623.91,450.65 L 624.37,451.28 L 624.71,451.91 L 624.26,452.54 L 624.30,453.18" fill="none" stroke="#111" stroke-linecap="round" stroke-linejoin="round" stroke-width="2.2" /><path d="M 624.30,453.18 L 623.86,453.96 L 624.02,454.70 L 624.22,455.43 L 624.11,456.19 L 624.05,456.94 L 624.70,457.65 L 625.12,458.37 L 624.91,459.13 L 624.79,459.89" fill="none" stroke="#111" stroke-linecap="round" stroke-linejoin="round" stroke-width="2.2" /><path d="M 624.79,459.89 L 624.32,460.81 L 625.12,461.59 L 625.45,462.42 L 625.13,463.33 L 625.39,464.16 L 625.27,465.05 L 625.30,465.91 L 625.56,466.75 L 625.69,467.60" fill="none" stroke="#111" stroke-linecap="round" stroke-linejoin="round" stroke-width="2.2" /><path d="M 625.69,467.60 L 625.31,468.64 L 626.14,469.50 L 626.00,470.51 L 626.63,471.40 L 626.00,472.47 L 626.38,473.40 L 626.22,474.40 L 626.89,475.29 L 626.90,476.27" fill="none" stroke="#111" stroke-linecap="round" stroke-linejoin="round" stroke-width="2.2" /><path d="M 626.90,476.27 L 627.40,477.28 L 627.44,478.36 L 627.01,479.51 L 627.06,480.59 L 627.81,481.57 L 627.88,482.64 L 627.50,483.78 L 627.59,484.86 L 628.26,485.85" fill="none" stroke="#111" stroke-linecap="round" stroke-linejoin="round" stroke-width="2.2" /><path d="M 628.26,485.85 L 627.91,487.07 L 629.09,488.10 L 628.17,489.40 L 628.43,490.54 L 628.61,491.70 L 629.72,492.73 L 629.81,493.90 L 628.90,495.20 L 629.62,496.28" fill="none" stroke="#111" stroke-linecap="round" stroke-linejoin="round" stroke-width="2.2" /><path d="M 629.62,496.28 L 630.28,497.47 L 629.81,498.79 L 630.60,499.97 L 630.49,501.24 L 629.87,502.57 L 630.37,503.78 L 630.35,505.04 L 630.73,506.26 L 630.79,507.52" fill="none" stroke="#111" stroke-linecap="round" stroke-linejoin="round" stroke-width="2.2" /><path d="M 630.79,507.52 L 631.09,508.84 L 631.28,510.16 L 631.57,511.48 L 631.36,512.83 L 630.71,514.21 L 631.70,515.48 L 630.89,516.87 L 630.99,518.20 L 631.57,519.50" fill="none" stroke="#111" stroke-linecap="round" stroke-linejoin="round" stroke-width="2.2" /><path d="M 631.57,519.50 L 631.18,520.91 L 631.63,522.31 L 631.31,523.73 L 631.66,525.13 L 631.18,526.54 L 631.18,527.95 L 631.33,529.35 L 632.10,530.75 L 631.77,532.16" fill="none" stroke="#111" stroke-linecap="round" stroke-linejoin="round" stroke-width="2.2" /><path d="M 631.77,532.16 L 631.75,533.64 L 631.89,535.12 L 631.52,536.59 L 631.77,538.07 L 631.08,539.52 L 631.41,541.01 L 630.91,542.47 L 630.93,543.95 L 631.19,545.44" fill="none" stroke="#111" stroke-linecap="round" stroke-linejoin="round" stroke-width="2.2" /><path d="M 631.19,545.44 L 630.48,546.91 L 630.41,548.46 L 631.00,550.08 L 630.48,551.58 L 630.83,553.17 L 629.76,554.61 L 630.51,556.24 L 630.31,557.78 L 629.64,559.26" fill="none" stroke="#111" stroke-linecap="round" stroke-linejoin="round" stroke-width="2.2" /><path d="M 629.64,559.26 L 629.13,560.80 L 629.53,562.52 L 629.09,564.08 L 628.48,565.61 L 627.76,567.12 L 628.38,568.88 L 627.88,570.43 L 626.93,571.90 L 626.95,573.54" fill="none" stroke="#111" stroke-linecap="round" stroke-linejoin="round" stroke-width="2.2" /><path d="M 626.95,573.54 L 626.06,575.06 L 626.46,576.92 L 626.15,578.58 L 624.68,579.94 L 624.39,581.61 L 624.83,583.48 L 623.27,584.81 L 623.87,586.73 L 622.95,588.23" fill="none" stroke="#111" stroke-linecap="round" stroke-linejoin="round" stroke-width="2.2" /><path d="M 622.95,588.23 L 622.28,589.87 L 622.27,591.75 L 621.20,593.25 L 620.77,594.98 L 619.43,596.38 L 619.67,598.35 L 618.88,599.95 L 617.74,601.42 L 617.52,603.22" fill="none" stroke="#111" stroke-linecap="round" stroke-linejoin="round" stroke-width="2.2" /><path d="M 617.52,603.22 L 616.31,604.72 L 615.48,606.39 L 615.65,608.51 L 614.13,609.86 L 614.13,611.91 L 612.38,613.15 L 612.56,615.28 L 611.01,616.62 L 610.55,618.46" fill="none" stroke="#111" stroke-linecap="round" stroke-linejoin="round" stroke-width="2.2" /><path d="M 610.55,618.46 L 609.91,620.34 L 608.53,621.82 L 608.04,623.79 L 607.07,625.49 L 605.54,626.88 L 605.12,628.88 L 604.24,630.64 L 602.53,631.92 L 601.97,633.85" fill="none" stroke="#111" stroke-linecap="round" stroke-linejoin="round" stroke-width="2.2" /><path d="M 601.97,633.85 L 601.16,635.79 L 600.07,637.54 L 598.98,639.29 L 597.07,640.50 L 596.44,642.55 L 595.15,644.17 L 593.68,645.67 L 593.26,647.86 L 591.74,649.32" fill="none" stroke="#111" stroke-linecap="round" stroke-linejoin="round" stroke-width="2.2" /><path d="M 591.74,649.32 L 590.38,651.01 L 589.50,653.06 L 587.53,654.28 L 586.77,656.43 L 585.03,657.83 L 584.00,659.77 L 582.06,661.01 L 581.50,663.31 L 579.86,664.78" fill="none" stroke="#111" stroke-linecap="round" stroke-linejoin="round" stroke-width="2.2" /><path d="M 579.86,664.78 L 578.34,666.47 L 577.19,668.49 L 575.77,670.26 L 574.23,671.93 L 572.74,673.65 L 571.30,675.41 L 569.36,676.73 L 567.52,678.14 L 566.36,680.15" fill="none" stroke="#111" stroke-linecap="round" stroke-linejoin="round" stroke-width="2.2" /><path d="M 566.36,680.15 L 564.33,681.48 L 562.94,683.45 L 561.03,684.90 L 559.76,686.99 L 557.73,688.32 L 556.16,690.11 L 555.02,692.32 L 552.84,693.51 L 551.33,695.35" fill="none" stroke="#111" stroke-linecap="round" stroke-linejoin="round" stroke-width="2.2" /><path d="M 551.33,695.35 L 549.35,696.86 L 548.01,699.05 L 545.61,700.09 L 543.88,701.86 L 541.81,703.25 L 540.03,704.97 L 538.22,706.65 L 536.87,708.84 L 534.86,710.30" fill="none" stroke="#111" stroke-linecap="round" stroke-linejoin="round" stroke-width="2.2" /><path d="M 534.86,710.30 L 532.77,711.79 L 530.58,713.14 L 529.15,715.43 L 526.77,716.56 L 525.10,718.56 L 523.25,720.33 L 520.76,721.32 L 519.43,723.73 L 517.10,724.92" fill="none" stroke="#111" stroke-linecap="round" stroke-linejoin="round" stroke-width="2.2" /><path d="M 517.10,724.92 L 514.95,726.43 L 513.25,728.53 L 510.72,729.53 L 509.00,731.61 L 506.32,732.42 L 504.42,734.26 L 502.72,736.37 L 500.26,737.46 L 498.23,739.14" fill="none" stroke="#111" stroke-linecap="round" stroke-linejoin="round" stroke-width="2.2" /><path d="M 498.23,739.14 L 495.86,740.41 L 493.87,742.24 L 491.93,744.14 L 489.18,744.87 L 487.01,746.45 L 484.92,748.12 L 482.95,749.98 L 480.67,751.39 L 478.44,752.87" fill="none" stroke="#111" stroke-linecap="round" stroke-linejoin="round" stroke-width="2.2" /><path d="M 478.44,752.87 L 476.48,754.83 L 474.17,756.24 L 471.30,756.79 L 469.45,758.92 L 467.34,760.63 L 464.49,761.21 L 462.42,762.99 L 460.43,764.90 L 457.94,766.04" fill="none" stroke="#111" stroke-linecap="round" stroke-linejoin="round" stroke-width="2.2" /><path d="M 457.94,766.04 L 455.51,767.26 L 453.00,768.36 L 451.23,770.69 L 448.70,771.75 L 446.50,773.36 L 443.93,774.35 L 441.84,776.14 L 439.44,777.42 L 436.98,778.59" fill="none" stroke="#111" stroke-linecap="round" stroke-linejoin="round" stroke-width="2.2" /><path d="M 436.98,778.59 L 434.90,780.40 L 432.20,781.11 L 429.94,782.59 L 427.78,784.25 L 425.19,785.14 L 423.11,786.95 L 420.71,788.19 L 418.21,789.24 L 415.79,790.45" fill="none" stroke="#111" stroke-linecap="round" stroke-linejoin="round" stroke-width="2.2" /><path d="M 415.79,790.45 L 413.53,791.85 L 411.19,793.10 L 408.91,794.47 L 406.35,795.31 L 404.27,797.06 L 401.43,797.37 L 399.60,799.59 L 397.23,800.79 L 394.63,801.56" fill="none" stroke="#111" stroke-linecap="round" stroke-linejoin="round" stroke-width="2.2" /><path d="M 394.63,801.56 L 392.21,802.49 L 390.18,804.23 L 387.44,804.51 L 385.23,805.90 L 383.21,807.65 L 380.89,808.79 L 378.62,810.05 L 375.82,810.20 L 373.74,811.85" fill="none" stroke="#111" stroke-linecap="round" stroke-linejoin="round" stroke-width="2.2" /><path d="M 373.74,811.85 L 371.27,812.44 L 369.42,814.41 L 367.00,815.11 L 364.61,815.90 L 362.57,817.42 L 359.93,817.65 L 358.05,819.54 L 355.83,820.69 L 353.35,821.27" fill="none" stroke="#111" stroke-linecap="round" stroke-linejoin="round" stroke-width="2.2" /><path d="M 353.35,821.27 L 351.02,821.88 L 348.80,822.75 L 347.00,824.58 L 344.70,825.26 L 342.23,825.55 L 340.03,826.47 L 337.82,827.35 L 335.82,828.73 L 333.68,829.78" fill="none" stroke="#111" stroke-linecap="round" stroke-linejoin="round" stroke-width="2.2" /><path d="M 333.68,829.78 L 331.80,831.11 L 329.37,831.09 L 327.28,831.92 L 325.55,833.63 L 323.41,834.33 L 321.18,834.79 L 318.97,835.32 L 317.02,836.48 L 314.94,837.32" fill="none" stroke="#111" stroke-linecap="round" stroke-linejoin="round" stroke-width="2.2" /><path d="M 314.94,837.32 L 312.97,838.03 L 310.89,838.44 L 308.97,839.28 L 307.15,840.37 L 305.04,840.71 L 303.32,842.08 L 301.39,842.89 L 299.07,842.65 L 297.29,843.87" fill="none" stroke="#111" stroke-linecap="round" stroke-linejoin="round" stroke-width="2.2" /><path d="M 297.29,843.87 L 295.45,844.43 L 293.63,845.04 L 291.90,845.92 L 289.86,845.91 L 288.35,847.43 L 286.53,848.07 L 284.71,848.67 L 282.59,848.41 L 280.89,849.37" fill="none" stroke="#111" stroke-linecap="round" stroke-linejoin="round" stroke-width="2.2" /><path d="M 280.89,849.37 L 279.30,850.17 L 277.55,850.39 L 275.77,850.53 L 274.24,851.50 L 272.36,851.29 L 270.73,851.94 L 269.03,852.33 L 267.51,853.34 L 265.83,853.81" fill="none" stroke="#111" stroke-linecap="round" stroke-linejoin="round" stroke-width="2.2" /><path d="M 265.83,853.81 L 264.24,853.87 L 262.90,854.93 L 261.17,854.44 L 259.71,855.03 L 258.21,855.46 L 256.89,856.59 L 255.30,856.64 L 253.85,857.31 L 252.21,857.16" fill="none" stroke="#111" stroke-linecap="round" stroke-linejoin="round" stroke-width="2.2" /><path d="M 252.21,857.16 L 250.95,857.91 L 249.56,857.89 L 248.21,858.18 L 246.83,858.24 L 245.57,858.96 L 244.11,858.65 L 242.87,859.47 L 241.50,859.64 L 240.06,859.40" fill="none" stroke="#111" stroke-linecap="round" stroke-linejoin="round" stroke-width="2.2" /><path d="M 240.06,859.40 L 238.84,859.18 L 237.64,859.15 L 236.56,860.28 L 235.33,860.01 L 234.08,859.57 L 232.93,859.98 L 231.78,860.42 L 230.58,860.48 L 229.39,860.53" fill="none" stroke="#111" stroke-linecap="round" stroke-linejoin="round" stroke-width="2.2" /><path d="M 229.39,860.53 L 228.36,860.00 L 227.34,861.09 L 226.31,860.29 L 225.29,859.96 L 224.26,860.41 L 223.23,860.08 L 222.21,861.09 L 221.18,860.10 L 220.16,860.52" fill="none" stroke="#111" stroke-linecap="round" stroke-linejoin="round" stroke-width="2.2" /><path d="M 220.16,860.52 L 219.21,860.90 L 218.43,860.11 L 217.55,860.09 L 216.62,860.33 L 215.72,860.42 L 214.86,860.20 L 214.04,859.70 L 213.14,859.75 L 212.30,859.40" fill="none" stroke="#111" stroke-linecap="round" stroke-linejoin="round" stroke-width="2.2" /><path d="M 212.30,859.40 L 211.75,858.61 L 210.67,859.39 L 209.93,859.17 L 209.50,858.03 L 208.80,857.69 L 208.04,857.52 L 207.35,857.17 L 206.50,857.26 L 205.72,857.15" fill="none" stroke="#111" stroke-linecap="round" stroke-linejoin="round" stroke-width="2.2" /><path d="M 205.72,857.15 L 205.16,856.70 L 204.45,856.50 L 203.85,856.13 L 203.51,855.32 L 202.59,855.48 L 201.83,855.35 L 201.71,854.20 L 200.99,854.01 L 200.29,853.80" fill="none" stroke="#111" stroke-linecap="round" stroke-linejoin="round" stroke-width="2.2" /><path d="M 200.29,853.80 L 200.20,852.90 L 199.56,852.55 L 199.14,851.99 L 198.38,851.77 L 198.21,850.95 L 196.93,851.24 L 196.49,850.69 L 195.96,850.24 L 195.86,849.35" fill="none" stroke="#111" stroke-linecap="round" stroke-linejoin="round" stroke-width="2.2" /><path d="M 195.86,849.35 L 195.18,848.92 L 194.64,848.40 L 194.43,847.66 L 194.57,846.70 L 194.29,846.01 L 193.88,845.40 L 192.61,845.36 L 192.20,844.76 L 192.26,843.84" fill="none" stroke="#111" stroke-linecap="round" stroke-linejoin="round" stroke-width="2.2" /><path d="M 192.26,843.84 L 191.46,843.33 L 191.63,842.38 L 191.77,841.44 L 191.33,840.76 L 190.90,840.08 L 189.82,839.69 L 190.03,838.72 L 190.15,837.79 L 189.30,837.30" fill="none" stroke="#111" stroke-linecap="round" stroke-linejoin="round" stroke-width="2.2" /><path d="M 189.30,837.30 L 188.71,836.56 L 188.48,835.71 L 188.49,834.78 L 188.60,833.81 L 188.28,832.98 L 187.42,832.34 L 187.78,831.29 L 187.45,830.47 L 186.81,829.75" fill="none" stroke="#111" stroke-linecap="round" stroke-linejoin="round" stroke-width="2.2" /><path d="M 186.81,829.75 L 186.64,828.78 L 186.77,827.74 L 186.33,826.84 L 186.18,825.87 L 185.02,825.16 L 185.86,823.93 L 185.02,823.14 L 184.49,822.27 L 184.58,821.24" fill="none" stroke="#111" stroke-linecap="round" stroke-linejoin="round" stroke-width="2.2" /><path d="M 184.58,821.24 L 184.87,820.07 L 184.56,819.04 L 184.32,817.99 L 183.91,816.98 L 183.53,815.97 L 182.62,815.07 L 183.01,813.88 L 182.54,812.89 L 182.43,811.81" fill="none" stroke="#111" stroke-linecap="round" stroke-linejoin="round" stroke-width="2.2" /><path d="M 182.43,811.81 L 182.59,810.58 L 181.70,809.57 L 181.31,808.46 L 181.79,807.16 L 180.86,806.16 L 180.77,804.98 L 180.38,803.87 L 180.02,802.75 L 180.20,801.52" fill="none" stroke="#111" stroke-linecap="round" stroke-linejoin="round" stroke-width="2.2" /><path d="M 180.20,801.52 L 179.70,800.33 L 180.08,798.95 L 178.87,797.92 L 179.22,796.55 L 179.03,795.30 L 178.07,794.21 L 178.75,792.77 L 177.50,791.75 L 177.71,790.41" fill="none" stroke="#111" stroke-linecap="round" stroke-linejoin="round" stroke-width="2.2" /><path d="M 177.71,790.41 L 177.75,789.00 L 176.65,787.87 L 176.21,786.58 L 176.02,785.23 L 176.49,783.73 L 176.13,782.42 L 176.01,781.05 L 174.97,779.91 L 174.83,778.55" fill="none" stroke="#111" stroke-linecap="round" stroke-linejoin="round" stroke-width="2.2" /><path d="M 174.83,778.55 L 174.65,777.10 L 173.52,775.91 L 173.17,774.50 L 173.76,772.85 L 172.50,771.69 L 172.66,770.16 L 172.58,768.68 L 172.18,767.29 L 171.46,765.99" fill="none" stroke="#111" stroke-linecap="round" stroke-linejoin="round" stroke-width="2.2" /><path d="M 171.46,765.99 L 171.40,764.41 L 170.15,763.19 L 169.95,761.66 L 170.18,759.99 L 169.11,758.72 L 169.24,757.08 L 168.81,755.62 L 167.66,754.36 L 167.51,752.81" fill="none" stroke="#111" stroke-linecap="round" stroke-linejoin="round" stroke-width="2.2" /><path d="M 167.51,752.81 L 167.52,751.12 L 166.04,749.91 L 165.82,748.29 L 166.02,746.53 L 165.47,745.02 L 164.91,743.51 L 164.39,741.99 L 163.96,740.44 L 162.93,739.08" fill="none" stroke="#111" stroke-linecap="round" stroke-linejoin="round" stroke-width="2.2" /><path d="M 162.93,739.08 L 161.96,737.65 L 161.62,735.98 L 161.72,734.15 L 161.08,732.59 L 160.57,730.99 L 159.84,729.46 L 159.22,727.90 L 157.84,726.61 L 157.71,724.87" fill="none" stroke="#111" stroke-linecap="round" stroke-linejoin="round" stroke-width="2.2" /><path d="M 157.71,724.87 L 156.68,723.40 L 155.96,721.80 L 155.68,720.03 L 155.22,718.33 L 154.35,716.79 L 153.41,715.28 L 152.84,713.63 L 152.86,711.73 L 151.87,710.25" fill="none" stroke="#111" stroke-linecap="round" stroke-linejoin="round" stroke-width="2.2" /><path d="M 151.87,710.25 L 150.90,708.69 L 150.07,707.09 L 149.50,705.37 L 149.39,703.44 L 148.52,701.85 L 147.07,700.51 L 146.59,698.75 L 146.47,696.83 L 145.47,695.29" fill="none" stroke="#111" stroke-linecap="round" stroke-linejoin="round" stroke-width="2.2" /><path d="M 145.47,695.29 L 144.27,693.80 L 143.62,692.06 L 143.07,690.27 L 142.08,688.69 L 141.65,686.85 L 141.38,684.93 L 140.52,683.29 L 138.88,681.99 L 138.59,680.09" fill="none" stroke="#111" stroke-linecap="round" stroke-linejoin="round" stroke-width="2.2" /><path d="M 138.59,680.09 L 137.39,678.57 L 136.96,676.68 L 136.65,674.75 L 135.84,673.04 L 135.07,671.31 L 133.32,670.05 L 133.23,668.01 L 131.73,666.63 L 131.35,664.72" fill="none" stroke="#111" stroke-linecap="round" stroke-linejoin="round" stroke-width="2.2" /><path d="M 131.35,664.72 L 130.63,662.95 L 129.68,661.29 L 128.52,659.74 L 127.75,657.99 L 126.76,656.35 L 126.16,654.52 L 125.53,652.71 L 124.36,651.16 L 123.91,649.26" fill="none" stroke="#111" stroke-linecap="round" stroke-linejoin="round" stroke-width="2.2" /><path d="M 123.91,649.26 L 122.58,647.78 L 122.21,645.84 L 120.92,644.34 L 120.13,642.60 L 119.55,640.77 L 119.35,638.74 L 118.08,637.23 L 117.71,635.29 L 116.42,633.79" fill="none" stroke="#111" stroke-linecap="round" stroke-linejoin="round" stroke-width="2.2" /><path d="M 116.42,633.79 L 115.16,632.30 L 114.33,630.59 L 113.95,628.68 L 113.69,626.70 L 112.63,625.11 L 111.23,623.68 L 110.69,621.83 L 110.33,619.91 L 109.09,618.40" fill="none" stroke="#111" stroke-linecap="round" stroke-linejoin="round" stroke-width="2.2" /><path d="M 109.09,618.40 L 107.82,616.93 L 108.01,614.80 L 106.97,613.23 L 106.33,611.47 L 105.42,609.84 L 103.97,608.46 L 103.20,606.76 L 103.38,604.63 L 102.11,603.17" fill="none" stroke="#111" stroke-linecap="round" stroke-linejoin="round" stroke-width="2.2" /><path d="M 102.11,603.17 L 101.70,601.37 L 101.19,599.62 L 100.43,597.97 L 98.80,596.70 L 98.28,594.95 L 98.14,593.04 L 97.62,591.29 L 95.89,590.06 L 95.69,588.17" fill="none" stroke="#111" stroke-linecap="round" stroke-linejoin="round" stroke-width="2.2" /><path d="M 95.69,588.17 L 95.46,586.39 L 94.09,585.04 L 94.33,583.08 L 92.73,581.82 L 92.89,579.89 L 92.10,578.32 L 91.79,576.57 L 90.63,575.14 L 90.06,573.49" fill="none" stroke="#111" stroke-linecap="round" stroke-linejoin="round" stroke-width="2.2" /><path d="M 90.06,573.49 L 89.97,571.76 L 88.56,570.46 L 88.15,568.84 L 87.75,567.21 L 87.60,565.51 L 86.63,564.07 L 86.93,562.21 L 86.36,560.64 L 85.40,559.20" fill="none" stroke="#111" stroke-linecap="round" stroke-linejoin="round" stroke-width="2.2" /><path d="M 85.40,559.20 L 85.12,557.64 L 84.06,556.27 L 84.18,554.61 L 83.64,553.12 L 83.95,551.41 L 82.66,550.10 L 82.69,548.46 L 82.75,546.81 L 81.93,545.39" fill="none" stroke="#111" stroke-linecap="round" stroke-linejoin="round" stroke-width="2.2" /><path d="M 81.93,545.39 L 81.94,543.87 L 81.46,542.44 L 80.86,541.02 L 80.72,539.53 L 80.78,538.01 L 80.38,536.56 L 80.74,534.99 L 79.84,533.62 L 79.82,532.11" fill="none" stroke="#111" stroke-linecap="round" stroke-linejoin="round" stroke-width="2.2" /><path d="M 79.82,532.11 L 80.07,530.69 L 80.11,529.28 L 80.03,527.87 L 79.30,526.50 L 79.94,525.06 L 78.86,523.70 L 79.77,522.25 L 79.74,520.84 L 79.23,519.45" fill="none" stroke="#111" stroke-linecap="round" stroke-linejoin="round" stroke-width="2.2" /><path d="M 79.23,519.45 L 79.82,518.16 L 80.03,516.84 L 79.99,515.50 L 80.18,514.17 L 80.32,512.84 L 79.54,511.43 L 79.90,510.12 L 80.67,508.85 L 80.29,507.47" fill="none" stroke="#111" stroke-linecap="round" stroke-linejoin="round" stroke-width="2.2" /><path d="M 80.29,507.47 L 81.12,506.35 L 80.91,504.98 L 80.71,503.60 L 81.02,502.35 L 81.59,501.17 L 82.62,500.10 L 82.66,498.78 L 83.19,497.59 L 83.11,496.24" fill="none" stroke="#111" stroke-linecap="round" stroke-linejoin="round" stroke-width="2.2" /><path d="M 83.11,496.24 L 83.21,494.90 L 84.58,494.12 L 84.24,492.58 L 85.42,491.71 L 85.20,490.23 L 85.68,489.06 L 86.36,487.97 L 87.25,486.98 L 87.74,485.81" fill="none" stroke="#111" stroke-linecap="round" stroke-linejoin="round" stroke-width="2.2" /><path d="M 87.74,485.81 L 88.51,484.78 L 89.61,483.97 L 90.08,482.74 L 90.19,481.26 L 91.79,480.79 L 92.00,479.38 L 92.34,478.06 L 93.70,477.43 L 94.23,476.24" fill="none" stroke="#111" stroke-linecap="round" stroke-linejoin="round" stroke-width="2.2" /><path d="M 94.23,476.24 L 94.98,475.11 L 96.24,474.46 L 97.17,473.51 L 98.11,472.56 L 98.78,471.36 L 99.35,470.05 L 101.09,469.87 L 101.33,468.24 L 102.55,467.57" fill="none" stroke="#111" stroke-linecap="round" stroke-linejoin="round" stroke-width="2.2" /><path d="M 102.55,467.57 L 103.47,466.45 L 104.65,465.65 L 106.22,465.38 L 107.32,464.49 L 108.51,463.73 L 109.60,462.82 L 110.09,461.13 L 111.80,461.04 L 112.68,459.86" fill="none" stroke="#111" stroke-linecap="round" stroke-linejoin="round" stroke-width="2.2" /><path d="M 112.68,459.86 L 114.06,459.23 L 115.08,457.97 L 116.84,458.00 L 118.10,457.15 L 119.31,456.22 L 120.36,455.00 L 121.65,454.23 L 122.99,453.51 L 124.52,453.15" fill="none" stroke="#111" stroke-linecap="round" stroke-linejoin="round" stroke-width="2.2" /><path d="M 124.52,453.15 L 126.01,452.52 L 127.62,452.14 L 128.97,451.18 L 130.32,450.21 L 131.81,449.56 L 133.56,449.54 L 135.08,448.97 L 136.26,447.59 L 137.97,447.47" fill="none" stroke="#111" stroke-linecap="round" stroke-linejoin="round" stroke-width="2.2" /><path d="M 137.97,447.47 L 139.50,446.58 L 141.41,446.87 L 143.08,446.40 L 144.61,445.49 L 146.39,445.39 L 147.76,443.96 L 149.70,444.37 L 151.34,443.80 L 152.86,442.85" fill="none" stroke="#111" stroke-linecap="round" stroke-linejoin="round" stroke-width="2.2" /><path d="M 152.86,442.85 L 154.78,443.04 L 156.34,441.56 L 158.19,441.41 L 159.95,440.85 L 161.96,441.41 L 163.52,439.96 L 165.53,440.55 L 167.33,440.15 L 169.03,439.32" fill="none" stroke="#111" stroke-linecap="round" stroke-linejoin="round" stroke-width="2.2" /><path d="M 169.03,439.32 L 170.87,438.53 L 172.80,438.33 L 174.73,438.20 L 176.66,437.98 L 178.65,438.23 L 180.46,437.21 L 182.41,437.25 L 184.33,436.97 L 186.27,436.89" fill="none" stroke="#111" stroke-linecap="round" stroke-linejoin="round" stroke-width="2.2" /><path d="M 186.27,436.89 L 188.29,436.83 L 190.27,436.25 L 192.32,436.71 L 194.29,435.99 L 196.36,436.63 L 198.34,436.13 L 200.37,436.28 L 202.35,435.66 L 204.37,435.58" fill="none" stroke="#111" stroke-linecap="round" stroke-linejoin="round" stroke-width="2.2" /><path d="M 204.37,435.58 L 206.44,435.06 L 208.53,435.64 L 210.60,435.00 L 212.68,435.39 L 214.76,435.06 L 216.84,435.20 L 218.93,435.99 L 221.00,435.75 L 223.08,435.40" fill="none" stroke="#111" stroke-linecap="round" stroke-linejoin="round" stroke-width="2.2" /><path d="M 223.08,435.40 L 225.22,435.10 L 227.34,435.31 L 229.47,435.25 L 231.54,436.25 L 233.71,435.38 L 235.82,435.79 L 237.91,436.51 L 240.07,435.84 L 242.17,436.34" fill="none" stroke="#111" stroke-linecap="round" stroke-linejoin="round" stroke-width="2.2" /><path d="M 242.17,436.34 L 244.34,436.25 L 246.43,436.96 L 248.64,436.48 L 250.67,437.72 L 252.84,437.64 L 254.93,438.27 L 257.18,437.42 L 259.26,438.25 L 261.40,438.40" fill="none" stroke="#111" stroke-linecap="round" stroke-linejoin="round" stroke-width="2.2" /><path d="M 261.40,438.40 L 263.44,439.25 L 265.73,438.62 L 267.74,439.67 L 269.85,440.14 L 272.11,439.66 L 274.10,440.84 L 276.28,440.89 L 278.39,441.31 L 280.53,441.57" fill="none" stroke="#111" stroke-linecap="round" stroke-linejoin="round" stroke-width="2.2" /><path d="M 280.53,441.57 L 282.60,442.14 L 284.69,442.61 L 286.89,442.58 L 288.78,443.97 L 290.95,444.09 L 293.17,443.96 L 295.05,445.36 L 297.35,444.90 L 299.34,445.83" fill="none" stroke="#111" stroke-linecap="round" stroke-linejoin="round" stroke-width="2.2" /><path d="M 299.34,445.83 L 301.45,446.16 L 303.38,447.08 L 305.32,448.00 L 307.31,448.74 L 309.60,448.44 L 311.56,449.28 L 313.40,450.52 L 315.52,450.81 L 317.62,451.16" fill="none" stroke="#111" stroke-linecap="round" stroke-linejoin="round" stroke-width="2.2" /><path d="M 317.62,451.16 L 319.40,452.34 L 321.50,452.64 L 323.29,453.80 L 325.48,453.85 L 327.20,455.19 L 329.20,455.75 L 331.18,456.40 L 333.40,456.36 L 335.18,457.54" fill="none" stroke="#111" stroke-linecap="round" stroke-linejoin="round" stroke-width="2.2" /><path d="M 335.18,457.54 L 337.21,457.97 L 339.00,458.93 L 340.94,459.54 L 342.67,460.66 L 344.46,461.61 L 346.30,462.47 L 347.99,463.67 L 349.77,464.64 L 351.86,464.92" fill="none" stroke="#111" stroke-linecap="round" stroke-linejoin="round" stroke-width="2.2" /><path d="M 351.86,464.92 L 353.85,465.40 L 355.14,467.18 L 357.36,467.21 L 358.63,469.02 L 360.41,469.88 L 362.57,470.03 L 363.82,471.88 L 365.99,472.00 L 367.55,473.28" fill="none" stroke="#111" stroke-linecap="round" stroke-linejoin="round" stroke-width="2.2" /><path d="M 367.55,473.28 L 369.28,474.13 L 371.06,474.92 L 372.60,476.07 L 374.33,476.93 L 375.61,478.49 L 377.40,479.25 L 378.77,480.68 L 380.30,481.85 L 382.13,482.56" fill="none" stroke="#111" stroke-linecap="round" stroke-linejoin="round" stroke-width="2.2" /><path d="M 382.13,482.56 L 383.65,483.65 L 385.30,484.56 L 386.68,485.85 L 387.85,487.40 L 389.72,488.03 L 391.39,488.92 L 392.56,490.47 L 394.28,491.30 L 395.56,492.71" fill="none" stroke="#111" stroke-linecap="round" stroke-linejoin="round" stroke-width="2.2" /><path d="M 395.56,492.71 L 396.79,494.07 L 398.19,495.25 L 399.26,496.80 L 401.35,497.21 L 402.00,499.22 L 403.38,500.42 L 404.77,501.60 L 406.37,502.56 L 407.81,503.69" fill="none" stroke="#111" stroke-linecap="round" stroke-linejoin="round" stroke-width="2.2" /><path d="M 407.81,503.69 L 409.38,504.67 L 410.38,506.20 L 411.53,507.57 L 413.06,508.60 L 414.29,509.90 L 414.83,511.86 L 416.67,512.59 L 417.40,514.37 L 418.89,515.43" fill="none" stroke="#111" stroke-linecap="round" stroke-linejoin="round" stroke-width="2.2" /><path d="M 418.89,515.43 L 420.39,516.49 L 421.04,518.25 L 421.80,519.91 L 423.73,520.63 L 424.18,522.54 L 425.95,523.39 L 426.77,525.00 L 427.67,526.55 L 428.85,527.87" fill="none" stroke="#111" stroke-linecap="round" stroke-linejoin="round" stroke-width="2.2" /><path d="M 428.85,527.87 L 429.44,529.60 L 430.47,531.02 L 431.73,532.29 L 433.10,533.49 L 433.59,535.29 L 435.24,536.29 L 435.67,538.13 L 436.64,539.59 L 437.78,540.95" fill="none" stroke="#111" stroke-linecap="round" stroke-linejoin="round" stroke-width="2.2" /><path d="M 437.78,540.95 L 438.95,542.30 L 439.11,544.24 L 440.01,545.75 L 441.72,546.78 L 441.74,548.81 L 443.62,549.74 L 444.46,551.28 L 445.07,552.96 L 445.77,554.59" fill="none" stroke="#111" stroke-linecap="round" stroke-linejoin="round" stroke-width="2.2" /><path d="M 445.77,554.59 L 446.42,556.24 L 447.80,557.51 L 448.65,559.06 L 448.74,560.99 L 449.82,562.42 L 450.64,563.98 L 451.18,565.68 L 452.65,566.91 L 452.96,568.73" fill="none" stroke="#111" stroke-linecap="round" stroke-linejoin="round" stroke-width="2.2" /><path d="M 452.96,568.73 L 454.02,570.20 L 453.98,572.17 L 455.48,573.44 L 456.02,575.14 L 456.36,576.93 L 456.83,578.67 L 458.08,580.05 L 459.27,581.46 L 459.51,583.29" fill="none" stroke="#111" stroke-linecap="round" stroke-linejoin="round" stroke-width="2.2" /><path d="M 459.51,583.29 L 459.97,585.04 L 460.98,586.56 L 461.99,588.08 L 461.74,590.11 L 462.47,591.75 L 463.43,593.29 L 464.63,594.73 L 465.23,596.41 L 465.60,598.19" fill="none" stroke="#111" stroke-linecap="round" stroke-linejoin="round" stroke-width="2.2" /><path d="M 465.60,598.19 L 466.06,599.95 L 466.47,601.72 L 467.44,603.28 L 468.48,604.82 L 469.31,606.43 L 468.95,608.50 L 470.57,609.81 L 470.29,611.85 L 471.39,613.36" fill="none" stroke="#111" stroke-linecap="round" stroke-linejoin="round" stroke-width="2.2" /><path d="M 471.39,613.36 L 471.80,615.15 L 473.11,616.60 L 472.93,618.61 L 473.69,620.27 L 474.38,621.95 L 475.70,623.40 L 475.67,625.35 L 476.19,627.10 L 477.08,628.71" fill="none" stroke="#111" stroke-linecap="round" stroke-linejoin="round" stroke-width="2.2" /><path d="M 477.08,628.71 L 478.09,630.29 L 477.81,632.34 L 479.38,633.71 L 479.91,635.47 L 480.60,637.17 L 481.10,638.94 L 481.59,640.72 L 482.50,642.33 L 482.83,644.16" fill="none" stroke="#111" stroke-linecap="round" stroke-linejoin="round" stroke-width="2.2" /><path d="M 482.83,644.16 L 483.80,645.76 L 483.74,647.76 L 485.32,649.13 L 485.35,651.10 L 485.99,652.83 L 486.89,654.45 L 487.42,656.23 L 488.54,657.77 L 488.84,659.63" fill="none" stroke="#111" stroke-linecap="round" stroke-linejoin="round" stroke-width="2.2" /><path d="M 488.84,659.63 L 489.88,661.21 L 490.65,662.89 L 491.43,664.58 L 492.05,666.33 L 492.32,668.23 L 493.44,669.77 L 493.36,671.81 L 494.66,673.28 L 495.25,675.04" fill="none" stroke="#111" stroke-linecap="round" stroke-linejoin="round" stroke-width="2.2" /><path d="M 495.25,675.04 L 495.76,676.86 L 496.60,678.52 L 497.13,680.33 L 498.84,681.60 L 498.61,683.75 L 500.06,685.14 L 500.33,687.07 L 501.08,688.77 L 502.20,690.31" fill="none" stroke="#111" stroke-linecap="round" stroke-linejoin="round" stroke-width="2.2" /><path d="M 502.20,690.31 L 503.31,691.85 L 504.40,693.39 L 504.70,695.34 L 506.00,696.78 L 506.75,698.50 L 507.60,700.17 L 507.90,702.12 L 509.43,703.45 L 509.81,705.35" fill="none" stroke="#111" stroke-linecap="round" stroke-linejoin="round" stroke-width="2.2" /><path d="M 509.81,705.35 L 511.20,706.73 L 511.89,708.50 L 512.85,710.12 L 513.07,712.16 L 513.99,713.80 L 515.41,715.16 L 516.08,716.94 L 517.59,718.25 L 518.16,720.09" fill="none" stroke="#111" stroke-linecap="round" stroke-linejoin="round" stroke-width="2.2" /><path d="M 518.16,720.09 L 518.79,721.93 L 520.35,723.18 L 520.82,725.12 L 522.67,726.19 L 523.07,728.18 L 524.68,729.39 L 525.07,731.38 L 525.83,733.15 L 527.30,734.45" fill="none" stroke="#111" stroke-linecap="round" stroke-linejoin="round" stroke-width="2.2" /><path d="M 527.30,734.45 L 528.85,735.68 L 529.77,737.36 L 530.63,739.08 L 532.15,740.33 L 533.20,741.91 L 534.35,743.43 L 534.82,745.42 L 536.13,746.82 L 537.26,748.35" fill="none" stroke="#111" stroke-linecap="round" stroke-linejoin="round" stroke-width="2.2" /><path d="M 537.26,748.35 L 538.73,749.62 L 540.04,751.01 L 540.43,753.14 L 541.93,754.39 L 543.47,755.59 L 544.57,757.15 L 545.53,758.83 L 546.96,760.13 L 548.02,761.72" fill="none" stroke="#111" stroke-linecap="round" stroke-linejoin="round" stroke-width="2.2" /><path d="M 548.02,761.72 L 549.55,762.92 L 550.81,764.35 L 552.13,765.73 L 553.36,767.19 L 554.80,768.46 L 556.03,769.93 L 556.63,771.96 L 558.54,772.80 L 559.54,774.48" fill="none" stroke="#111" stroke-linecap="round" stroke-linejoin="round" stroke-width="2.2" /><path d="M 559.54,774.48 L 561.27,775.44 L 562.63,776.78 L 563.30,778.81 L 564.64,780.16 L 566.16,781.35 L 567.63,782.57 L 568.87,784.02 L 570.10,785.49 L 571.71,786.58" fill="none" stroke="#111" stroke-linecap="round" stroke-linejoin="round" stroke-width="2.2" /><path d="M 571.71,786.58 L 573.36,787.58 L 574.51,789.14 L 575.87,790.46 L 577.44,791.55 L 578.62,793.08 L 580.21,794.14 L 581.64,795.38 L 583.41,796.25 L 584.44,797.94" fill="none" stroke="#111" stroke-linecap="round" stroke-linejoin="round" stroke-width="2.2" /><path d="M 584.44,797.94 L 586.24,798.69 L 587.14,800.56 L 588.52,801.83 L 590.48,802.37 L 591.80,803.72 L 592.87,805.38 L 594.45,806.41 L 596.44,806.92 L 597.56,808.51" fill="none" stroke="#111" stroke-linecap="round" stroke-linejoin="round" stroke-width="2.2" /><path d="M 597.56,808.51 L 599.36,809.17 L 600.23,811.08 L 602.00,811.77 L 603.38,812.99 L 605.23,813.57 L 606.51,814.93 L 608.12,815.84 L 609.28,817.36 L 610.91,818.23" fill="none" stroke="#111" stroke-linecap="round" stroke-linejoin="round" stroke-width="2.2" /><path d="M 610.91,818.23 L 612.51,819.05 L 614.20,819.72 L 615.64,820.77 L 616.90,822.09 L 618.63,822.70 L 619.66,824.37 L 621.15,825.35 L 622.53,826.49 L 624.30,827.05" fill="none" stroke="#111" stroke-linecap="round" stroke-linejoin="round" stroke-width="2.2" /><path d="M 624.30,827.05 L 625.59,828.21 L 627.34,828.63 L 628.99,829.19 L 630.04,830.77 L 631.85,831.07 L 632.83,832.76 L 634.53,833.23 L 635.81,834.43 L 637.51,834.92" fill="none" stroke="#111" stroke-linecap="round" stroke-linejoin="round" stroke-width="2.2" /><path d="M 637.51,834.92 L 638.67,836.16 L 640.50,836.18 L 641.84,837.09 L 643.03,838.30 L 644.88,838.25 L 645.79,839.98 L 647.25,840.68 L 648.68,841.43 L 650.31,841.80" fill="none" stroke="#111" stroke-linecap="round" stroke-linejoin="round" stroke-width="2.2" /><path d="M 650.31,841.80 L 651.45,842.91 L 652.78,843.61 L 654.25,844.00 L 655.54,844.78 L 656.92,845.39 L 658.20,846.19 L 659.62,846.70 L 660.94,847.41 L 662.49,847.65" fill="none" stroke="#111" stroke-linecap="round" stroke-linejoin="round" stroke-width="2.2" /><path d="M 662.49,847.65 L 663.97,847.66 L 665.16,848.37 L 666.34,849.10 L 667.49,849.87 L 668.98,849.87 L 669.85,851.33 L 671.50,850.92 L 672.73,851.52 L 673.82,852.45" fill="none" stroke="#111" stroke-linecap="round" stroke-linejoin="round" stroke-width="2.2" /><path d="M 673.82,852.45 L 674.85,853.17 L 676.19,853.04 L 677.29,853.55 L 678.27,854.42 L 679.35,854.98 L 680.74,854.72 L 681.97,854.86 L 683.12,855.25 L 684.08,856.17" fill="none" stroke="#111" stroke-linecap="round" stroke-linejoin="round" stroke-width="2.2" /><path d="M 684.08,856.17 L 684.94,856.93 L 686.13,856.57 L 686.92,857.57 L 687.92,857.85 L 689.08,857.59 L 689.99,858.20 L 691.00,858.44 L 691.92,859.01 L 693.07,858.78" fill="none" stroke="#111" stroke-linecap="round" stroke-linejoin="round" stroke-width="2.2" /><path d="M 693.07,858.78 L 693.90,858.95 L 694.69,859.37 L 695.68,858.77 L 696.35,859.77 L 697.35,859.11 L 698.13,859.56 L 698.94,859.85 L 699.77,860.07 L 700.59,860.28" fill="none" stroke="#111" stroke-linecap="round" stroke-linejoin="round" stroke-width="2.2" /><path d="M 700.59,860.28 L 701.27,860.08 L 701.92,860.16 L 702.55,860.70 L 703.24,860.08 L 703.90,860.17 L 704.51,860.87 L 705.22,860.13 L 705.83,860.94 L 706.50,860.65" fill="none" stroke="#111" stroke-linecap="round" stroke-linejoin="round" stroke-width="2.2" /><path d="M 706.50,860.65 L 706.87,860.04 L 707.45,860.61 L 707.82,860.01 L 708.39,860.52 L 708.79,860.11 L 709.30,860.27 L 709.82,860.50 L 710.10,859.43 L 710.67,859.90" fill="none" stroke="#111" stroke-linecap="round" stroke-linejoin="round" stroke-width="2.2" /><path d="M 710.67,859.90 L 710.67,859.38 L 710.83,859.05 L 711.77,859.69 L 711.96,859.39 L 712.24,859.21 L 712.44,858.93 L 712.33,858.28 L 712.60,858.08 L 712.98,858.02" fill="none" stroke="#111" stroke-linecap="round" stroke-linejoin="round" stroke-width="2.2" /><path d="M 712.98,858.02 L 713.24,857.72 L 713.53,857.42 L 713.45,857.07 L 713.11,856.69 L 713.23,856.37 L 713.56,856.07 L 712.97,855.66 L 713.10,855.34 L 713.38,855.04" fill="none" stroke="#111" stroke-linecap="round" stroke-linejoin="round" stroke-width="2.2" /><path d="M 713.38,855.04 L 712.93,854.69 L 713.54,853.94 L 712.56,853.79 L 712.40,853.34 L 712.05,852.95 L 712.46,852.28 L 711.92,851.96 L 711.75,851.51 L 711.85,850.95" fill="none" stroke="#111" stroke-linecap="round" stroke-linejoin="round" stroke-width="2.2" /><path d="M 711.85,850.95 L 711.19,850.57 L 711.47,849.55 L 710.59,849.31 L 710.06,848.84 L 709.63,848.29 L 709.40,847.61 L 708.83,847.17 L 709.15,846.12 L 708.40,845.80" fill="none" stroke="#111" stroke-linecap="round" stroke-linejoin="round" stroke-width="2.2" /><path d="M 708.40,845.80 L 708.08,844.87 L 707.65,844.04 L 706.42,843.90 L 705.74,843.28 L 705.18,842.57 L 705.15,841.39 L 704.63,840.64 L 703.74,840.21 L 703.06,839.59" fill="none" stroke="#111" stroke-linecap="round" stroke-linejoin="round" stroke-width="2.2" /><path d="M 703.06,839.59 L 702.65,838.42 L 701.07,838.39 L 700.35,837.53 L 700.13,836.16 L 699.04,835.65 L 698.61,834.49 L 697.23,834.27 L 696.74,833.17 L 695.94,832.37" fill="none" stroke="#111" stroke-linecap="round" stroke-linejoin="round" stroke-width="2.2" /><path d="M 695.94,832.37 L 694.70,831.75 L 693.77,830.79 L 692.77,829.90 L 692.28,828.47 L 690.75,828.16 L 690.30,826.68 L 689.37,825.72 L 688.45,824.75 L 687.15,824.18" fill="none" stroke="#111" stroke-linecap="round" stroke-linejoin="round" stroke-width="2.2" /><path d="M 687.15,824.18 L 686.21,822.93 L 684.59,822.46 L 683.36,821.54 L 682.96,819.69 L 681.60,818.91 L 680.34,818.02 L 679.48,816.69 L 677.61,816.49 L 676.85,815.05" fill="none" stroke="#111" stroke-linecap="round" stroke-linejoin="round" stroke-width="2.2" /><path d="M 676.85,815.05 L 675.73,813.73 L 673.96,813.17 L 673.17,811.48 L 671.31,811.03 L 670.73,809.08 L 668.71,808.81 L 667.62,807.46 L 666.22,806.47 L 665.20,805.04" fill="none" stroke="#111" stroke-linecap="round" stroke-linejoin="round" stroke-width="2.2" /><path d="M 665.20,805.04 L 663.42,804.26 L 662.67,802.27 L 660.72,801.69 L 659.75,799.95 L 657.76,799.41 L 656.84,797.61 L 655.10,796.79 L 654.14,795.04 L 652.41,794.20" fill="none" stroke="#111" stroke-linecap="round" stroke-linejoin="round" stroke-width="2.2" /><path d="M 652.41,794.20 L 650.55,793.31 L 649.54,791.41 L 648.19,789.91 L 646.24,789.12 L 644.90,787.62 L 643.21,786.53 L 641.68,785.24 L 640.50,783.55 L 638.70,782.58" fill="none" stroke="#111" stroke-linecap="round" stroke-linejoin="round" stroke-width="2.2" /><path d="M 638.70,782.58 L 637.42,780.83 L 635.82,779.47 L 633.85,778.52 L 631.95,777.50 L 630.81,775.60 L 629.28,774.14 L 627.38,773.12 L 625.93,771.58 L 624.29,770.25" fill="none" stroke="#111" stroke-linecap="round" stroke-linejoin="round" stroke-width="2.2" /><path d="M 624.29,770.25 L 622.56,768.90 L 620.90,767.46 L 619.06,766.23 L 617.46,764.73 L 615.80,763.30 L 614.60,761.33 L 612.38,760.55 L 611.07,758.71 L 609.41,757.27" fill="none" stroke="#111" stroke-linecap="round" stroke-linejoin="round" stroke-width="2.2" /><path d="M 609.41,757.27 L 608.06,755.41 L 605.97,754.35 L 604.40,752.73 L 602.71,751.23 L 600.67,750.13 L 599.70,747.83 L 598.03,746.31 L 596.00,745.19 L 594.30,743.72" fill="none" stroke="#111" stroke-linecap="round" stroke-linejoin="round" stroke-width="2.2" /><path d="M 594.30,743.72 L 592.78,741.98 L 590.61,740.95 L 589.48,738.79 L 587.75,737.28 L 586.04,735.74 L 584.41,734.13 L 582.80,732.49 L 581.15,730.90 L 579.17,729.65" fill="none" stroke="#111" stroke-linecap="round" stroke-linejoin="round" stroke-width="2.2" /><path d="M 579.17,729.65 L 577.33,728.22 L 575.94,726.34 L 574.14,724.88 L 572.18,723.57 L 570.71,721.76 L 569.59,719.59 L 567.92,718.00 L 565.75,716.91 L 564.23,715.16" fill="none" stroke="#111" stroke-linecap="round" stroke-linejoin="round" stroke-width="2.2" /><path d="M 564.23,715.16 L 562.67,713.45 L 560.63,712.21 L 559.15,710.43 L 558.01,708.31 L 556.46,706.60 L 554.82,704.96 L 553.16,703.36 L 551.69,701.56 L 549.67,700.31" fill="none" stroke="#111" stroke-linecap="round" stroke-linejoin="round" stroke-width="2.2" /><path d="M 549.67,700.31 L 547.77,698.95 L 546.50,697.00 L 544.62,695.62 L 543.79,693.26 L 542.26,691.55 L 539.97,690.56 L 538.83,688.49 L 537.53,686.57 L 535.65,685.18" fill="none" stroke="#111" stroke-linecap="round" stroke-linejoin="round" stroke-width="2.2" /><path d="M 535.65,685.18 L 533.98,683.65 L 532.98,681.53 L 531.21,680.08 L 529.84,678.27 L 527.82,677.04 L 526.58,675.12 L 525.56,673.02 L 524.08,671.32 L 522.32,669.86" fill="none" stroke="#111" stroke-linecap="round" stroke-linejoin="round" stroke-width="2.2" /><path d="M 522.32,669.86 L 521.26,667.87 L 519.10,666.77 L 518.08,664.76 L 516.31,663.35 L 514.92,661.63 L 514.28,659.30 L 512.20,658.14 L 510.93,656.33 L 509.77,654.42" fill="none" stroke="#111" stroke-linecap="round" stroke-linejoin="round" stroke-width="2.2" /><path d="M 509.77,654.42 L 508.03,653.03 L 507.42,650.79 L 505.47,649.57 L 504.41,647.66 L 502.94,646.08 L 502.33,643.84 L 500.95,642.18 L 498.96,640.98 L 498.08,638.94" fill="none" stroke="#111" stroke-linecap="round" stroke-linejoin="round" stroke-width="2.2" /><path d="M 498.08,638.94 L 497.29,636.95 L 495.53,635.62 L 494.57,633.74 L 492.91,632.35 L 492.11,630.36 L 490.89,628.66 L 489.59,627.01 L 488.51,625.21 L 487.28,623.52" fill="none" stroke="#111" stroke-linecap="round" stroke-linejoin="round" stroke-width="2.2" /><path d="M 487.28,623.52 L 486.12,621.86 L 484.74,620.34 L 483.70,618.60 L 482.83,616.75 L 482.20,614.74 L 480.75,613.28 L 479.25,611.83 L 478.00,610.23 L 477.38,608.22" fill="none" stroke="#111" stroke-linecap="round" stroke-linejoin="round" stroke-width="2.2" /><path d="M 477.38,608.22 L 476.76,606.31 L 475.56,604.75 L 474.84,602.91 L 473.39,601.50 L 472.36,599.83 L 471.08,598.33 L 470.74,596.25 L 469.74,594.57 L 468.33,593.14" fill="none" stroke="#111" stroke-linecap="round" stroke-linejoin="round" stroke-width="2.2" /><path d="M 468.33,593.14 L 466.97,591.74 L 466.03,590.11 L 466.00,587.97 L 464.98,586.38 L 464.20,584.66 L 462.34,583.55 L 461.41,581.91 L 461.21,579.86 L 460.07,578.34" fill="none" stroke="#111" stroke-linecap="round" stroke-linejoin="round" stroke-width="2.2" /><path d="M 460.07,578.34 L 459.68,576.50 L 457.98,575.35 L 457.25,573.69 L 456.24,572.18 L 455.59,570.48 L 455.27,568.60 L 453.90,567.27 L 453.39,565.50 L 452.51,563.92" fill="none" stroke="#111" stroke-linecap="round" stroke-linejoin="round" stroke-width="2.2" /><path d="M 452.51,563.92 L 451.23,562.61 L 450.50,561.03 L 450.67,559.01 L 448.93,557.94 L 448.90,556.01 L 447.51,554.76 L 447.52,552.82 L 446.70,551.28 L 445.52,549.93" fill="none" stroke="#111" stroke-linecap="round" stroke-linejoin="round" stroke-width="2.2" /><path d="M 445.52,549.93 L 444.60,548.53 L 443.56,547.19 L 443.32,545.45 L 442.34,544.08 L 442.31,542.24 L 441.62,540.72 L 440.88,539.23 L 440.12,537.75 L 438.95,536.47" fill="none" stroke="#111" stroke-linecap="round" stroke-linejoin="round" stroke-width="2.2" /><path d="M 438.95,536.47 L 437.83,535.24 L 437.23,533.76 L 437.32,531.94 L 436.17,530.74 L 435.86,529.11 L 434.26,528.13 L 433.77,526.59 L 433.41,524.99 L 432.63,523.60" fill="none" stroke="#111" stroke-linecap="round" stroke-linejoin="round" stroke-width="2.2" /><path d="M 432.63,523.60 L 432.41,522.00 L 431.62,520.69 L 430.43,519.59 L 429.72,518.25 L 429.10,516.85 L 428.69,515.35 L 427.36,514.32 L 426.86,512.86 L 426.40,511.39" fill="none" stroke="#111" stroke-linecap="round" stroke-linejoin="round" stroke-width="2.2" /><path d="M 426.40,511.39 L 426.10,509.89 L 425.27,508.68 L 423.87,507.79 L 423.32,506.43 L 423.34,504.75 L 421.81,503.93 L 421.50,502.44 L 420.58,501.28 L 420.07,499.90" fill="none" stroke="#111" stroke-linecap="round" stroke-linejoin="round" stroke-width="2.2" /><path d="M 420.07,499.90 L 419.62,498.53 L 418.37,497.66 L 417.79,496.38 L 417.25,495.06 L 416.84,493.68 L 415.94,492.58 L 415.13,491.45 L 413.74,490.66 L 413.46,489.19" fill="none" stroke="#111" stroke-linecap="round" stroke-linejoin="round" stroke-width="2.2" /><path d="M 413.46,489.19 L 412.91,487.93 L 412.09,486.85 L 411.18,485.85 L 410.45,484.71 L 409.47,483.75 L 408.95,482.47 L 408.39,481.21 L 406.92,480.60 L 406.39,479.33" fill="none" stroke="#111" stroke-linecap="round" stroke-linejoin="round" stroke-width="2.2" /><path d="M 406.39,479.33 L 405.61,478.26 L 404.68,477.33 L 404.12,476.08 L 403.38,474.99 L 402.50,474.01 L 401.61,473.05 L 400.11,472.61 L 399.54,471.36 L 398.70,470.36" fill="none" stroke="#111" stroke-linecap="round" stroke-linejoin="round" stroke-width="2.2" /><path d="M 398.70,470.36 L 398.14,469.07 L 396.48,468.92 L 396.27,467.27 L 394.66,467.08 L 394.35,465.53 L 393.30,464.75 L 392.09,464.14 L 390.78,463.64 L 390.24,462.32" fill="none" stroke="#111" stroke-linecap="round" stroke-linejoin="round" stroke-width="2.2" /><path d="M 390.24,462.32 L 389.06,461.73 L 388.14,460.79 L 387.06,460.06 L 386.43,458.74 L 385.29,458.10 L 383.98,457.68 L 382.71,457.20 L 382.26,455.63 L 380.90,455.28" fill="none" stroke="#111" stroke-linecap="round" stroke-linejoin="round" stroke-width="2.2" /><path d="M 380.90,455.28 L 379.96,454.25 L 378.40,454.29 L 377.43,453.32 L 376.08,452.99 L 374.93,452.34 L 373.82,451.61 L 372.95,450.46 L 371.54,450.24 L 370.58,449.25" fill="none" stroke="#111" stroke-linecap="round" stroke-linejoin="round" stroke-width="2.2" /><path d="M 370.58,449.25 L 369.52,448.23 L 367.95,448.38 L 366.67,447.87 L 365.45,447.20 L 364.45,446.06 L 362.87,446.23 L 361.53,445.84 L 360.59,444.56 L 359.21,444.27" fill="none" stroke="#111" stroke-linecap="round" stroke-linejoin="round" stroke-width="2.2" /><path d="M 359.21,444.27 L 357.99,443.33 L 356.44,443.42 L 355.10,442.85 L 353.81,442.11 L 352.41,441.73 L 350.80,442.03 L 349.45,441.48 L 348.30,440.32 L 346.76,440.38" fill="none" stroke="#111" stroke-linecap="round" stroke-linejoin="round" stroke-width="2.2" /><path d="M 346.76,440.38 L 345.36,439.57 L 343.74,439.82 L 342.26,439.40 L 340.64,439.66 L 339.14,439.35 L 337.83,438.11 L 336.36,437.66 L 334.82,437.52 L 333.24,437.58" fill="none" stroke="#111" stroke-linecap="round" stroke-linejoin="round" stroke-width="2.2" /><path d="M 333.24,437.58 L 331.64,437.21 L 330.07,436.66 L 328.34,437.43 L 326.75,437.05 L 325.09,437.16 L 323.48,436.95 L 321.95,436.02 L 320.27,436.36 L 318.69,435.89" fill="none" stroke="#111" stroke-linecap="round" stroke-linejoin="round" stroke-width="2.2" /><path d="M 318.69,435.89 L 316.97,435.70 L 315.22,436.30 L 313.50,436.01 L 311.79,435.81 L 310.09,435.06 L 308.35,435.42 L 306.64,434.98 L 304.88,435.85 L 303.17,435.33" fill="none" stroke="#111" stroke-linecap="round" stroke-linejoin="round" stroke-width="2.2" /><path d="M 303.17,435.33 L 301.34,434.87 L 299.55,435.90 L 297.72,435.52 L 295.92,436.05 L 294.08,435.48 L 292.28,435.98 L 290.47,436.25 L 288.64,436.16 L 286.81,435.90" fill="none" stroke="#111" stroke-linecap="round" stroke-linejoin="round" stroke-width="2.2" /><path d="M 286.81,435.90 L 284.96,436.49 L 283.01,436.20 L 281.18,436.97 L 279.28,437.18 L 277.35,437.01 L 275.40,436.61 L 273.58,437.60 L 271.59,436.89 L 269.75,437.59" fill="none" stroke="#111" stroke-linecap="round" stroke-linejoin="round" stroke-width="2.2" /><path d="M 269.75,437.59 L 267.70,437.32 L 265.76,437.71 L 263.97,439.05 L 261.85,438.36 L 259.93,438.87 L 257.98,439.23 L 256.14,440.27 L 254.07,439.90 L 252.15,440.39" fill="none" stroke="#111" stroke-linecap="round" stroke-linejoin="round" stroke-width="2.2" /><path d="M 252.15,440.39 L 250.17,440.89 L 248.07,440.82 L 246.17,441.70 L 244.06,441.59 L 242.18,442.57 L 240.27,443.36 L 238.19,443.43 L 236.20,443.86 L 234.21,444.29" fill="none" stroke="#111" stroke-linecap="round" stroke-linejoin="round" stroke-width="2.2" /><path d="M 234.21,444.29 L 232.29,445.17 L 230.04,444.85 L 228.31,446.42 L 226.27,446.86 L 224.28,447.46 L 222.08,447.32 L 220.13,448.08 L 218.19,448.88 L 216.14,449.27" fill="none" stroke="#111" stroke-linecap="round" stroke-linejoin="round" stroke-width="2.2" /><path d="M 216.14,449.27 L 214.26,450.30 L 212.08,450.40 L 210.22,451.50 L 208.31,452.41 L 205.99,452.12 L 204.03,452.91 L 201.98,453.41 L 200.33,455.11 L 198.17,455.30" fill="none" stroke="#111" stroke-linecap="round" stroke-linejoin="round" stroke-width="2.2" /><path d="M 198.17,455.30 L 196.42,456.61 L 194.45,457.36 L 192.48,458.12 L 190.50,458.85 L 188.50,459.52 L 186.49,460.18 L 184.32,460.42 L 182.70,462.04 L 180.55,462.35" fill="none" stroke="#111" stroke-linecap="round" stroke-linejoin="round" stroke-width="2.2" /><path d="M 180.55,462.35 L 178.69,463.33 L 176.64,463.88 L 174.75,464.78 L 173.06,466.13 L 170.83,466.30 L 169.05,467.44 L 167.40,468.85 L 165.61,469.96 L 163.50,470.39" fill="none" stroke="#111" stroke-linecap="round" stroke-linejoin="round" stroke-width="2.2" /><path d="M 163.50,470.39 L 161.52,471.08 L 159.73,472.09 L 157.95,473.14 L 156.00,473.87 L 154.72,475.81 L 152.41,475.90 L 150.65,476.97 L 149.21,478.63 L 147.26,479.36" fill="none" stroke="#111" stroke-linecap="round" stroke-linejoin="round" stroke-width="2.2" /><path d="M 147.26,479.36 L 145.41,480.21 L 144.08,481.86 L 142.46,483.07 L 140.53,483.79 L 138.92,485.00 L 137.34,486.28 L 135.29,486.81 L 134.05,488.60 L 132.06,489.23" fill="none" stroke="#111" stroke-linecap="round" stroke-linejoin="round" stroke-width="2.2" /><path d="M 132.06,489.23 L 130.27,490.11 L 129.23,491.97 L 127.06,492.36 L 125.80,493.91 L 124.59,495.55 L 122.42,495.93 L 120.87,497.12 L 119.99,499.19 L 118.10,499.94" fill="none" stroke="#111" stroke-linecap="round" stroke-linejoin="round" stroke-width="2.2" /><path d="M 118.10,499.94 L 116.57,501.07 L 115.72,502.93 L 114.01,503.86 L 112.83,505.37 L 111.06,506.24 L 110.04,507.92 L 108.18,508.69 L 106.88,510.06 L 105.57,511.43" fill="none" stroke="#111" stroke-linecap="round" stroke-linejoin="round" stroke-width="2.2" /><path d="M 105.57,511.43 L 104.25,512.69 L 103.14,514.14 L 101.99,515.56 L 100.95,517.08 L 99.78,518.47 L 97.94,519.27 L 96.91,520.80 L 95.44,521.93 L 94.64,523.65" fill="none" stroke="#111" stroke-linecap="round" stroke-linejoin="round" stroke-width="2.2" /><path d="M 94.64,523.65 L 94.01,525.36 L 92.63,526.54 L 91.84,528.14 L 90.16,529.10 L 89.60,530.86 L 88.91,532.53 L 87.75,533.86 L 86.70,535.28 L 85.42,536.52" fill="none" stroke="#111" stroke-linecap="round" stroke-linejoin="round" stroke-width="2.2" /><path d="M 85.42,536.52 L 84.84,538.15 L 83.31,539.26 L 83.32,541.21 L 82.06,542.47 L 80.87,543.76 L 80.94,545.75 L 79.94,547.15 L 79.04,548.60 L 78.01,549.99" fill="none" stroke="#111" stroke-linecap="round" stroke-linejoin="round" stroke-width="2.2" /><path d="M 78.01,549.99 L 76.90,551.34 L 76.25,552.88 L 75.89,554.54 L 75.81,556.30 L 75.36,557.92 L 74.03,559.19 L 73.23,560.67 L 73.24,562.47 L 72.48,563.97" fill="none" stroke="#111" stroke-linecap="round" stroke-linejoin="round" stroke-width="2.2" /><path d="M 72.48,563.97 L 71.53,565.44 L 71.65,567.17 L 71.08,568.73 L 70.28,570.24 L 70.70,572.05 L 70.47,573.69 L 69.80,575.23 L 69.48,576.85 L 68.84,578.40" fill="none" stroke="#111" stroke-linecap="round" stroke-linejoin="round" stroke-width="2.2" /><path d="M 68.84,578.40 L 68.83,580.06 L 68.36,581.67 L 67.98,583.30 L 67.90,584.95 L 68.29,586.67 L 67.20,588.21 L 67.95,589.96 L 67.39,591.56 L 67.08,593.19" fill="none" stroke="#111" stroke-linecap="round" stroke-linejoin="round" stroke-width="2.2" /><path d="M 67.08,593.19 L 67.68,594.87 L 67.08,596.55 L 67.50,598.22 L 67.47,599.90 L 67.20,601.58 L 67.46,603.25 L 66.58,604.93 L 66.63,606.61 L 67.15,608.28" fill="none" stroke="#111" stroke-linecap="round" stroke-linejoin="round" stroke-width="2.2" /><path d="M 67.15,608.28 L 66.93,610.03 L 67.42,611.70 L 67.21,613.44 L 68.47,615.02 L 68.34,616.76 L 68.71,618.44 L 69.02,620.12 L 69.10,621.84 L 68.95,623.58" fill="none" stroke="#111" stroke-linecap="round" stroke-linejoin="round" stroke-width="2.2" /><path d="M 68.95,623.58 L 69.49,625.26 L 69.53,627.05 L 70.46,628.64 L 70.76,630.37 L 70.90,632.14 L 71.03,633.90 L 71.23,635.66 L 72.01,637.28 L 72.36,639.00" fill="none" stroke="#111" stroke-linecap="round" stroke-linejoin="round" stroke-width="2.2" /><path d="M 72.36,639.00 L 73.43,640.56 L 73.18,642.53 L 74.47,644.01 L 74.97,645.74 L 74.59,647.75 L 75.69,649.30 L 76.53,650.92 L 76.23,652.91 L 77.24,654.48" fill="none" stroke="#111" stroke-linecap="round" stroke-linejoin="round" stroke-width="2.2" /><path d="M 77.24,654.48 L 77.54,656.35 L 78.19,658.08 L 78.84,659.81 L 80.22,661.25 L 80.70,663.04 L 81.44,664.74 L 82.46,666.32 L 82.29,668.38 L 83.41,669.92" fill="none" stroke="#111" stroke-linecap="round" stroke-linejoin="round" stroke-width="2.2" /><path d="M 83.41,669.92 L 84.00,671.72 L 85.37,673.16 L 86.03,674.93 L 87.06,676.53 L 87.50,678.40 L 88.74,679.90 L 88.56,682.07 L 90.26,683.35 L 90.67,685.24" fill="none" stroke="#111" stroke-linecap="round" stroke-linejoin="round" stroke-width="2.2" /><path d="M 90.67,685.24 L 92.01,686.69 L 92.12,688.80 L 93.47,690.23 L 94.53,691.83 L 95.47,693.49 L 96.31,695.21 L 97.39,696.80 L 97.52,698.89 L 98.82,700.37" fill="none" stroke="#111" stroke-linecap="round" stroke-linejoin="round" stroke-width="2.2" /><path d="M 98.82,700.37 L 99.63,702.12 L 100.36,703.91 L 102.01,705.17 L 102.59,707.06 L 104.11,708.38 L 105.14,710.00 L 105.40,712.08 L 106.97,713.38 L 107.64,715.22" fill="none" stroke="#111" stroke-linecap="round" stroke-linejoin="round" stroke-width="2.2" /><path d="M 107.64,715.22 L 108.91,716.67 L 109.22,718.74 L 110.36,720.28 L 112.09,721.44 L 112.92,723.19 L 114.19,724.64 L 115.26,726.23 L 115.49,728.35 L 116.91,729.71" fill="none" stroke="#111" stroke-linecap="round" stroke-linejoin="round" stroke-width="2.2" /><path d="M 116.91,729.71 L 117.55,731.55 L 119.05,732.82 L 120.45,734.15 L 120.94,736.09 L 122.38,737.40 L 123.57,738.87 L 124.64,740.42 L 125.17,742.34 L 126.42,743.77" fill="none" stroke="#111" stroke-linecap="round" stroke-linejoin="round" stroke-width="2.2" /><path d="M 126.42,743.77 L 127.18,745.49 L 128.79,746.61 L 129.17,748.60 L 130.28,750.07 L 131.53,751.44 L 133.28,752.47 L 134.05,754.17 L 135.39,755.49 L 135.98,757.32" fill="none" stroke="#111" stroke-linecap="round" stroke-linejoin="round" stroke-width="2.2" /><path d="M 135.98,757.32 L 136.84,758.90 L 138.21,760.11 L 139.54,761.34 L 140.35,762.95 L 141.66,764.20 L 142.67,765.67 L 142.84,767.75 L 144.59,768.68 L 145.39,770.30" fill="none" stroke="#111" stroke-linecap="round" stroke-linejoin="round" stroke-width="2.2" /><path d="M 145.39,770.30 L 146.76,771.40 L 146.97,773.36 L 148.52,774.33 L 149.01,776.09 L 150.01,777.46 L 151.37,778.58 L 152.15,780.11 L 153.28,781.40 L 154.48,782.63" fill="none" stroke="#111" stroke-linecap="round" stroke-linejoin="round" stroke-width="2.2" /><path d="M 154.48,782.63 L 155.86,783.61 L 156.15,785.40 L 157.07,786.72 L 158.66,787.54 L 159.59,788.85 L 159.81,790.70 L 161.37,791.54 L 162.03,793.05 L 163.13,794.24" fill="none" stroke="#111" stroke-linecap="round" stroke-linejoin="round" stroke-width="2.2" /><path d="M 163.13,794.24 L 164.48,795.11 L 165.05,796.56 L 165.39,798.18 L 166.93,798.91 L 167.78,800.15 L 168.71,801.32 L 168.96,803.01 L 169.90,804.19 L 171.22,805.08" fill="none" stroke="#111" stroke-linecap="round" stroke-linejoin="round" stroke-width="2.2" /><path d="M 171.22,805.08 L 172.33,805.98 L 172.75,807.40 L 173.60,808.49 L 174.12,809.84 L 174.96,810.94 L 176.48,811.53 L 177.26,812.68 L 178.11,813.78 L 178.67,815.09" fill="none" stroke="#111" stroke-linecap="round" stroke-linejoin="round" stroke-width="2.2" /><path d="M 178.67,815.09 L 179.01,816.41 L 180.07,817.20 L 180.93,818.13 L 181.82,819.04 L 182.31,820.25 L 182.94,821.36 L 183.49,822.52 L 184.60,823.27 L 185.45,824.21" fill="none" stroke="#111" stroke-linecap="round" stroke-linejoin="round" stroke-width="2.2" /><path d="M 185.45,824.21 L 186.01,825.21 L 187.21,825.73 L 187.90,826.63 L 188.60,827.53 L 189.18,828.51 L 189.19,829.91 L 190.52,830.33 L 190.71,831.60 L 191.54,832.40" fill="none" stroke="#111" stroke-linecap="round" stroke-linejoin="round" stroke-width="2.2" /><path d="M 191.54,832.40 L 191.85,833.43 L 192.75,834.00 L 192.88,835.16 L 194.03,835.56 L 194.12,836.74 L 194.98,837.35 L 195.55,838.17 L 196.74,838.54 L 196.97,839.62" fill="none" stroke="#111" stroke-linecap="round" stroke-linejoin="round" stroke-width="2.2" /><path d="M 196.97,839.62 L 197.09,840.63 L 198.47,840.66 L 198.40,841.83 L 198.66,842.73 L 199.38,843.28 L 200.52,843.50 L 200.59,844.55 L 200.85,845.46 L 201.80,845.82" fill="none" stroke="#111" stroke-linecap="round" stroke-linejoin="round" stroke-width="2.2" /><path d="M 201.80,845.82 L 202.69,846.05 L 202.66,847.05 L 203.23,847.55 L 204.12,847.78 L 204.41,848.51 L 204.37,849.52 L 205.35,849.68 L 205.26,850.73 L 206.13,850.97" fill="none" stroke="#111" stroke-linecap="round" stroke-linejoin="round" stroke-width="2.2" /><path d="M 206.13,850.97 L 206.94,851.07 L 207.40,851.50 L 207.30,852.47 L 207.97,852.70 L 207.92,853.62 L 208.43,854.01 L 209.59,853.77 L 210.00,854.25 L 210.08,855.05" fill="none" stroke="#111" stroke-linecap="round" stroke-linejoin="round" stroke-width="2.2" /><path d="M 210.08,855.05 L 210.36,855.54 L 211.24,855.29 L 211.57,855.72 L 211.58,856.55 L 211.93,856.96 L 212.33,857.31 L 213.28,856.96 L 213.70,857.29 L 213.78,858.03" fill="none" stroke="#111" stroke-linecap="round" stroke-linejoin="round" stroke-width="2.2" /><path d="M 213.78,858.03 L 213.93,858.72 L 214.33,858.94 L 214.80,859.02 L 215.61,858.43 L 215.77,859.11 L 215.98,859.70 L 216.73,859.22 L 217.11,859.47 L 217.40,859.90" fill="none" stroke="#111" stroke-linecap="round" stroke-linejoin="round" stroke-width="2.2" /><path d="M 217.40,859.90 L 217.77,860.18 L 218.26,859.93 L 218.59,860.41 L 219.16,859.72 L 219.57,859.81 L 219.86,860.52 L 220.27,860.63 L 220.61,861.04 L 221.12,860.65" fill="none" stroke="#111" stroke-linecap="round" stroke-linejoin="round" stroke-width="2.2" /><path d="M 221.12,860.65 L 221.61,861.03 L 222.06,861.02 L 222.50,860.98 L 222.87,860.15 L 223.33,860.27 L 223.78,860.20 L 224.25,860.46 L 224.70,860.47 L 225.13,860.27" fill="none" stroke="#111" stroke-linecap="round" stroke-linejoin="round" stroke-width="2.2" /><path d="M 225.13,860.27 L 225.47,859.63 L 225.97,859.47 L 226.75,860.14 L 227.03,859.34 L 227.78,859.92 L 227.96,858.81 L 228.48,858.70 L 229.24,859.31 L 229.61,858.77" fill="none" stroke="#111" stroke-linecap="round" stroke-linejoin="round" stroke-width="2.2" /><path d="M 229.61,858.77 L 230.39,858.89 L 230.97,858.62 L 231.09,857.44 L 231.81,857.45 L 232.60,857.58 L 233.24,857.43 L 233.44,856.42 L 234.32,856.72 L 234.75,856.16" fill="none" stroke="#111" stroke-linecap="round" stroke-linejoin="round" stroke-width="2.2" /><path d="M 234.75,856.16 L 235.12,855.28 L 236.26,855.62 L 236.46,854.47 L 237.71,855.00 L 237.76,853.61 L 238.43,853.20 L 239.62,853.64 L 239.74,852.36 L 240.71,852.44" fill="none" stroke="#111" stroke-linecap="round" stroke-linejoin="round" stroke-width="2.2" /><path d="M 240.71,852.44 L 241.21,851.50 L 242.14,851.20 L 242.82,850.53 L 243.79,850.28 L 244.34,849.43 L 245.66,849.68 L 246.13,848.72 L 247.21,848.63 L 247.67,847.63" fill="none" stroke="#111" stroke-linecap="round" stroke-linejoin="round" stroke-width="2.2" /><path d="M 247.67,847.63 L 248.32,846.65 L 249.19,845.96 L 250.49,845.86 L 251.60,845.50 L 251.84,843.95 L 253.36,844.15 L 253.91,843.02 L 254.74,842.28 L 255.75,841.78" fill="none" stroke="#111" stroke-linecap="round" stroke-linejoin="round" stroke-width="2.2" /><path d="M 255.75,841.78 L 256.71,840.92 L 258.08,840.60 L 258.53,839.04 L 259.56,838.27 L 260.60,837.51 L 262.07,837.34 L 262.72,836.05 L 263.78,835.32 L 265.06,834.89" fill="none" stroke="#111" stroke-linecap="round" stroke-linejoin="round" stroke-width="2.2" /><path d="M 265.06,834.89 L 266.05,833.75 L 267.68,833.48 L 268.96,832.75 L 269.55,831.07 L 271.13,830.73 L 272.14,829.63 L 273.19,828.58 L 274.84,828.33 L 275.70,827.02" fill="none" stroke="#111" stroke-linecap="round" stroke-linejoin="round" stroke-width="2.2" /><path d="M 275.70,827.02 L 276.70,825.60 L 278.06,824.64 L 279.54,823.86 L 281.34,823.52 L 282.50,822.31 L 283.99,821.54 L 284.68,819.69 L 286.22,818.99 L 287.69,818.20" fill="none" stroke="#111" stroke-linecap="round" stroke-linejoin="round" stroke-width="2.2" /><path d="M 287.69,818.20 L 289.45,817.49 L 290.73,816.12 L 292.42,815.32 L 293.64,813.87 L 295.43,813.22 L 296.42,811.45 L 297.86,810.30 L 299.81,809.86 L 301.07,808.47" fill="none" stroke="#111" stroke-linecap="round" stroke-linejoin="round" stroke-width="2.2" /><path d="M 301.07,808.47 L 303.03,807.75 L 304.12,805.81 L 305.86,804.78 L 307.67,803.84 L 308.95,802.16 L 310.56,800.96 L 312.51,800.22 L 313.97,798.79 L 315.81,797.90" fill="none" stroke="#111" stroke-linecap="round" stroke-linejoin="round" stroke-width="2.2" /><path d="M 315.81,797.90 L 317.71,796.80 L 319.15,795.06 L 321.21,794.19 L 322.73,792.57 L 324.40,791.14 L 326.75,790.68 L 328.33,789.13 L 330.39,788.26 L 331.84,786.53" fill="none" stroke="#111" stroke-linecap="round" stroke-linejoin="round" stroke-width="2.2" /><path d="M 331.84,786.53 L 334.06,785.62 L 335.65,783.81 L 337.91,782.96 L 339.51,781.16 L 341.70,780.22 L 343.57,778.80 L 344.95,776.70 L 347.48,776.24 L 349.07,774.43" fill="none" stroke="#111" stroke-linecap="round" stroke-linejoin="round" stroke-width="2.2" /><path d="M 349.07,774.43 L 351.39,773.42 L 353.23,771.72 L 355.32,770.38 L 356.95,768.38 L 359.16,767.23 L 361.02,765.56 L 363.06,764.14 L 365.06,762.68 L 367.38,761.67" fill="none" stroke="#111" stroke-linecap="round" stroke-linejoin="round" stroke-width="2.2" /><path d="M 367.38,761.67 L 369.81,760.60 L 371.44,758.40 L 374.00,757.51 L 375.90,755.69 L 378.33,754.63 L 380.12,752.65 L 382.32,751.25 L 384.52,749.87 L 386.60,748.30" fill="none" stroke="#111" stroke-linecap="round" stroke-linejoin="round" stroke-width="2.2" /><path d="M 386.60,748.30 L 388.63,746.49 L 391.17,745.41 L 392.96,743.25 L 395.70,742.46 L 397.38,740.15 L 399.57,738.56 L 401.84,737.11 L 404.08,735.59 L 406.54,734.39" fill="none" stroke="#111" stroke-linecap="round" stroke-linejoin="round" stroke-width="2.2" /><path d="M 406.54,734.39 L 409.04,733.13 L 411.35,731.59 L 413.34,729.59 L 415.53,727.87 L 418.05,726.63 L 419.84,724.34 L 422.58,723.41 L 424.46,721.27 L 426.99,720.03" fill="none" stroke="#111" stroke-linecap="round" stroke-linejoin="round" stroke-width="2.2" /><path d="M 426.99,720.03 L 429.34,718.46 L 431.76,716.99 L 433.89,715.09 L 436.21,713.49 L 438.65,712.03 L 440.98,710.43 L 443.12,708.57 L 445.10,706.48 L 447.73,705.29" fill="none" stroke="#111" stroke-linecap="round" stroke-linejoin="round" stroke-width="2.2" /><path d="M 447.73,705.29 L 449.75,703.22 L 452.64,702.35 L 454.97,700.70 L 457.27,699.02 L 459.56,697.32 L 461.68,695.38 L 464.21,694.02 L 466.17,691.87 L 468.52,690.25" fill="none" stroke="#111" stroke-linecap="round" stroke-linejoin="round" stroke-width="2.2" /></svg>