<?xml version="1.0" encoding="utf-8" ?>
<svg baseProfile="full" height="900" version="1.1" width="900" xmlns="http://www.w3.org/2000/svg" xmlns:ev="http://www.w3.org/2001/xml-events" xmlns:xlink="http://www.w3.org/1999/xlink"><defs /><path d="M 120.00,779.76 L 127.42,779.95 L 134.83,780.11 L 142.25,780.07 L 149.66,780.16 L 157.08,779.76 L 164.49,780.01 L 171.91,779.95 L 179.33,780.03 L 186.74,779.77 L 194.16,779.79 L 201.57,780.02 L 208.99,779.75 L 216.40,780.18 L 223.82,780.06 L 231.24,779.85 L 238.65,779.77 L 246.07,780.16 L 253.48,780.02 L 260.90,780.19 L 268.31,779.76 L 275.73,780.05 L 283.15,780.07 L 290.56,779.76 L 297.98,780.24 L 305.39,780.17 L 312.81,779.77 L 320.22,779.75 L 327.64,779.82 L 335.06,780.11 L 342.47,780.03 L 349.89,779.89 L 357.30,780.04 L 364.72,780.00 L 372.13,780.21 L 379.55,779.76 L 386.97,779.76 L 394.38,780.07 L 401.80,780.12 L 409.21,780.24 L 416.63,780.22 L 424.04,779.81 L 431.46,779.95 L 438.88,779.76 L 446.29,780.01 L 453.71,780.20 L 461.12,780.10 L 468.54,779.99 L 475.96,780.20 L 483.37,779.92 L 490.79,780.10 L 498.20,779.76 L 505.62,779.79 L 513.03,780.21 L 520.45,780.06 L 527.87,780.11 L 535.28,779.80 L 542.70,779.97 L 550.11,779.94 L 557.53,780.16 L 564.94,779.95 L 572.36,780.04 L 579.78,780.23 L 587.19,780.23 L 594.61,780.14 L 602.02,779.75 L 609.44,779.94 L 616.85,779.77 L 624.27,780.18 L 631.69,780.18 L 639.10,780.23 L 646.52,779.89 L 653.93,780.22 L 661.35,780.20 L 668.76,780.08 L 676.18,780.21 L 683.60,780.16 L 691.01,780.18 L 698.43,779.88 L 705.84,780.20 L 713.26,779.88 L 720.67,780.15 L 728.09,779.80 L 735.51,780.01 L 742.92,779.90 L 750.34,780.00 L 757.75,780.22 L 765.17,779.76 L 772.58,780.24 L 780.00,780.23" fill="none" stroke="#111" stroke-linecap="round" stroke-linejoin="round" stroke-width="2.2" /><path d="M 119.94,780.00 L 120.16,772.58 L 120.01,765.17 L 119.76,757.75 L 119.76,750.34 L 120.17,742.92 L 120.13,735.51 L 119.85,728.09 L 120.18,720.67 L 119.93,713.26 L 119.77,705.84 L 120.23,698.43 L 119.84,691.01 L 120.26,683.60 L 120.24,676.18 L 119.76,668.76 L 119.84,661.35 L 119.80,653.93 L 120.22,646.52 L 120.15,639.10 L 119.93,631.69 L 120.24,624.27 L 120.12,616.85 L 120.23,609.44 L 120.07,602.02 L 120.24,594.61 L 120.16,587.19 L 120.08,579.78 L 120.19,572.36 L 119.85,564.94 L 119.75,557.53 L 120.25,550.11 L 120.03,542.70 L 119.88,535.28 L 120.19,527.87 L 120.21,520.45 L 120.25,513.03 L 119.77,505.62 L 119.82,498.20 L 119.76,490.79 L 120.25,483.37 L 120.24,475.96 L 120.24,468.54 L 120.20,461.12 L 119.95,453.71 L 119.80,446.29 L 120.01,438.88 L 120.04,431.46 L 119.83,424.04 L 120.20,416.63 L 119.98,409.21 L 119.74,401.80 L 119.78,394.38 L 119.84,386.97 L 120.11,379.55 L 120.22,372.13 L 119.78,364.72 L 119.75,357.30 L 119.79,349.89 L 120.23,342.47 L 120.17,335.06 L 119.91,327.64 L 119.88,320.22 L 119.98,312.81 L 119.90,305.39 L 119.77,297.98 L 119.76,290.56 L 120.09,283.15 L 119.92,275.73 L 119.86,268.31 L 120.21,260.90 L 119.82,253.48 L 120.19,246.07 L 120.06,238.65 L 120.11,231.24 L 119.81,223.82 L 120.15,216.40 L 120.17,208.99 L 120.23,201.57 L 119.93,194.16 L 120.25,186.74 L 119.85,179.33 L 119.78,171.91 L 119.93,164.49 L 120.06,157.08 L 119.79,149.66 L 120.04,142.25 L 119.87,134.83 L 119.75,127.42 L 119.83,120.00" fill="none" stroke="#111" stroke-linecap="round" stroke-linejoin="round" stroke-width="2.2" /><path d="M 767.24,771.80 L 767.94,772.54 L 768.99,772.66 L 769.81,773.17 L 770.71,773.54 L 771.42,774.28 L 772.20,774.87 L 773.13,775.19 L 773.92,775.78 L 774.87,776.07 L 775.81,776.36 L 776.49,777.16 L 777.44,777.43 L 778.28,777.91" fill="none" stroke="#111" stroke-linecap="round" stroke-linejoin="round" stroke-width="2.2" /><path d="M 778.32,777.91 L 778.52,778.13 L 778.67,778.39 L 778.96,778.53 L 779.01,778.88 L 779.39,778.95 L 779.56,779.20 L 779.49,779.65 L 779.78,779.80 L 779.79,780.17" fill="none" stroke="#111" stroke-linecap="round" stroke-linejoin="round" stroke-width="2.2" /><path d="M 770.78,787.57 L 771.12,786.85 L 771.91,786.47 L 772.28,785.77 L 772.70,785.11 L 773.31,784.60 L 773.41,783.70 L 774.23,783.34 L 774.30,782.43 L 774.85,781.86 L 775.61,781.46 L 775.89,780.69 L 776.46,780.15 L 776.99,779.57" fill="none" stroke="#111" stroke-linecap="round" stroke-linejoin="round" stroke-width="2.2" /><path d="M 776.84,779.20 L 777.18,779.36 L 777.50,779.63 L 777.83,779.81 L 778.19,779.89 L 778.57,779.81 L 778.90,779.98 L 779.32,779.67 L 779.63,780.00 L 780.00,780.03" fill="none" stroke="#111" stroke-linecap="round" stroke-linejoin="round" stroke-width="2.2" /><path d="M 113.95,131.76 L 114.35,131.09 L 114.82,130.47 L 115.19,129.77 L 115.67,129.15 L 116.23,128.59 L 116.55,127.86 L 117.33,127.46 L 117.40,126.55 L 117.98,126.00 L 118.73,125.58 L 118.96,124.78 L 119.32,124.09 L 119.68,123.38" fill="none" stroke="#111" stroke-linecap="round" stroke-linejoin="round" stroke-width="2.2" /><path d="M 119.69,123.51 L 120.08,123.13 L 119.66,122.73 L 119.74,122.34 L 120.04,121.96 L 119.81,121.56 L 119.98,121.17 L 120.19,120.79 L 120.11,120.40 L 120.18,120.01" fill="none" stroke="#111" stroke-linecap="round" stroke-linejoin="round" stroke-width="2.2" /><path d="M 130.12,131.71 L 129.54,131.02 L 129.19,130.12 L 128.62,129.41 L 127.85,128.90 L 127.07,128.41 L 126.53,127.67 L 125.86,127.07 L 125.16,126.49 L 124.57,125.82 L 123.95,125.16 L 123.37,124.47 L 122.72,123.85 L 122.40,122.91" fill="none" stroke="#111" stroke-linecap="round" stroke-linejoin="round" stroke-width="2.2" /><path d="M 122.16,123.11 L 122.02,122.69 L 121.70,122.41 L 121.43,122.08 L 121.46,121.54 L 120.86,121.46 L 120.76,121.01 L 120.45,120.72 L 120.05,120.49 L 119.89,120.09" fill="none" stroke="#111" stroke-linecap="round" stroke-linejoin="round" stroke-width="2.2" /><path d="M 230.21,770.00 L 230.26,771.82 L 230.23,773.64 L 229.94,775.45 L 230.22,777.27 L 229.77,779.09 L 229.77,780.91 L 229.95,782.73 L 230.07,784.55 L 230.25,786.36 L 229.80,788.18 L 230.08,790.00" fill="none" stroke="#111" stroke-linecap="round" stroke-linejoin="round" stroke-width="2.2" /><path d="M 340.11,770.00 L 340.21,771.82 L 340.25,773.64 L 339.89,775.45 L 340.25,777.27 L 339.86,779.09 L 339.75,780.91 L 340.15,782.73 L 340.06,784.55 L 339.93,786.36 L 340.04,788.18 L 340.24,790.00" fill="none" stroke="#111" stroke-linecap="round" stroke-linejoin="round" stroke-width="2.2" /><path d="M 450.24,770.00 L 450.26,771.82 L 449.76,773.64 L 450.22,775.45 L 450.12,777.27 L 450.20,779.09 L 450.19,780.91 L 450.08,782.73 L 450.25,784.55 L 450.21,786.36 L 450.18,788.18 L 449.82,790.00" fill="none" stroke="#111" stroke-linecap="round" stroke-linejoin="round" stroke-width="2.2" /><path d="M 560.20,770.00 L 560.14,771.82 L 560.20,773.64 L 560.25,775.45 L 560.06,777.27 L 560.23,779.09 L 560.14,780.91 L 559.82,782.73 L 559.98,784.55 L 560.14,786.36 L 559.76,788.18 L 560.05,790.00" fill="none" stroke="#111" stroke-linecap="round" stroke-linejoin="round" stroke-width="2.2" /><path d="M 670.10,770.00 L 670.21,771.82 L 669.93,773.64 L 670.12,775.45 L 669.92,777.27 L 670.24,779.09 L 670.26,780.91 L 669.75,782.73 L 669.97,784.55 L 670.10,786.36 L 669.75,788.18 L 669.92,790.00" fill="none" stroke="#111" stroke-linecap="round" stroke-linejoin="round" stroke-width="2.2" /><path d="M 110.00,670.21 L 111.82,669.78 L 113.64,669.75 L 115.45,670.18 L 117.27,670.17 L 119.09,670.21 L 120.91,670.04 L 122.73,670.09 L 124.55,669.75 L 126.36,670.25 L 128.18,669.92 L 130.00,669.76" fill="none" stroke="#111" stroke-linecap="round" stroke-linejoin="round" stroke-width="2.2" /><path d="M 110.00,559.77 L 111.82,560.22 L 113.64,559.77 L 115.45,559.97 L 117.27,560.10 L 119.09,559.76 L 120.91,559.86 L 122.73,559.78 L 124.55,560.23 L 126.36,559.76 L 128.18,560.21 L 130.00,560.08" fill="none" stroke="#111" stroke-linecap="round" stroke-linejoin="round" stroke-width="2.2" /><path d="M 110.00,449.83 L 111.82,449.76 L 113.64,449.91 L 115.45,450.23 L 117.27,449.75 L 119.09,449.85 L 120.91,449.83 L 122.73,449.86 L 124.55,449.86 L 126.36,450.02 L 128.18,449.79 L 130.00,450.21" fill="none" stroke="#111" stroke-linecap="round" stroke-linejoin="round" stroke-width="2.2" /><path d="M 110.00,339.83 L 111.82,339.77 L 113.64,339.77 L 115.45,339.95 L 117.27,339.93 L 119.09,340.23 L 120.91,339.94 L 122.73,339.93 L 124.55,340.16 L 126.36,340.25 L 128.18,339.77 L 130.00,339.76" fill="none" stroke="#111" stroke-linecap="round" stroke-linejoin="round" stroke-width="2.2" /><path d="M 110.00,229.81 L 111.82,229.77 L 113.64,229.88 L 115.45,230.17 L 117.27,229.97 L 119.09,230.12 L 120.91,229.95 L 122.73,230.04 L 124.55,229.75 L 126.36,229.75 L 128.18,230.24 L 130.00,229.90" fill="none" stroke="#111" stroke-linecap="round" stroke-linejoin="round" stroke-width="2.2" /><path d="M 120.00,737.83 L 120.57,737.83 L 121.15,737.96 L 121.67,737.47 L 122.26,737.66 L 122.79,737.31 L 123.43,738.04 L 123.97,737.76 L 124.55,737.83 L 125.09,737.54 L 125.61,737.13 L 126.13,736.64 L 126.74,737.02 L 127.37,737.63 L 127.93,737.56 L 128.49,737.49 L 129.00,736.88 L 129.57,736.88" fill="none" stroke="#111" stroke-linecap="round" stroke-linejoin="round" stroke-width="2.2" /><path d="M 129.57,736.88 L 130.10,736.54 L 130.64,736.24 L 131.28,736.95 L 131.80,736.47 L 132.43,737.13 L 132.89,736.05 L 133.47,736.17 L 134.11,736.88 L 134.58,735.83 L 135.21,736.48 L 135.78,736.53 L 136.28,735.87 L 136.85,735.86 L 137.39,735.59 L 137.96,735.60 L 138.56,735.94 L 139.13,735.92" fill="none" stroke="#111" stroke-linecap="round" stroke-linejoin="round" stroke-width="2.2" /><path d="M 139.13,735.92 L 139.68,735.70 L 140.29,736.13 L 140.81,735.66 L 141.43,736.18 L 141.91,735.34 L 142.51,735.58 L 143.08,735.62 L 143.69,736.03 L 144.20,735.45 L 144.80,735.75 L 145.27,734.77 L 145.94,735.79 L 146.44,735.12 L 146.98,734.86 L 147.52,734.62 L 148.16,735.30 L 148.70,734.96" fill="none" stroke="#111" stroke-linecap="round" stroke-linejoin="round" stroke-width="2.2" /><path d="M 148.70,734.96 L 149.28,735.11 L 149.83,734.99 L 150.39,734.82 L 150.94,734.65 L 151.46,734.20 L 152.12,735.13 L 152.63,734.56 L 153.25,735.07 L 153.75,734.31 L 154.38,734.94 L 154.83,733.83 L 155.50,734.78 L 156.05,734.58 L 156.59,734.38 L 157.12,733.93 L 157.73,734.35 L 158.26,734.01" fill="none" stroke="#111" stroke-linecap="round" stroke-linejoin="round" stroke-width="2.2" /><path d="M 158.26,734.01 L 158.86,734.27 L 159.37,733.75 L 159.90,733.32 L 160.50,733.70 L 161.03,733.26 L 161.58,733.10 L 162.21,733.76 L 162.76,733.54 L 163.29,733.19 L 163.91,733.69 L 164.39,732.82 L 165.00,733.16 L 165.62,733.77 L 166.09,732.73 L 166.65,732.66 L 167.24,732.83 L 167.83,733.05" fill="none" stroke="#111" stroke-linecap="round" stroke-linejoin="round" stroke-width="2.2" /><path d="M 167.83,733.05 L 168.42,733.31 L 168.95,732.90 L 169.53,733.03 L 170.04,732.44 L 170.64,732.76 L 171.15,732.15 L 171.80,733.05 L 172.37,733.07 L 172.90,732.67 L 173.45,732.50 L 174.07,732.96 L 174.60,732.59 L 175.09,731.76 L 175.75,732.73 L 176.28,732.35 L 176.84,732.24 L 177.39,732.09" fill="none" stroke="#111" stroke-linecap="round" stroke-linejoin="round" stroke-width="2.2" /><path d="M 177.39,732.09 L 177.96,732.06 L 178.55,732.35 L 179.09,732.07 L 179.63,731.72 L 180.16,731.39 L 180.79,731.95 L 181.35,731.85 L 181.84,731.10 L 182.40,731.07 L 182.98,731.14 L 183.55,731.13 L 184.19,731.85 L 184.76,731.90 L 185.32,731.87 L 185.80,730.93 L 186.38,731.04 L 186.96,731.14" fill="none" stroke="#111" stroke-linecap="round" stroke-linejoin="round" stroke-width="2.2" /><path d="M 186.96,731.14 L 187.52,731.11 L 188.04,730.60 L 188.61,730.67 L 189.23,731.13 L 189.72,730.36 L 190.31,730.61 L 190.95,731.32 L 191.40,730.15 L 191.99,730.33 L 192.63,731.08 L 193.20,731.02 L 193.65,729.91 L 194.32,730.94 L 194.83,730.36 L 195.43,730.63 L 195.98,730.42 L 196.52,730.18" fill="none" stroke="#111" stroke-linecap="round" stroke-linejoin="round" stroke-width="2.2" /><path d="M 196.52,730.18 L 197.11,730.37 L 197.68,730.39 L 198.16,729.51 L 198.81,730.37 L 199.39,730.44 L 199.90,729.86 L 200.47,729.93 L 200.99,729.40 L 201.53,729.14 L 202.10,729.09 L 202.68,729.28 L 203.28,729.58 L 203.84,729.45 L 204.34,728.83 L 204.91,728.78 L 205.55,729.57 L 206.09,729.22" fill="none" stroke="#111" stroke-linecap="round" stroke-linejoin="round" stroke-width="2.2" /><path d="M 206.09,729.22 L 206.68,729.45 L 207.17,728.68 L 207.77,729.00 L 208.32,728.83 L 208.95,729.42 L 209.41,728.40 L 210.07,729.30 L 210.55,728.36 L 211.16,728.76 L 211.77,729.18 L 212.30,728.87 L 212.81,728.29 L 213.39,728.38 L 213.97,728.53 L 214.48,727.87 L 215.12,728.64 L 215.65,728.27" fill="none" stroke="#111" stroke-linecap="round" stroke-linejoin="round" stroke-width="2.2" /><path d="M 215.65,728.27 L 216.23,728.38 L 216.75,727.87 L 217.29,727.57 L 217.93,728.30 L 218.51,728.43 L 219.04,728.04 L 219.59,727.88 L 220.21,728.34 L 220.76,728.23 L 221.23,727.19 L 221.87,727.91 L 222.42,727.75 L 223.01,727.93 L 223.58,728.03 L 224.04,726.87 L 224.66,727.39 L 225.22,727.31" fill="none" stroke="#111" stroke-linecap="round" stroke-linejoin="round" stroke-width="2.2" /><path d="M 225.22,727.31 L 225.81,727.60 L 226.37,727.45 L 226.86,726.65 L 227.43,726.70 L 228.06,727.28 L 228.54,726.46 L 229.18,727.13 L 229.70,726.65 L 230.27,726.69 L 230.80,726.34 L 231.39,726.57 L 231.94,726.38 L 232.49,726.13 L 233.10,726.62 L 233.67,726.59 L 234.24,726.58 L 234.78,726.36" fill="none" stroke="#111" stroke-linecap="round" stroke-linejoin="round" stroke-width="2.2" /><path d="M 234.78,726.36 L 235.37,726.51 L 235.86,725.78 L 236.42,725.66 L 236.98,725.64 L 237.54,725.48 L 238.11,725.55 L 238.75,726.26 L 239.32,726.23 L 239.88,726.22 L 240.44,726.14 L 241.03,726.28 L 241.53,725.60 L 242.07,725.37 L 242.66,725.61 L 243.25,725.77 L 243.77,725.26 L 244.35,725.40" fill="none" stroke="#111" stroke-linecap="round" stroke-linejoin="round" stroke-width="2.2" /><path d="M 244.35,725.40 L 244.94,725.65 L 245.52,725.76 L 246.02,725.10 L 246.55,724.64 L 247.19,725.43 L 247.72,725.07 L 248.27,724.87 L 248.80,724.41 L 249.45,725.24 L 250.01,725.22 L 250.53,724.73 L 251.08,724.50 L 251.72,725.22 L 252.20,724.39 L 252.74,724.04 L 253.38,724.82 L 253.91,724.44" fill="none" stroke="#111" stroke-linecap="round" stroke-linejoin="round" stroke-width="2.2" /><path d="M 253.91,724.44 L 254.44,724.07 L 255.04,724.30 L 255.55,723.78 L 256.11,723.67 L 256.69,723.83 L 257.29,724.16 L 257.81,723.61 L 258.43,724.12 L 259.02,724.37 L 259.51,723.56 L 260.15,724.29 L 260.67,723.78 L 261.28,724.19 L 261.75,723.20 L 262.34,723.45 L 262.88,723.21 L 263.48,723.49" fill="none" stroke="#111" stroke-linecap="round" stroke-linejoin="round" stroke-width="2.2" /><path d="M 263.48,723.49 L 264.02,723.20 L 264.66,723.95 L 265.17,723.31 L 265.68,722.74 L 266.30,723.33 L 266.86,723.17 L 267.46,723.52 L 267.97,722.93 L 268.51,722.70 L 269.14,723.25 L 269.66,722.80 L 270.23,722.82 L 270.77,722.56 L 271.33,722.41 L 271.90,722.45 L 272.50,722.76 L 273.04,722.53" fill="none" stroke="#111" stroke-linecap="round" stroke-linejoin="round" stroke-width="2.2" /><path d="M 273.04,722.53 L 273.63,722.71 L 274.14,722.14 L 274.69,721.91 L 275.29,722.25 L 275.90,722.68 L 276.47,722.65 L 277.04,722.67 L 277.49,721.58 L 278.05,721.49 L 278.72,722.49 L 279.28,722.41 L 279.76,721.48 L 280.32,721.38 L 280.92,721.70 L 281.54,722.25 L 282.05,721.69 L 282.61,721.57" fill="none" stroke="#111" stroke-linecap="round" stroke-linejoin="round" stroke-width="2.2" /><path d="M 282.61,721.57 L 283.26,720.96 L 283.33,719.87 L 284.19,719.42 L 285.20,719.10 L 285.81,718.44 L 286.18,717.60 L 286.62,716.81 L 287.03,715.99 L 288.12,715.73 L 287.81,714.33 L 288.98,714.14 L 289.55,713.45 L 290.28,712.90 L 290.17,711.66 L 291.43,711.54 L 291.74,710.65 L 292.17,709.86" fill="none" stroke="#111" stroke-linecap="round" stroke-linejoin="round" stroke-width="2.2" /><path d="M 292.17,709.86 L 292.96,709.09 L 293.53,708.20 L 293.94,707.20 L 293.95,705.96 L 294.55,705.08 L 295.85,704.64 L 295.96,703.46 L 296.45,702.51 L 297.26,701.77 L 298.25,701.13 L 298.77,700.21 L 298.56,698.83 L 299.74,698.31 L 300.51,697.54 L 300.80,696.47 L 301.18,695.45 L 301.74,694.55" fill="none" stroke="#111" stroke-linecap="round" stroke-linejoin="round" stroke-width="2.2" /><path d="M 301.74,694.55 L 302.36,693.69 L 302.47,692.50 L 302.99,691.58 L 304.23,691.10 L 304.20,689.83 L 305.56,689.43 L 306.03,688.47 L 305.79,687.07 L 306.91,686.52 L 307.84,685.84 L 307.48,684.37 L 308.67,683.86 L 308.76,682.66 L 309.25,681.72 L 309.73,680.77 L 310.83,680.20 L 311.30,679.25" fill="none" stroke="#111" stroke-linecap="round" stroke-linejoin="round" stroke-width="2.2" /><path d="M 311.30,679.25 L 312.15,678.52 L 312.06,677.21 L 312.54,676.26 L 313.25,675.46 L 313.62,674.43 L 315.14,674.13 L 315.51,673.11 L 315.78,672.03 L 316.76,671.39 L 317.32,670.49 L 317.51,669.35 L 318.06,668.45 L 319.02,667.79 L 318.69,666.34 L 320.20,666.03 L 320.51,664.97 L 320.87,663.94" fill="none" stroke="#111" stroke-linecap="round" stroke-linejoin="round" stroke-width="2.2" /><path d="M 320.87,663.94 L 321.30,662.96 L 321.76,662.00 L 322.29,661.07 L 323.54,660.60 L 323.25,659.17 L 323.88,658.31 L 325.04,657.79 L 325.03,656.53 L 325.87,655.80 L 326.70,655.07 L 326.65,653.78 L 327.24,652.90 L 328.31,652.31 L 328.71,651.31 L 329.20,650.37 L 329.88,649.54 L 330.43,648.64" fill="none" stroke="#111" stroke-linecap="round" stroke-linejoin="round" stroke-width="2.2" /><path d="M 330.43,648.64 L 331.09,647.79 L 331.51,646.80 L 332.11,645.93 L 332.48,644.91 L 333.66,644.40 L 333.80,643.23 L 334.87,642.64 L 334.83,641.37 L 335.70,640.66 L 335.71,639.42 L 336.52,638.67 L 336.76,637.57 L 338.01,637.10 L 338.53,636.17 L 338.82,635.10 L 339.73,634.42 L 340.00,633.33" fill="none" stroke="#111" stroke-linecap="round" stroke-linejoin="round" stroke-width="2.2" /><path d="M 340.00,633.33 L 340.31,632.28 L 341.49,631.76 L 341.38,630.44 L 341.80,629.45 L 342.34,628.54 L 343.83,628.21 L 344.31,627.26 L 344.04,625.84 L 344.72,625.01 L 345.68,624.37 L 346.47,623.61 L 347.14,622.78 L 346.99,621.43 L 348.29,620.99 L 348.51,619.88 L 348.81,618.81 L 349.57,618.03" fill="none" stroke="#111" stroke-linecap="round" stroke-linejoin="round" stroke-width="2.2" /><path d="M 349.57,618.03 L 350.34,617.26 L 350.23,615.94 L 351.51,615.49 L 351.58,614.28 L 352.00,613.29 L 353.06,612.70 L 353.90,611.97 L 354.10,610.85 L 354.93,610.11 L 355.43,609.18 L 356.17,608.39 L 356.31,607.22 L 356.74,606.24 L 357.27,605.32 L 357.57,604.25 L 358.83,603.79 L 359.13,602.72" fill="none" stroke="#111" stroke-linecap="round" stroke-linejoin="round" stroke-width="2.2" /><path d="M 359.13,602.72 L 359.78,601.88 L 359.82,600.65 L 360.90,600.08 L 361.03,598.91 L 361.50,597.95 L 362.40,597.26 L 363.35,596.60 L 363.42,595.39 L 364.62,594.89 L 365.17,593.98 L 364.99,592.61 L 366.02,592.00 L 366.18,590.85 L 367.05,590.15 L 367.13,588.95 L 367.87,588.15 L 368.70,587.42" fill="none" stroke="#111" stroke-linecap="round" stroke-linejoin="round" stroke-width="2.2" /><path d="M 368.70,587.42 L 369.11,586.43 L 369.92,585.68 L 369.94,584.44 L 370.97,583.84 L 371.24,582.75 L 371.61,581.73 L 372.91,581.29 L 372.77,579.95 L 373.93,579.42 L 373.98,578.21 L 374.43,577.23 L 375.00,576.34 L 375.65,575.49 L 376.16,574.56 L 377.25,573.99 L 377.45,572.86 L 378.26,572.12" fill="none" stroke="#111" stroke-linecap="round" stroke-linejoin="round" stroke-width="2.2" /><path d="M 378.26,572.12 L 378.74,571.16 L 378.91,570.02 L 379.61,569.20 L 380.92,568.77 L 380.77,567.43 L 381.83,566.84 L 382.61,566.07 L 382.50,564.75 L 383.08,563.86 L 383.85,563.09 L 384.02,561.95 L 385.06,561.34 L 385.13,560.13 L 386.15,559.52 L 386.38,558.41 L 387.54,557.88 L 387.83,556.81" fill="none" stroke="#111" stroke-linecap="round" stroke-linejoin="round" stroke-width="2.2" /><path d="M 387.83,556.81 L 388.58,556.03 L 388.72,554.86 L 389.78,554.28 L 389.79,553.03 L 390.82,552.42 L 390.96,551.26 L 391.33,550.24 L 392.82,549.92 L 393.36,549.00 L 393.93,548.10 L 393.73,546.73 L 394.23,545.79 L 394.66,544.81 L 395.57,544.13 L 395.90,543.08 L 396.55,542.23 L 397.39,541.51" fill="none" stroke="#111" stroke-linecap="round" stroke-linejoin="round" stroke-width="2.2" /><path d="M 397.39,541.51 L 397.72,540.46 L 398.86,539.92 L 398.87,538.68 L 399.58,537.87 L 399.87,536.80 L 400.86,536.17 L 400.91,534.94 L 401.49,534.05 L 402.44,533.40 L 402.81,532.37 L 403.97,531.85 L 404.58,530.97 L 404.37,529.59 L 404.96,528.71 L 405.45,527.76 L 406.41,527.12 L 406.96,526.20" fill="none" stroke="#111" stroke-linecap="round" stroke-linejoin="round" stroke-width="2.2" /><path d="M 406.96,526.20 L 407.65,525.38 L 407.82,524.24 L 408.48,523.40 L 409.02,522.49 L 409.94,521.81 L 410.61,520.98 L 410.51,519.66 L 411.15,518.81 L 411.75,517.93 L 412.16,516.94 L 413.40,516.46 L 413.39,515.20 L 413.84,514.23 L 415.09,513.76 L 414.91,512.40 L 415.70,511.64 L 416.52,510.90" fill="none" stroke="#111" stroke-linecap="round" stroke-linejoin="round" stroke-width="2.2" /><path d="M 416.52,510.90 L 416.81,509.83 L 418.10,509.38 L 418.57,508.43 L 418.41,507.07 L 419.50,506.50 L 419.55,505.28 L 420.49,504.61 L 421.32,503.88 L 421.19,502.55 L 421.86,501.72 L 423.04,501.20 L 423.31,500.12 L 424.01,499.30 L 424.42,498.31 L 424.84,497.32 L 425.77,496.65 L 426.09,495.59" fill="none" stroke="#111" stroke-linecap="round" stroke-linejoin="round" stroke-width="2.2" /><path d="M 426.09,495.59 L 426.56,494.64 L 426.88,493.59 L 428.23,493.18 L 428.20,491.91 L 429.29,491.34 L 429.03,489.92 L 429.85,489.19 L 430.88,488.57 L 430.75,487.24 L 431.38,486.38 L 432.38,485.75 L 432.52,484.59 L 433.15,483.73 L 433.49,482.69 L 434.76,482.24 L 435.31,481.33 L 435.65,480.29" fill="none" stroke="#111" stroke-linecap="round" stroke-linejoin="round" stroke-width="2.2" /><path d="M 435.65,480.29 L 436.30,479.44 L 437.24,478.78 L 437.08,477.42 L 437.49,476.43 L 438.49,475.80 L 438.60,474.62 L 439.69,474.05 L 439.84,472.89 L 440.84,472.27 L 441.49,471.42 L 441.58,470.23 L 442.04,469.26 L 443.28,468.78 L 443.51,467.67 L 444.10,466.79 L 444.45,465.75 L 445.22,464.99" fill="none" stroke="#111" stroke-linecap="round" stroke-linejoin="round" stroke-width="2.2" /><path d="M 445.22,464.99 L 445.61,463.98 L 446.66,463.38 L 446.77,462.20 L 447.92,461.67 L 447.76,460.32 L 449.09,459.89 L 449.45,458.87 L 449.26,457.49 L 450.71,457.15 L 451.31,456.27 L 451.77,455.31 L 452.04,454.23 L 452.90,453.51 L 452.63,452.09 L 453.25,451.23 L 454.47,450.74 L 454.78,449.68" fill="none" stroke="#111" stroke-linecap="round" stroke-linejoin="round" stroke-width="2.2" /><path d="M 454.78,449.68 L 455.21,448.70 L 455.48,447.61 L 456.52,447.01 L 457.33,446.27 L 457.12,444.88 L 457.82,444.07 L 458.33,443.14 L 458.84,442.20 L 459.61,441.43 L 460.55,440.77 L 461.34,440.01 L 461.73,439.00 L 462.53,438.25 L 462.86,437.21 L 462.76,435.89 L 463.85,435.31 L 464.35,434.38" fill="none" stroke="#111" stroke-linecap="round" stroke-linejoin="round" stroke-width="2.2" /><path d="M 464.35,434.38 L 464.70,433.43 L 465.08,432.49 L 465.71,431.73 L 466.96,431.40 L 467.19,430.36 L 467.27,429.22 L 467.86,428.43 L 468.74,427.85 L 469.72,427.33 L 470.40,426.61 L 470.89,425.75 L 471.43,424.93 L 471.50,423.78 L 472.48,423.27 L 473.23,422.59 L 473.09,421.29 L 473.91,420.67" fill="none" stroke="#111" stroke-linecap="round" stroke-linejoin="round" stroke-width="2.2" /><path d="M 473.91,420.67 L 474.48,420.44 L 475.04,420.85 L 475.60,421.12 L 476.16,421.18 L 476.73,420.27 L 477.29,421.13 L 477.85,420.39 L 478.41,420.27 L 478.98,420.26 L 479.54,420.73 L 480.10,421.03 L 480.66,420.15 L 481.23,420.83 L 481.79,420.33 L 482.35,420.08 L 482.92,420.97 L 483.48,420.67" fill="none" stroke="#111" stroke-linecap="round" stroke-linejoin="round" stroke-width="2.2" /><path d="M 483.48,420.67 L 484.04,420.93 L 484.60,420.16 L 485.17,421.15 L 485.73,421.15 L 486.29,420.30 L 486.85,421.06 L 487.42,420.69 L 487.98,420.14 L 488.54,421.17 L 489.10,420.78 L 489.67,421.14 L 490.23,421.18 L 490.79,420.39 L 491.36,420.54 L 491.92,420.94 L 492.48,420.35 L 493.04,420.67" fill="none" stroke="#111" stroke-linecap="round" stroke-linejoin="round" stroke-width="2.2" /><path d="M 493.04,420.67 L 493.61,420.84 L 494.17,420.63 L 494.73,420.50 L 495.29,420.45 L 495.86,420.37 L 496.42,421.05 L 496.98,421.03 L 497.54,420.57 L 498.11,420.49 L 498.67,420.15 L 499.23,420.24 L 499.80,420.33 L 500.36,420.42 L 500.92,421.09 L 501.48,420.42 L 502.05,420.36 L 502.61,420.67" fill="none" stroke="#111" stroke-linecap="round" stroke-linejoin="round" stroke-width="2.2" /><path d="M 502.61,420.67 L 503.17,420.35 L 503.73,421.19 L 504.30,421.06 L 504.86,421.15 L 505.42,420.43 L 505.98,420.20 L 506.55,420.46 L 507.11,420.93 L 507.67,420.90 L 508.24,420.84 L 508.80,421.05 L 509.36,420.51 L 509.92,420.51 L 510.49,420.36 L 511.05,421.08 L 511.61,420.98 L 512.17,420.67" fill="none" stroke="#111" stroke-linecap="round" stroke-linejoin="round" stroke-width="2.2" /><path d="M 512.17,420.67 L 512.74,420.41 L 513.30,421.11 L 513.86,421.08 L 514.42,421.23 L 514.99,421.12 L 515.55,420.26 L 516.11,420.29 L 516.68,420.88 L 517.24,420.13 L 517.80,420.11 L 518.36,420.71 L 518.93,421.20 L 519.49,420.84 L 520.05,420.09 L 520.61,420.24 L 521.18,420.72 L 521.74,420.67" fill="none" stroke="#111" stroke-linecap="round" stroke-linejoin="round" stroke-width="2.2" /><path d="M 521.74,420.67 L 522.30,420.70 L 522.86,421.18 L 523.43,421.22 L 523.99,421.14 L 524.55,420.14 L 525.12,420.15 L 525.68,420.14 L 526.24,421.21 L 526.80,421.08 L 527.37,420.23 L 527.93,421.10 L 528.49,420.12 L 529.05,421.22 L 529.62,421.19 L 530.18,420.13 L 530.74,420.35 L 531.30,420.67" fill="none" stroke="#111" stroke-linecap="round" stroke-linejoin="round" stroke-width="2.2" /><path d="M 531.30,420.67 L 531.87,420.95 L 532.43,420.85 L 532.99,421.16 L 533.55,420.17 L 534.12,420.98 L 534.68,421.01 L 535.24,420.27 L 535.81,421.19 L 536.37,420.48 L 536.93,420.12 L 537.49,421.08 L 538.06,421.21 L 538.62,420.97 L 539.18,421.10 L 539.74,420.33 L 540.31,420.60 L 540.87,420.67" fill="none" stroke="#111" stroke-linecap="round" stroke-linejoin="round" stroke-width="2.2" /><path d="M 540.87,420.67 L 541.43,420.58 L 541.99,421.06 L 542.56,420.08 L 543.12,420.15 L 543.68,420.10 L 544.25,421.04 L 544.81,421.03 L 545.37,420.34 L 545.93,420.20 L 546.50,421.20 L 547.06,421.03 L 547.62,420.82 L 548.18,420.15 L 548.75,421.21 L 549.31,420.16 L 549.87,420.91 L 550.43,420.67" fill="none" stroke="#111" stroke-linecap="round" stroke-linejoin="round" stroke-width="2.2" /><path d="M 550.43,420.67 L 551.00,420.50 L 551.56,420.47 L 552.12,420.09 L 552.69,420.31 L 553.25,420.91 L 553.81,421.19 L 554.37,420.18 L 554.94,420.15 L 555.50,420.95 L 556.06,420.94 L 556.62,421.22 L 557.19,420.77 L 557.75,420.59 L 558.31,421.11 L 558.87,420.20 L 559.44,420.80 L 560.00,420.67" fill="none" stroke="#111" stroke-linecap="round" stroke-linejoin="round" stroke-width="2.2" /><path d="M 560.00,420.67 L 560.56,420.76 L 561.13,420.10 L 561.69,420.33 L 562.25,420.31 L 562.81,420.42 L 563.38,420.58 L 563.94,421.03 L 564.50,421.19 L 565.06,420.26 L 565.63,420.49 L 566.19,420.54 L 566.75,421.04 L 567.31,421.23 L 567.88,421.21 L 568.44,420.86 L 569.00,420.63 L 569.57,420.67" fill="none" stroke="#111" stroke-linecap="round" stroke-linejoin="round" stroke-width="2.2" /><path d="M 569.57,420.67 L 570.13,420.42 L 570.69,421.17 L 571.25,421.12 L 571.82,421.10 L 572.38,420.65 L 572.94,421.18 L 573.50,420.95 L 574.07,421.11 L 574.63,421.21 L 575.19,420.40 L 575.75,420.38 L 576.32,420.35 L 576.88,421.21 L 577.44,420.26 L 578.01,420.76 L 578.57,420.36 L 579.13,420.67" fill="none" stroke="#111" stroke-linecap="round" stroke-linejoin="round" stroke-width="2.2" /><path d="M 579.13,420.67 L 579.69,420.79 L 580.26,420.57 L 580.82,421.03 L 581.38,420.26 L 581.94,420.09 L 582.51,421.19 L 583.07,420.84 L 583.63,420.34 L 584.19,421.08 L 584.76,421.19 L 585.32,420.29 L 585.88,420.70 L 586.45,420.82 L 587.01,420.85 L 587.57,421.05 L 588.13,420.80 L 588.70,420.67" fill="none" stroke="#111" stroke-linecap="round" stroke-linejoin="round" stroke-width="2.2" /><path d="M 588.70,420.67 L 589.26,420.49 L 589.82,420.19 L 590.38,420.82 L 590.95,421.20 L 591.51,420.11 L 592.07,420.25 L 592.63,420.99 L 593.20,420.36 L 593.76,420.18 L 594.32,421.23 L 594.88,420.68 L 595.45,420.32 L 596.01,421.22 L 596.57,420.42 L 597.14,420.79 L 597.70,420.94 L 598.26,420.67" fill="none" stroke="#111" stroke-linecap="round" stroke-linejoin="round" stroke-width="2.2" /><path d="M 598.26,420.67 L 598.82,420.72 L 599.39,420.58 L 599.95,420.88 L 600.51,420.18 L 601.07,420.33 L 601.64,420.45 L 602.20,420.22 L 602.76,421.05 L 603.32,421.19 L 603.89,421.12 L 604.45,420.89 L 605.01,420.72 L 605.58,420.83 L 606.14,420.54 L 606.70,420.44 L 607.26,420.35 L 607.83,420.67" fill="none" stroke="#111" stroke-linecap="round" stroke-linejoin="round" stroke-width="2.2" /><path d="M 607.83,420.67 L 608.39,420.37 L 608.95,421.19 L 609.51,421.10 L 610.08,420.59 L 610.64,421.13 L 611.20,420.85 L 611.76,420.68 L 612.33,421.17 L 612.89,420.82 L 613.45,420.89 L 614.02,420.15 L 614.58,421.13 L 615.14,420.25 L 615.70,420.47 L 616.27,420.14 L 616.83,420.43 L 617.39,420.67" fill="none" stroke="#111" stroke-linecap="round" stroke-linejoin="round" stroke-width="2.2" /><path d="M 617.39,420.67 L 617.95,420.78 L 618.46,421.29 L 619.01,421.43 L 619.71,420.36 L 620.14,421.52 L 620.81,420.69 L 621.32,421.22 L 621.94,420.77 L 622.47,421.15 L 623.04,421.12 L 623.62,421.00 L 624.10,421.80 L 624.64,422.04 L 625.30,421.27 L 625.85,421.45 L 626.43,421.39 L 626.96,421.75" fill="none" stroke="#111" stroke-linecap="round" stroke-linejoin="round" stroke-width="2.2" /><path d="M 626.96,421.75 L 627.53,422.38 L 627.71,423.36 L 628.96,423.38 L 629.41,424.13 L 630.06,424.68 L 630.31,425.60 L 630.49,426.57 L 631.37,426.93 L 631.72,427.76 L 632.95,427.80 L 632.73,429.13 L 633.34,429.73 L 634.31,430.01 L 634.51,430.96 L 635.05,431.62 L 636.06,431.87 L 636.52,432.59" fill="none" stroke="#111" stroke-linecap="round" stroke-linejoin="round" stroke-width="2.2" /><path d="M 636.52,432.59 L 637.25,433.09 L 637.26,434.21 L 638.63,434.14 L 638.38,435.48 L 639.08,436.01 L 639.51,436.76 L 640.83,436.73 L 640.84,437.86 L 642.00,437.97 L 642.51,438.64 L 642.56,439.74 L 643.11,440.39 L 644.06,440.69 L 644.58,441.36 L 644.56,442.51 L 645.65,442.69 L 646.09,443.43" fill="none" stroke="#111" stroke-linecap="round" stroke-linejoin="round" stroke-width="2.2" /><path d="M 646.09,443.43 L 646.45,444.24 L 647.22,444.70 L 647.84,445.29 L 648.62,445.73 L 648.51,446.97 L 649.64,447.10 L 649.86,448.04 L 650.35,448.74 L 651.56,448.81 L 652.12,449.45 L 652.47,450.28 L 652.68,451.22 L 653.14,451.95 L 653.54,452.74 L 654.92,452.65 L 655.33,453.42 L 655.65,454.27" fill="none" stroke="#111" stroke-linecap="round" stroke-linejoin="round" stroke-width="2.2" /><path d="M 655.65,454.27 L 656.45,454.70 L 657.12,455.24 L 657.51,456.04 L 658.18,456.58 L 658.05,457.83 L 658.76,458.34 L 659.16,459.12 L 659.75,459.73 L 660.91,459.84 L 661.27,460.66 L 662.27,460.91 L 662.80,461.57 L 662.87,462.65 L 663.38,463.33 L 664.00,463.92 L 664.86,464.29 L 665.22,465.11" fill="none" stroke="#111" stroke-linecap="round" stroke-linejoin="round" stroke-width="2.2" /><path d="M 665.22,465.11 L 666.03,465.53 L 666.19,466.52 L 667.29,466.69 L 667.85,467.32 L 667.97,468.35 L 668.89,468.68 L 668.93,469.77 L 670.04,469.94 L 670.51,470.65 L 670.63,471.68 L 671.11,472.39 L 672.20,472.56 L 672.34,473.57 L 672.77,474.32 L 673.32,474.97 L 674.22,475.31 L 674.78,475.95" fill="none" stroke="#111" stroke-linecap="round" stroke-linejoin="round" stroke-width="2.2" /><path d="M 674.78,475.95 L 675.54,476.42 L 675.48,477.61 L 676.83,477.55 L 677.23,478.33 L 677.19,479.50 L 677.74,480.15 L 678.39,480.71 L 679.57,480.80 L 679.77,481.76 L 680.01,482.68 L 681.36,482.63 L 681.46,483.67 L 682.34,484.03 L 682.41,485.10 L 683.63,485.16 L 684.03,485.94 L 684.35,486.79" fill="none" stroke="#111" stroke-linecap="round" stroke-linejoin="round" stroke-width="2.2" /><path d="M 684.35,486.79 L 684.99,487.36 L 685.86,487.73 L 686.41,488.37 L 686.98,489.01 L 687.24,489.91 L 688.13,490.26 L 687.86,491.63 L 688.45,492.25 L 688.98,492.92 L 689.72,493.39 L 690.58,493.77 L 691.35,494.22 L 692.04,494.75 L 692.63,495.37 L 692.58,496.54 L 693.21,497.12 L 693.91,497.63" fill="none" stroke="#111" stroke-linecap="round" stroke-linejoin="round" stroke-width="2.2" /><path d="M 693.91,497.63 L 694.72,498.06 L 695.22,498.75 L 695.54,499.60 L 696.50,499.89 L 697.13,500.47 L 696.90,501.80 L 698.25,501.75 L 698.83,502.37 L 698.78,503.55 L 699.75,503.83 L 699.72,504.99 L 700.28,505.63 L 700.87,506.24 L 701.52,506.80 L 702.67,506.92 L 703.12,507.66 L 703.48,508.48" fill="none" stroke="#111" stroke-linecap="round" stroke-linejoin="round" stroke-width="2.2" /><path d="M 703.48,508.48 L 704.21,508.96 L 704.90,509.49 L 705.57,510.03 L 705.48,511.25 L 705.96,511.95 L 706.50,512.62 L 707.82,512.58 L 707.80,513.74 L 708.14,514.57 L 708.70,515.21 L 709.96,515.23 L 710.63,515.77 L 710.55,516.98 L 711.35,517.41 L 711.56,518.36 L 712.27,518.86 L 713.04,519.32" fill="none" stroke="#111" stroke-linecap="round" stroke-linejoin="round" stroke-width="2.2" /><path d="M 713.04,519.32 L 713.45,520.09 L 714.03,520.72 L 714.61,521.34 L 715.60,521.60 L 715.74,522.61 L 716.80,522.81 L 716.91,523.84 L 717.68,524.29 L 718.18,524.99 L 718.97,525.43 L 719.65,525.96 L 719.78,526.98 L 720.30,527.66 L 721.27,527.94 L 721.16,529.17 L 721.82,529.71 L 722.61,530.16" fill="none" stroke="#111" stroke-linecap="round" stroke-linejoin="round" stroke-width="2.2" /><path d="M 722.61,530.16 L 723.40,530.59 L 723.53,531.61 L 724.70,531.71 L 724.56,532.97 L 725.10,533.63 L 726.32,533.69 L 726.20,534.93 L 726.71,535.61 L 727.53,536.02 L 728.41,536.38 L 728.48,537.46 L 729.53,537.66 L 730.14,538.25 L 730.11,539.42 L 731.30,539.50 L 731.62,540.35 L 732.17,541.00" fill="none" stroke="#111" stroke-linecap="round" stroke-linejoin="round" stroke-width="2.2" /><path d="M 732.17,541.00 L 732.91,541.48 L 732.99,542.54 L 733.94,542.84 L 734.76,543.25 L 735.26,543.94 L 735.81,544.59 L 736.14,545.43 L 736.92,545.88 L 737.29,546.69 L 737.55,547.59 L 737.95,548.37 L 739.35,548.28 L 739.53,549.25 L 740.47,549.55 L 740.53,550.63 L 741.41,550.99 L 741.74,551.84" fill="none" stroke="#111" stroke-linecap="round" stroke-linejoin="round" stroke-width="2.2" /><path d="M 741.74,551.84 L 742.07,552.68 L 743.24,552.79 L 743.15,554.00 L 744.39,554.04 L 744.83,554.78 L 744.82,555.92 L 745.95,556.06 L 745.83,557.30 L 746.93,557.46 L 747.40,558.19 L 747.84,558.93 L 748.25,559.70 L 748.75,560.40 L 749.18,561.15 L 749.85,561.69 L 750.95,561.86 L 751.30,562.68" fill="none" stroke="#111" stroke-linecap="round" stroke-linejoin="round" stroke-width="2.2" /><path d="M 751.30,562.68 L 752.03,563.17 L 752.82,563.61 L 752.62,564.92 L 753.54,565.24 L 754.24,565.76 L 754.63,566.54 L 755.50,566.92 L 756.09,567.53 L 756.26,568.51 L 756.53,569.41 L 757.67,569.54 L 758.35,570.07 L 758.70,570.90 L 758.92,571.84 L 760.17,571.87 L 760.55,572.66 L 760.87,573.52" fill="none" stroke="#111" stroke-linecap="round" stroke-linejoin="round" stroke-width="2.2" /><path d="M 760.87,573.52 L 761.20,574.36 L 762.41,574.43 L 762.45,575.52 L 763.04,576.14 L 763.54,576.83 L 764.58,577.05 L 764.88,577.92 L 765.72,578.31 L 765.95,579.24 L 766.63,579.78 L 766.74,580.81 L 768.00,580.83 L 768.56,581.47 L 768.67,582.52 L 768.99,583.37 L 770.07,583.55 L 770.43,584.36" fill="none" stroke="#111" stroke-linecap="round" stroke-linejoin="round" stroke-width="2.2" /><path d="M 770.43,584.36 L 770.84,585.14 L 771.24,585.92 L 771.83,586.53 L 772.88,586.74 L 772.90,587.85 L 774.06,587.97 L 774.30,588.89 L 774.76,589.61 L 775.67,589.95 L 776.13,590.68 L 777.05,591.00 L 777.01,592.17 L 778.08,592.35 L 778.75,592.90 L 778.63,594.14 L 779.68,594.35 L 780.00,595.20" fill="none" stroke="#111" stroke-linecap="round" stroke-linejoin="round" stroke-width="2.2" /><path d="M 472.00,420.67 L 472.04,428.00 L 472.14,435.33 L 472.21,442.67 L 472.07,450.00 L 471.78,457.33 L 472.18,464.67 L 472.31,472.00 L 472.12,479.33 L 472.34,486.67 L 472.32,494.00 L 472.31,501.33 L 471.77,508.67 L 471.96,516.00 L 471.76,523.33 L 472.31,530.67 L 472.31,538.00 L 472.19,545.33 L 472.35,552.67 L 472.11,560.00 L 472.05,567.33 L 471.73,574.67 L 471.66,582.00 L 471.67,589.33 L 472.19,596.67 L 471.68,604.00 L 471.67,611.33 L 471.67,618.67 L 472.31,626.00 L 471.82,633.33 L 472.31,640.67 L 472.12,648.00 L 472.14,655.33 L 472.23,662.67 L 472.36,670.00 L 472.34,677.33 L 472.23,684.67 L 471.66,692.00 L 472.36,699.33 L 472.31,706.67 L 471.64,714.00 L 472.24,721.33 L 471.67,728.67 L 472.00,736.00 L 471.79,743.33 L 472.25,750.67 L 472.19,758.00 L 472.15,765.33 L 471.97,772.67 L 472.00,780.00" fill="none" stroke="#111" stroke-dasharray="8.4 10.7" stroke-dashoffset="16.9" stroke-linecap="round" stroke-linejoin="round" stroke-width="2.0" /><path d="M 472.00,420.67 L 464.82,420.72 L 457.63,420.53 L 450.45,420.53 L 443.27,420.46 L 436.08,420.83 L 428.90,420.98 L 421.71,420.57 L 414.53,420.78 L 407.35,420.70 L 400.16,420.95 L 392.98,421.00 L 385.80,420.98 L 378.61,420.90 L 371.43,420.87 L 364.24,420.80 L 357.06,420.97 L 349.88,420.94 L 342.69,420.34 L 335.51,420.63 L 328.33,420.53 L 321.14,420.99 L 313.96,421.00 L 306.78,420.93 L 299.59,421.03 L 292.41,420.39 L 285.22,420.31 L 278.04,420.50 L 270.86,420.93 L 263.67,420.79 L 256.49,420.49 L 249.31,420.40 L 242.12,420.90 L 234.94,420.68 L 227.76,420.56 L 220.57,420.42 L 213.39,420.32 L 206.20,420.72 L 199.02,420.42 L 191.84,420.55 L 184.65,420.37 L 177.47,420.97 L 170.29,420.95 L 163.10,420.93 L 155.92,420.97 L 148.73,420.72 L 141.55,420.87 L 134.37,420.65 L 127.18,420.61 L 120.00,420.67" fill="none" stroke="#111" stroke-dasharray="8.8 9.6" stroke-dashoffset="9.6" stroke-linecap="round" stroke-linejoin="round" stroke-width="2.0" /><path d="M 467.00,420.67 L 467.67,420.64 L 468.33,420.60 L 469.00,421.02 L 469.67,420.65 L 470.33,421.00 L 471.00,420.71 L 471.67,420.88 L 472.33,420.49 L 473.00,420.87 L 473.67,420.63 L 474.33,420.59 L 475.00,420.48 L 475.67,420.91 L 476.33,420.77 L 477.00,420.67" fill="none" stroke="#111" stroke-linecap="round" stroke-linejoin="round" stroke-width="2.0" /><path d="M 472.00,415.67 L 471.89,416.33 L 471.95,417.00 L 472.34,417.67 L 472.12,418.33 L 472.19,419.00 L 471.73,419.67 L 471.79,420.33 L 472.03,421.00 L 471.69,421.67 L 472.36,422.33 L 471.67,423.00 L 472.27,423.67 L 471.93,424.33 L 472.22,425.00 L 472.00,425.67" fill="none" stroke="#111" stroke-linecap="round" stroke-linejoin="round" stroke-width="2.0" /></svg>