<?xml version="1.0" encoding="utf-8" ?>
<svg baseProfile="full" height="540" version="1.1" width="960" xmlns="http://www.w3.org/2000/svg" xmlns:ev="http://www.w3.org/2001/xml-events" xmlns:xlink="http://www.w3.org/1999/xlink"><defs /><path d="M 130.00,420.18 L 138.43,419.83 L 146.85,420.24 L 155.28,420.14 L 163.71,419.98 L 172.13,420.11 L 180.56,419.76 L 188.99,420.26 L 197.42,419.75 L 205.84,419.87 L 214.27,420.15 L 222.70,419.78 L 231.12,420.02 L 239.55,420.17 L 247.98,420.05 L 256.40,419.82 L 264.83,420.26 L 273.26,419.84 L 281.69,419.83 L 290.11,420.16 L 298.54,420.25 L 306.97,419.88 L 315.39,420.21 L 323.82,419.88 L 332.25,420.09 L 340.67,419.74 L 349.10,420.22 L 357.53,420.21 L 365.96,419.83 L 374.38,420.14 L 382.81,420.18 L 391.24,419.77 L 399.66,420.13 L 408.09,420.10 L 416.52,420.23 L 424.94,420.22 L 433.37,420.02 L 441.80,419.76 L 450.22,419.90 L 458.65,419.79 L 467.08,419.77 L 475.51,420.15 L 483.93,419.85 L 492.36,420.25 L 500.79,419.90 L 509.21,419.77 L 517.64,420.25 L 526.07,420.23 L 534.49,420.21 L 542.92,419.77 L 551.35,419.76 L 559.78,420.17 L 568.20,420.23 L 576.63,419.92 L 585.06,419.86 L 593.48,419.81 L 601.91,419.79 L 610.34,420.26 L 618.76,420.22 L 627.19,420.26 L 635.62,419.74 L 644.04,420.24 L 652.47,420.03 L 660.90,420.11 L 669.33,420.06 L 677.75,419.79 L 686.18,419.78 L 694.61,419.77 L 703.03,420.05 L 711.46,419.88 L 719.89,419.90 L 728.31,419.78 L 736.74,419.97 L 745.17,419.87 L 753.60,419.82 L 762.02,419.97 L 770.45,420.20 L 778.88,420.05 L 787.30,420.16 L 795.73,420.25 L 804.16,420.23 L 812.58,420.22 L 821.01,419.86 L 829.44,420.24 L 837.87,420.06 L 846.29,419.97 L 854.72,420.18 L 863.15,419.75 L 871.57,419.83 L 880.00,420.25" fill="none" stroke="#111" stroke-linecap="round" stroke-linejoin="round" stroke-width="2.2" /><path d="M 129.75,420.00 L 129.76,416.29 L 129.80,412.58 L 130.05,408.88 L 130.00,405.17 L 130.26,401.46 L 130.11,397.75 L 129.89,394.04 L 130.22,390.34 L 130.09,386.63 L 129.92,382.92 L 129.91,379.21 L 130.15,375.51 L 129.86,371.80 L 129.88,368.09 L 129.94,364.38 L 129.86,360.67 L 129.76,356.97 L 130.14,353.26 L 129.81,349.55 L 130.25,345.84 L 130.22,342.13 L 129.78,338.43 L 130.11,334.72 L 129.86,331.01 L 129.89,327.30 L 129.99,323.60 L 129.85,319.89 L 130.22,316.18 L 130.23,312.47 L 129.77,308.76 L 129.87,305.06 L 130.16,301.35 L 129.75,297.64 L 130.19,293.93 L 129.78,290.22 L 129.77,286.52 L 130.24,282.81 L 130.24,279.10 L 130.24,275.39 L 129.87,271.69 L 129.77,267.98 L 130.21,264.27 L 130.14,260.56 L 130.23,256.85 L 130.02,253.15 L 129.79,249.44 L 130.07,245.73 L 130.26,242.02 L 129.79,238.31 L 129.92,234.61 L 130.23,230.90 L 130.22,227.19 L 129.76,223.48 L 130.22,219.78 L 130.24,216.07 L 130.25,212.36 L 130.16,208.65 L 130.25,204.94 L 129.76,201.24 L 130.21,197.53 L 129.82,193.82 L 129.91,190.11 L 130.16,186.40 L 130.06,182.70 L 130.24,178.99 L 129.76,175.28 L 130.07,171.57 L 130.20,167.87 L 130.21,164.16 L 129.86,160.45 L 130.07,156.74 L 129.79,153.03 L 130.25,149.33 L 130.24,145.62 L 129.82,141.91 L 129.74,138.20 L 130.04,134.49 L 129.80,130.79 L 130.14,127.08 L 130.24,123.37 L 130.22,119.66 L 129.98,115.96 L 130.19,112.25 L 129.95,108.54 L 129.79,104.83 L 129.83,101.12 L 129.94,97.42 L 129.75,93.71 L 129.77,90.00" fill="none" stroke="#111" stroke-linecap="round" stroke-linejoin="round" stroke-width="2.2" /><path d="M 867.92,412.92 L 868.86,412.96 L 869.48,413.53 L 870.28,413.80 L 870.72,414.65 L 871.41,415.11 L 872.31,415.21 L 872.96,415.73 L 873.53,416.37 L 874.34,416.63 L 874.97,417.18 L 875.86,417.29 L 876.47,417.87 L 877.05,418.51 L 877.85,418.78 L 878.71,418.95 L 879.21,419.71 L 879.99,420.02" fill="none" stroke="#111" stroke-linecap="round" stroke-linejoin="round" stroke-width="2.2" /><path d="M 867.15,425.56 L 867.94,425.31 L 868.71,425.03 L 869.46,424.68 L 870.16,424.23 L 870.98,424.05 L 871.72,423.69 L 872.33,423.02 L 873.09,422.69 L 873.85,422.37 L 874.72,422.33 L 875.51,422.07 L 876.29,421.80 L 876.99,421.33 L 877.63,420.73 L 878.41,420.46 L 879.16,420.13 L 880.01,420.02" fill="none" stroke="#111" stroke-linecap="round" stroke-linejoin="round" stroke-width="2.2" /><path d="M 122.69,101.94 L 122.88,101.09 L 123.37,100.42 L 124.07,99.89 L 124.28,99.05 L 124.64,98.31 L 125.15,97.65 L 125.85,97.11 L 126.32,96.44 L 126.34,95.48 L 127.13,95.00 L 127.22,94.09 L 127.68,93.40 L 128.32,92.83 L 128.51,91.99 L 128.97,91.30 L 129.36,90.57 L 130.17,90.11" fill="none" stroke="#111" stroke-linecap="round" stroke-linejoin="round" stroke-width="2.2" /><path d="M 137.31,101.94 L 136.67,101.37 L 136.52,100.50 L 135.86,99.93 L 135.51,99.18 L 135.29,98.35 L 134.77,97.70 L 134.29,97.03 L 134.02,96.23 L 133.63,95.50 L 132.77,95.06 L 132.42,94.31 L 132.14,93.52 L 131.91,92.70 L 131.05,92.25 L 130.65,91.53 L 130.29,90.79 L 129.85,90.09" fill="none" stroke="#111" stroke-linecap="round" stroke-linejoin="round" stroke-width="2.2" /><path d="M 242.58,410.00 L 242.30,411.82 L 242.54,413.64 L 242.37,415.45 L 242.74,417.27 L 242.32,419.09 L 242.73,420.91 L 242.45,422.73 L 242.59,424.55 L 242.75,426.36 L 242.69,428.18 L 242.27,430.00" fill="none" stroke="#111" stroke-linecap="round" stroke-linejoin="round" stroke-width="2.2" /><path d="M 355.02,410.00 L 354.75,411.82 L 355.15,413.64 L 354.99,415.45 L 354.78,417.27 L 355.05,419.09 L 354.84,420.91 L 355.25,422.73 L 354.98,424.55 L 354.88,426.36 L 355.20,428.18 L 354.75,430.00" fill="none" stroke="#111" stroke-linecap="round" stroke-linejoin="round" stroke-width="2.2" /><path d="M 467.40,410.00 L 467.25,411.82 L 467.72,413.64 L 467.74,415.45 L 467.37,417.27 L 467.58,419.09 L 467.73,420.91 L 467.62,422.73 L 467.57,424.55 L 467.48,426.36 L 467.76,428.18 L 467.54,430.00" fill="none" stroke="#111" stroke-linecap="round" stroke-linejoin="round" stroke-width="2.2" /><path d="M 580.23,410.00 L 579.85,411.82 L 579.96,413.64 L 579.74,415.45 L 580.20,417.27 L 580.19,419.09 L 580.26,420.91 L 579.90,422.73 L 580.11,424.55 L 579.95,426.36 L 580.19,428.18 L 579.88,430.00" fill="none" stroke="#111" stroke-linecap="round" stroke-linejoin="round" stroke-width="2.2" /><path d="M 692.60,410.00 L 692.31,411.82 L 692.26,413.64 L 692.39,415.45 L 692.66,417.27 L 692.28,419.09 L 692.48,420.91 L 692.62,422.73 L 692.56,424.55 L 692.52,426.36 L 692.25,428.18 L 692.58,430.00" fill="none" stroke="#111" stroke-linecap="round" stroke-linejoin="round" stroke-width="2.2" /><path d="M 805.19,410.00 L 804.86,411.82 L 804.89,413.64 L 804.81,415.45 L 805.00,417.27 L 804.74,419.09 L 804.88,420.91 L 804.95,422.73 L 805.07,424.55 L 804.74,426.36 L 804.98,428.18 L 804.76,430.00" fill="none" stroke="#111" stroke-linecap="round" stroke-linejoin="round" stroke-width="2.2" /><path d="M 130.00,340.00 L 133.28,338.64 L 136.77,337.87 L 139.94,336.20 L 143.41,335.38 L 146.57,333.67 L 149.89,332.43 L 153.39,331.68 L 156.59,330.09 L 159.86,328.70 L 163.15,327.38 L 166.85,327.16 L 170.13,325.82 L 173.29,324.12 L 176.86,323.56 L 179.90,321.55 L 183.51,321.09 L 186.48,318.88 L 189.93,317.99 L 193.48,317.37 L 196.56,315.46 L 199.95,314.42 L 203.22,313.03 L 206.49,311.63 L 209.82,310.41 L 213.49,310.13 L 216.72,308.64 L 219.85,306.87 L 223.21,305.73 L 226.59,304.65 L 230.15,304.04 L 233.22,302.11 L 236.63,301.10 L 240.00,300.00" fill="none" stroke="#111" stroke-linecap="round" stroke-linejoin="round" stroke-width="2.2" /><path d="M 240.00,300.00 L 242.71,300.56 L 245.51,300.60 L 248.20,301.27 L 250.83,302.29 L 253.72,301.75 L 256.46,302.17 L 259.17,302.70 L 261.86,303.40 L 264.46,304.60 L 267.18,305.08 L 270.04,304.78 L 272.68,305.74 L 275.44,306.00 L 278.19,306.30 L 280.85,307.15 L 283.71,306.82 L 286.34,307.87 L 289.02,308.61 L 291.84,308.49 L 294.46,309.62 L 297.36,309.00 L 300.04,309.77 L 302.65,310.89 L 305.55,310.34 L 308.17,311.46 L 310.96,311.49 L 313.58,312.59 L 316.32,312.96 L 319.11,313.09 L 321.88,313.24 L 324.50,314.39 L 327.28,314.49 L 330.00,315.00" fill="none" stroke="#111" stroke-linecap="round" stroke-linejoin="round" stroke-width="2.2" /><path d="M 330.00,315.00 L 333.02,313.31 L 336.22,311.95 L 339.09,310.00 L 342.37,308.78 L 345.35,307.03 L 348.06,304.77 L 351.10,303.14 L 354.44,302.03 L 357.16,299.80 L 360.43,298.57 L 363.37,296.73 L 366.62,295.46 L 369.12,292.83 L 372.67,292.11 L 375.23,289.59 L 378.28,287.96 L 381.41,286.48 L 384.28,284.52 L 387.63,283.43 L 390.54,281.54 L 393.80,280.30 L 396.75,278.49 L 399.96,277.14 L 402.63,274.83 L 405.65,273.15 L 408.86,271.79 L 411.95,270.24 L 414.83,268.30 L 417.81,266.55 L 421.00,265.16 L 423.91,263.27 L 426.97,261.66 L 430.00,260.00" fill="none" stroke="#111" stroke-linecap="round" stroke-linejoin="round" stroke-width="2.2" /><path d="M 430.00,260.00 L 433.35,260.70 L 436.72,261.27 L 440.11,261.81 L 443.23,263.47 L 446.60,264.10 L 450.10,264.12 L 453.28,265.52 L 456.78,265.56 L 460.01,266.78 L 463.46,267.01 L 466.69,268.23 L 470.12,268.56 L 473.22,270.35 L 476.66,270.65 L 479.90,271.79 L 483.39,271.87 L 486.79,272.36 L 490.12,273.13 L 493.23,274.84 L 496.71,274.94 L 500.09,275.50 L 503.22,277.18 L 506.68,277.38 L 509.95,278.39 L 513.42,278.58 L 516.72,279.45 L 519.99,280.52 L 523.37,281.05 L 526.71,281.79 L 530.05,282.52 L 533.38,283.30 L 536.66,284.27 L 540.00,285.00" fill="none" stroke="#111" stroke-linecap="round" stroke-linejoin="round" stroke-width="2.2" /><path d="M 540.00,285.00 L 542.94,282.61 L 546.26,280.72 L 549.04,278.12 L 552.33,276.19 L 554.90,273.30 L 558.25,271.46 L 561.33,269.24 L 564.00,266.49 L 567.58,264.95 L 570.01,261.88 L 573.43,260.12 L 576.62,258.08 L 579.43,255.50 L 582.57,253.38 L 585.31,250.72 L 588.28,248.36 L 591.39,246.20 L 594.49,244.02 L 597.38,241.56 L 600.67,239.62 L 603.33,236.87 L 606.55,234.85 L 610.00,233.13 L 612.66,230.36 L 615.74,228.16 L 618.57,225.62 L 621.69,223.46 L 624.71,221.17 L 628.00,219.25 L 630.77,216.63 L 633.85,214.43 L 636.92,212.20 L 640.00,210.00" fill="none" stroke="#111" stroke-linecap="round" stroke-linejoin="round" stroke-width="2.2" /><path d="M 640.00,210.00 L 643.63,210.94 L 647.19,212.15 L 651.02,212.29 L 654.45,214.02 L 658.25,214.26 L 661.69,215.96 L 665.60,215.80 L 668.97,217.74 L 672.74,218.15 L 676.24,219.58 L 679.89,220.43 L 683.78,220.35 L 687.24,221.95 L 691.01,222.31 L 694.66,223.19 L 698.17,224.59 L 701.72,225.85 L 705.33,226.84 L 709.13,227.11 L 712.86,227.66 L 716.41,228.89 L 719.89,230.44 L 723.52,231.38 L 727.21,232.06 L 730.77,233.27 L 734.57,233.55 L 738.06,235.03 L 741.85,235.31 L 745.37,236.71 L 749.04,237.48 L 752.80,237.90 L 756.33,239.22 L 760.00,240.00" fill="none" stroke="#111" stroke-linecap="round" stroke-linejoin="round" stroke-width="2.2" /><path d="M 760.00,240.00 L 763.54,237.44 L 767.09,234.88 L 770.68,232.39 L 774.64,230.45 L 778.44,228.27 L 781.79,225.42 L 785.54,223.16 L 788.84,220.23 L 793.02,218.62 L 796.33,215.70 L 800.33,213.83 L 803.33,210.45 L 806.98,208.05 L 810.85,205.98 L 814.82,204.05 L 817.99,200.93 L 821.53,198.36 L 825.24,196.04 L 828.95,193.72 L 832.57,191.27 L 836.58,189.41 L 840.25,187.05 L 843.73,184.39 L 847.52,182.18 L 851.14,179.74 L 854.38,176.72 L 858.36,174.81 L 861.73,171.99 L 865.36,169.55 L 868.81,166.86 L 872.69,164.80 L 876.27,162.29 L 880.00,160.00" fill="none" stroke="#111" stroke-linecap="round" stroke-linejoin="round" stroke-width="2.2" /></svg>